<svg width="633" height="1080" viewBox="0 0 633 1080" fill="none" xmlns="http://www.w3.org/2000/svg">
<path d="M130.617 306.868H92.3431C81.1161 277.269 69.3788 242.568 57.1311 202.763C45.9041 162.958 36.2081 125.195 28.043 89.4724C63.7653 58.8532 106.632 34.8683 156.643 17.5175C206.654 -0.853956 260.748 -10.0397 318.924 -10.0397C369.956 -10.0397 413.844 -2.89523 450.586 11.3937C487.329 25.6826 517.438 45.0747 540.913 69.5699C565.408 94.0652 583.269 122.643 594.496 155.303C605.723 186.943 611.337 220.114 611.337 254.815C611.337 311.971 598.068 370.658 571.532 430.875C544.995 491.093 511.825 549.779 472.02 606.935C433.236 663.07 390.879 716.143 344.951 766.154C299.022 816.165 256.666 860.053 217.881 897.816L153.581 957.524V963.647L239.315 954.462H502.639L577.656 782.995H615.93C617.971 805.449 620.012 829.944 622.053 856.481C624.095 883.017 625.626 910.064 626.646 937.621C628.688 964.158 630.219 990.184 631.239 1015.7C632.26 1040.2 632.77 1061.63 632.77 1080H0.485821V1031.01C22.9398 1007.53 49.9867 978.957 81.6264 945.276C114.287 911.595 147.968 874.342 182.669 833.516C217.371 792.691 251.562 749.314 285.243 703.385C319.945 657.457 350.564 611.018 377.101 564.068C403.637 516.098 425.071 468.639 441.401 421.69C458.752 374.74 467.427 329.832 467.427 286.966C467.427 257.367 463.344 229.3 455.179 202.763C448.035 176.226 436.808 153.262 421.498 133.87C406.189 113.457 387.307 97.6374 364.853 86.4104C343.42 75.1834 318.414 69.5699 289.836 69.5699C268.403 69.5699 249.521 71.1009 233.191 74.1628C216.861 77.2247 199 81.8176 179.608 87.9414L130.617 306.868Z" fill="#23A159" fill-opacity="0.3"/>
</svg>
