<svg width="13" height="12" viewBox="0 0 13 12" fill="none" xmlns="http://www.w3.org/2000/svg">
<g clip-path="url(#clip0)">
<path d="M2.80882 5.29289C2.4183 4.90237 1.78513 4.90237 1.39461 5.29289C1.00408 5.68342 1.00408 6.31658 1.39461 6.70711L5.63725 10.9497C6.02777 11.3403 6.66094 11.3403 7.05146 10.9497C7.44198 10.5592 7.44198 9.92606 7.05146 9.53553L2.80882 5.29289Z" fill="#141414"/>
<path d="M1.39452 5.29274C1.00399 5.68327 1.00399 6.31643 1.39452 6.70696C1.78504 7.09748 2.41821 7.09748 2.80873 6.70696L7.05137 2.46432C7.4419 2.07379 7.4419 1.44063 7.05137 1.0501C6.66085 0.659578 6.02768 0.659577 5.63716 1.0501L1.39452 5.29274Z" fill="#141414"/>
</g>
<defs>
<clipPath id="clip0">
<rect width="13" height="12" fill="white" transform="translate(13 12) rotate(-180)"/>
</clipPath>
</defs>
</svg>
