<svg width="40" height="40" viewBox="0 0 40 40" fill="none" xmlns="http://www.w3.org/2000/svg">
<circle cx="20" cy="20" r="14.1421" transform="rotate(45 20 20)" fill="#23A159"/>
<path d="M20 20L30 30L22.1213 37.8787C20.9497 39.0503 19.0503 39.0503 17.8787 37.8787L10 30L20 20Z" fill="#23A159"/>
<path fill-rule="evenodd" clip-rule="evenodd" d="M23.5686 15.0591C22.3605 15.9322 20.9949 17.2262 19.8521 18.3555C19.8316 18.3758 19.8111 18.3961 19.7909 18.4164L21.5834 20.2089C21.6053 20.1875 21.6273 20.166 21.6493 20.1442C22.7895 19.0175 24.0868 17.6563 24.9574 16.4485C25.3955 15.8406 25.7006 15.3051 25.8359 14.8797C25.974 14.4451 25.8968 14.2695 25.8141 14.187L25.8136 14.1866C25.738 14.1109 25.5696 14.0328 25.1346 14.1744C24.7108 14.3123 24.1765 14.6198 23.5686 15.0591ZM20.8466 20.8863L19.1099 19.1496C18.6072 19.7357 18.2476 20.2722 18.0064 20.7349C18.2638 20.8774 18.5058 21.0579 18.7242 21.2763C18.9433 21.4953 19.1241 21.7381 19.2669 21.9962C19.7268 21.7561 20.2549 21.3941 20.8466 20.8863ZM19.6095 22.9437C19.8038 23.9569 19.5087 25.0455 18.7242 25.83C18.374 26.1803 17.8559 26.4173 17.3382 26.5838C16.8078 26.7545 16.2169 26.8699 15.6669 26.9443C15.1156 27.0189 14.5915 27.054 14.1894 27.0594C13.9895 27.0621 13.8111 27.0576 13.6704 27.0452C13.6014 27.0391 13.5295 27.0301 13.4637 27.0156C13.4311 27.0084 13.389 26.9975 13.3446 26.9802C13.3099 26.9666 13.2253 26.9312 13.1473 26.8533L13.1469 26.8529C13.0692 26.775 13.0339 26.6905 13.0203 26.6558C13.003 26.6115 12.9921 26.5694 12.985 26.5368C12.9705 26.471 12.9615 26.399 12.9554 26.3301C12.943 26.1894 12.9385 26.011 12.9412 25.811C12.9466 25.4089 12.9817 24.8848 13.0562 24.3336C13.1306 23.7836 13.246 23.1927 13.4167 22.6623C13.5832 22.1447 13.8203 21.6266 14.1705 21.2763C14.9556 20.4912 16.0453 20.1963 17.0592 20.3915C17.4588 19.5856 18.138 18.6435 19.1492 17.6442C20.2918 16.5152 21.7058 15.1715 22.9828 14.2486C23.6174 13.79 24.2521 13.41 24.8251 13.2235C25.3869 13.0406 26.0429 13.0011 26.5211 13.4798C27.0005 13.9589 26.9693 14.615 26.7889 15.1826C26.6054 15.7596 26.227 16.3972 25.7686 17.0333C24.8459 18.3134 23.4973 19.7239 22.3522 20.8555C21.3404 21.8553 20.4213 22.5426 19.6095 22.9437ZM18.0171 21.9834C17.1502 21.1165 15.7446 21.1165 14.8776 21.9834C14.6968 22.1643 14.5195 22.4996 14.3686 22.9686C14.2218 23.4248 14.1167 23.9537 14.0472 24.4675C13.9779 24.9801 13.9459 25.4639 13.9411 25.8245C13.9399 25.912 13.9404 25.9903 13.9421 26.0585C14.0102 26.0602 14.0884 26.0607 14.1759 26.0595C14.5365 26.0546 15.0203 26.0226 15.5329 25.9533C16.0467 25.8839 16.5757 25.7787 17.0319 25.6319C17.5009 25.481 17.8363 25.3037 18.0171 25.1229C18.8841 24.2559 18.8841 22.8504 18.0171 21.9834Z" fill="white"/>
</svg>
