<svg width="775" height="1190" viewBox="0 0 775 1190" fill="none" xmlns="http://www.w3.org/2000/svg">
<path d="M653.262 612.658V693H305V329H652.169V362.886H665.837M653.262 612.658H665.837M653.262 612.658H640.141V602.82H665.837M675.131 362.886V612.658H665.837M675.131 362.886H665.837M675.131 362.886H697M665.837 362.886V602.82M665.837 612.658V602.82" stroke="#23A159"/>
<path d="M512.261 275H697M277.238 275H324.243M-19 275H271.773M512.261 278H697M277.238 278H324.243M-19 278H271.773" stroke="#72AF74" stroke-opacity="0.3"/>
<path d="M562.469 660H652M305 660H520.511M562.469 663H652M305 663H520.511" stroke="#72AF74" stroke-opacity="0.3"/>
<path d="M-19 660H158M-19 663H158" stroke="#72AF74" stroke-opacity="0.3"/>
<path d="M-19 1060H104M-19 1064H102.907" stroke="#72AF74" stroke-opacity="0.3"/>
<path d="M123 1060H160M123 1064H160" stroke="#72AF74" stroke-opacity="0.3"/>
<path d="M305 1060H394M305 1064H369.975" stroke="#72AF74" stroke-opacity="0.3"/>
<path d="M423 1060H470M423 1064H469.453" stroke="#72AF74" stroke-opacity="0.3"/>
<path d="M602 1060H654M602 1064H653.395" stroke="#72AF74" stroke-opacity="0.3"/>
<path d="M319 231.007C325 230.83 337 233.981 337 248" stroke="#23A159"/>
<path d="M517 231.007C511 230.83 499 233.981 499 248" stroke="#23A159"/>
<path d="M340 283H498" stroke="#23A159"/>
<path d="M350.674 241L337 248H418.5M418.5 248L412.483 241M418.5 248H500L486.872 241" stroke="#23A159"/>
<path d="M418 248L425 241" stroke="#23A159"/>
<path d="M329.44 300L331.088 283.005H326.692L323.945 280.264C324.128 265.827 323.396 235.639 319 230.376L337.681 222.701L340.978 205.157H348.67V196.386C349.037 194.924 351.198 192 356.912 192C362.626 192 395.923 192 411.857 192C414.238 192.183 419 194.083 419 200.223C419 206.363 419 229.096 419 239.695" stroke="#23A159"/>
<path d="M507.56 300L505.912 283.005H510.308L513.055 280.264C512.872 265.827 513.604 235.639 518 230.376L499.319 222.701L496.022 205.157H488.33V196.386C487.963 194.924 485.802 192 480.088 192C474.374 192 441.077 192 425.143 192C422.762 192.183 418 194.083 418 200.223C418 206.363 418 229.096 418 239.695" stroke="#23A159"/>
<path d="M107 4V9.92308L108.091 11H117.909L119 9.92308V4" stroke="#23A159"/>
<path d="M113.053 11V48.1429M113.053 48.1429H86.5263L81 76H144L137.368 48.1429H113.053Z" stroke="#23A159"/>
<path d="M94 76C99.1401 76.5714 109.53 79.7714 109.971 88H116.58M132 76C126.86 76.5714 116.47 79.7714 116.029 88" stroke="#23A159"/>
<path d="M111 88V92H114V88" stroke="#23A159"/>
<path d="M260.2 109L247 154H302L288.25 109H260.2Z" stroke="#23A159"/>
<path d="M272 155V280H277V155" stroke="#23A159"/>
<path d="M388 159V75H451V159H388Z" stroke="#23A159"/>
<path d="M392 155V79H447V155H392Z" stroke="#23A159"/>
<path d="M401 143V91H438V143H401Z" stroke="#23A159"/>
<path d="M696.653 1H0V1189H769.733V1142.07H774V1133.34H730.259V1089.14H735.06V1086H696.653V1Z" fill="#D4E5D5" fill-opacity="0.1" stroke="#23A159"/>
<path d="M108.667 1050C108.667 1046.21 107.133 1037.43 101 1032.67H106.476V1022.38C107.206 1020.93 108.557 1017.72 108.119 1016.42L111.405 1020.21C112.317 1017.32 113.924 1011.43 113.048 1011C116.698 1014.79 123.124 1024.43 119.619 1032.67C121.079 1031.58 123.452 1028.88 124 1027.25C122.905 1034.29 119.29 1048.7 115.786 1050" stroke="#72AF74" stroke-opacity="0.61"/>
<path d="M107 1035C108.667 1037.32 112 1043.57 112 1050" stroke="#72AF74" stroke-opacity="0.61"/>
<path d="M111 1020V1033" stroke="#72AF74" stroke-opacity="0.61"/>
<path d="M104 1059H122" stroke="#23A159"/>
<path d="M104 1069H122" stroke="#23A159"/>
<path d="M482 1063.45V1052.93C483.5 1050.72 487.4 1047.62 491 1052.93V1064" stroke="#23A159"/>
<path d="M494 1063.45V1052.93C495.5 1050.72 499.4 1047.62 503 1052.93V1064" stroke="#23A159"/>
<path d="M611 490H642" stroke="#23A159"/>
<path d="M610 494H643C641.865 488.09 638.385 474.589 633.845 470" stroke="#23A159"/>
<path d="M620 469H634" stroke="#23A159"/>
<path d="M611 494C612.125 487.704 615.5 473.889 620 469" stroke="#23A159"/>
<path d="M-17 300H697" stroke="#23A159"/>
<path d="M419 239.338L412.963 241H350.397C347.104 238.046 343.985 230.505 347.653 219.4C350.946 209.431 350.397 205 346.556 205" stroke="#23A159"/>
<path d="M418 239.338L424.037 241H486.603C489.896 238.046 493.015 230.505 489.347 219.4C486.054 209.431 486.603 205 490.444 205" stroke="#23A159"/>
<path d="M337 248V260.467C337 261.978 337.658 265 340.288 265C342.918 265 392.525 265 417 265V248" stroke="#23A159"/>
<path d="M499 248V260.467C499 261.978 498.342 265 495.712 265C493.082 265 443.475 265 419 265V248" stroke="#23A159"/>
<path d="M334.176 300L340 283H331" stroke="#23A159"/>
<path d="M502.824 300L497 283H506" stroke="#23A159"/>
<path d="M-17 329H275V693H-17" stroke="#23A159"/>
<path d="M272 280C269.407 281.481 265.444 285.667 270.333 290.556V292.222C269.223 294.444 264.223 298.889 259.778 293.333C259.222 292.222 257 292.444 257 295.556C257 298.667 259.222 299.815 260.334 300" stroke="#23A159"/>
<path d="M277 280C279.42 281.481 283.119 285.667 278.556 290.556V292.222C279.592 294.444 284.259 298.889 288.407 293.333C288.926 292.222 291 292.444 291 295.556C291 298.667 288.926 299.815 287.889 300" stroke="#23A159"/>
<path d="M269 300L274.5 296L280 300" stroke="#23A159"/>
<path d="M61 451H93V446H61" stroke="#23A159"/>
<path d="M61 871H93V866H61" stroke="#23A159"/>
<path fill-rule="evenodd" clip-rule="evenodd" d="M628.911 501.566C632.434 502.525 635.024 505.747 635.024 509.574C635.024 514.158 631.309 517.873 626.725 517.873C622.141 517.873 618.426 514.158 618.426 509.574C618.426 505.748 621.014 502.527 624.535 501.567V500.534C620.456 501.519 617.426 505.192 617.426 509.574C617.426 514.71 621.589 518.873 626.725 518.873C631.861 518.873 636.024 514.71 636.024 509.574C636.024 505.191 632.992 501.517 628.911 500.533V501.566Z" fill="#23A159"/>
<path d="M624.5 494.5H628.5V509.5C628.5 510.605 627.605 511.5 626.5 511.5C625.395 511.5 624.5 510.605 624.5 509.5V494.5Z" stroke="#23A159"/>
<path d="M88 451V471.213H120.807V491.972H154.708V510H275" stroke="#23A159"/>
<path d="M88 871V891.213H120.807V911.972H154.708V930H275" stroke="#23A159"/>
<path d="M88 466H126V471H120.029" stroke="#23A159"/>
<path d="M88 886H126V891H120.029" stroke="#23A159"/>
<path d="M121 487H159V492H153.029" stroke="#23A159"/>
<path d="M121 907H159V912H153.029" stroke="#23A159"/>
<path d="M155 506H275" stroke="#23A159"/>
<path d="M155 925H275" stroke="#23A159"/>
<path d="M275 531H155V527H275" stroke="#23A159"/>
<path d="M275 951H155V947H275" stroke="#23A159"/>
<path d="M275 552H155V547H275" stroke="#23A159"/>
<path d="M275 972H155V967H275" stroke="#23A159"/>
<path d="M275 571H155V567H275" stroke="#23A159"/>
<path d="M275 991H155V987H275" stroke="#23A159"/>
<path fill-rule="evenodd" clip-rule="evenodd" d="M60.0626 328.512V479.488V479.773L60.3089 479.918L158.525 537.757V547.317H159.525V537.471V537.185L159.279 537.04L61.0626 479.202V328.512H60.0626ZM158.525 567.01V551.693H159.525V567.01H158.525ZM159.525 571.386H158.525V579.638H29.3828H28.8828V580.138V692.823H29.8828V580.638H159.025H159.525V580.138V571.386Z" fill="#23A159"/>
<path d="M275 592H155V588H275" stroke="#23A159"/>
<path d="M275 1012H155V1008H275" stroke="#23A159"/>
<path d="M275 613H155V609H275" stroke="#23A159"/>
<path d="M275 1033H155V1029H275" stroke="#23A159"/>
<path d="M275 633H155V628H275" stroke="#23A159"/>
<path d="M275 1053H155V1048H275" stroke="#23A159"/>
<path d="M275 653H155V649H275" stroke="#23A159"/>
<path d="M275 1074H155V1069H275" stroke="#23A159"/>
<path d="M275 673H155V669H275" stroke="#23A159"/>
<path d="M159 510V526" stroke="#23A159"/>
<path d="M159 930V946" stroke="#23A159"/>
<path d="M159 531V547" stroke="#23A159"/>
<path d="M159 951V967" stroke="#23A159"/>
<path d="M159 580V588" stroke="#23A159"/>
<path d="M159 592V609" stroke="#23A159"/>
<path d="M159 1012V1029" stroke="#23A159"/>
<path d="M159 991V1008" stroke="#23A159"/>
<path d="M159 972V987" stroke="#23A159"/>
<path d="M159 613L159 628" stroke="#23A159"/>
<path d="M159 1033L159 1048" stroke="#23A159"/>
<path d="M159 633L159 649" stroke="#23A159"/>
<path d="M159 1053L159 1069" stroke="#23A159"/>
<path d="M159 653L159 669" stroke="#23A159"/>
<path d="M159 1074L159 1087" stroke="#23A159"/>
<path d="M159 673L159 693" stroke="#23A159"/>
<path d="M675 612H697" stroke="#23A159"/>
<path d="M305 1086V716H653V1086H305Z" stroke="#23A159"/>
<path d="M-74 1086V716H275V1086H-74Z" stroke="#23A159"/>
<path d="M60 716V899.489L159 957" stroke="#23A159"/>
<path d="M-16.9057 1095.33H129.736M-16.9057 1104.11H55.8679M-16.9057 1112.89H275.283M-7.0566 1086.55V1095.33M35.6226 1095.33V1104.11M21.3962 1104.11V1112.89M21.3962 1086.55V1095.33M8.26415 1095.33V1104.11M-7.0566 1104.11V1112.89M49.8491 1086.55V1095.33M49.8491 1104.11V1112.89M-16.9057 1148.55H129.736M-16.9057 1157.33H55.8679M-16.9057 1166.11H275.283M-7.0566 1139.77V1148.55M35.6226 1148.55V1157.33M21.3962 1157.33V1166.11M21.3962 1139.77V1148.55M8.26415 1148.55V1157.33M-7.0566 1157.33V1166.11M49.8491 1139.77V1148.55M49.8491 1157.33V1166.11M129.189 1104.11H201.962M129.189 1104.11H55.3208M129.189 1104.11V1095.33H275.83M139.038 1086.55V1095.33M181.717 1095.33V1104.11M167.491 1104.11V1112.89M167.491 1086.55V1095.33M154.358 1095.33V1104.11M139.038 1104.11V1112.89M195.943 1086.55V1095.33M195.943 1104.11V1112.89M129.189 1157.33H201.962M129.189 1157.33H55.3208M129.189 1157.33V1148.55H275.83M139.038 1139.77V1148.55M181.717 1148.55V1157.33M167.491 1157.33V1166.11M167.491 1139.77V1148.55M154.358 1148.55V1157.33M139.038 1157.33V1166.11M195.943 1139.77V1148.55M195.943 1157.33V1166.11M421.377 1104.11H494.151M421.377 1112.89H567.472M431.226 1086.55V1095.33M473.906 1095.33V1104.11M459.679 1104.11V1112.89M459.679 1086.55V1095.33M446.547 1095.33V1104.11M431.226 1104.11V1112.89M488.132 1086.55V1095.33M488.132 1104.11V1112.89M421.377 1157.33H494.151M421.377 1166.11H567.472M431.226 1139.77V1148.55M473.906 1148.55V1157.33M459.679 1157.33V1166.11M459.679 1139.77V1148.55M446.547 1148.55V1157.33M431.226 1157.33V1166.11M488.132 1139.77V1148.55M488.132 1157.33V1166.11M274.736 1095.33H568.019M274.736 1104.11H347.509M274.736 1112.89H420.83M284.585 1086.55V1095.33M327.264 1095.33V1104.11M313.038 1104.11V1112.89M313.038 1086.55V1095.33M299.906 1095.33V1104.11M284.585 1104.11V1112.89M341.491 1086.55V1095.33M341.491 1104.11V1112.89M274.736 1148.55H568.019M274.736 1157.33H347.509M274.736 1166.11H420.83M284.585 1139.77V1148.55M327.264 1148.55V1157.33M313.038 1157.33V1166.11M313.038 1139.77V1148.55M299.906 1148.55V1157.33M284.585 1157.33V1166.11M341.491 1139.77V1148.55M341.491 1157.33V1166.11M566.924 1095.33H731.075M566.924 1104.11H639.698M566.924 1112.89H731.623M576.774 1086.55V1095.33M619.453 1095.33V1104.11M605.226 1104.11V1112.89M605.226 1086.55V1095.33M592.094 1095.33V1104.11M576.774 1104.11V1112.89M633.679 1086.55V1095.33M633.679 1104.11V1112.89M566.924 1148.55H770M566.924 1157.33H639.698M566.924 1166.11H769.953M576.774 1139.77V1148.55M619.453 1148.55V1157.33M605.226 1157.33V1166.11M605.226 1139.77V1148.55M592.094 1148.55V1157.33M576.774 1157.33V1166.11M633.679 1139.77V1148.55M633.679 1157.33V1166.11M55.8679 1086H129.189M66.2642 1086.55V1095.33M108.943 1095.33V1104.11M94.717 1104.11V1112.89M94.717 1086.55V1095.33M81.5849 1095.33V1104.11M66.2642 1104.11V1112.89M123.17 1086.55V1095.33M123.17 1104.11V1112.89M66.2642 1139.77V1148.55M108.943 1148.55V1157.33M94.717 1157.33V1166.11M94.717 1139.77V1148.55M81.5849 1148.55V1157.33M66.2642 1157.33V1166.11M123.17 1139.77V1148.55M123.17 1157.33V1166.11M201.415 1104.11H275.283V1095.33M201.962 1086H275.283M212.358 1086.55V1095.33M255.038 1095.33V1104.11M240.811 1104.11V1112.89M240.811 1086.55V1095.33M227.679 1095.33V1104.11M212.358 1104.11V1112.89M269.264 1086.55V1095.33M269.264 1104.11V1112.89M201.415 1157.33H275.283V1148.55M212.358 1139.77V1148.55M255.038 1148.55V1157.33M240.811 1157.33V1166.11M240.811 1139.77V1148.55M227.679 1148.55V1157.33M212.358 1157.33V1166.11M269.264 1139.77V1148.55M269.264 1157.33V1166.11M493.604 1104.11H567.472V1095.33M494.151 1086H567.472M504.547 1086.55V1095.33M547.226 1095.33V1104.11M533 1104.11V1112.89M533 1086.55V1095.33M519.868 1095.33V1104.11M504.547 1104.11V1112.89M561.453 1086.55V1095.33M561.453 1104.11V1112.89M493.604 1157.33H567.472V1148.55M504.547 1139.77V1148.55M547.226 1148.55V1157.33M533 1157.33V1166.11M533 1139.77V1148.55M519.868 1148.55V1157.33M504.547 1157.33V1166.11M561.453 1139.77V1148.55M561.453 1157.33V1166.11M346.962 1104.11H420.83V1095.33M347.509 1086H420.83M357.906 1086.55V1095.33M400.585 1095.33V1104.11M386.358 1104.11V1112.89M386.358 1086.55V1095.33M373.226 1095.33V1104.11M357.906 1104.11V1112.89M414.811 1086.55V1095.33M414.811 1104.11V1112.89M346.962 1157.33H420.83V1148.55M357.906 1139.77V1148.55M400.585 1148.55V1157.33M386.358 1157.33V1166.11M386.358 1139.77V1148.55M373.226 1148.55V1157.33M357.906 1157.33V1166.11M414.811 1139.77V1148.55M414.811 1157.33V1166.11M-17.4528 1122.22H137.943M-18 1130.99H64.0755M-17.4528 1139.77H283.491M1.15094 1113.44V1122.22M43.8302 1122.22V1130.99M29.6038 1130.99V1139.77M29.6038 1113.44V1122.22M16.4717 1122.22V1130.99M1.15094 1130.99V1139.77M58.0566 1113.44V1122.22M58.0566 1130.99V1139.77M-17.4528 1175.44H137.943M-18 1184.22H64.0755M-17.4528 1189H283.491M1.15094 1166.66V1175.44M43.8302 1175.44V1184.22M29.6038 1184.22V1189M29.6038 1166.66V1175.44M16.4717 1175.44V1184.22M1.15094 1184.22V1189M58.0566 1166.66V1175.44M58.0566 1184.22V1189M137.396 1130.99H210.17M137.396 1130.99H63.5283M137.396 1130.99V1122.22H284.038M147.245 1113.44V1122.22M189.925 1122.22V1130.99M175.698 1130.99V1139.77M175.698 1113.44V1122.22M162.566 1122.22V1130.99M147.245 1130.99V1139.77M204.151 1113.44V1122.22M204.151 1130.99V1139.77M137.396 1184.22H210.17M137.396 1184.22H63.5283M137.396 1184.22V1175.44H284.038M147.245 1166.66V1175.44M189.925 1175.44V1184.22M175.698 1184.22V1189M175.698 1166.66V1175.44M162.566 1175.44V1184.22M147.245 1184.22V1189M204.151 1166.66V1175.44M204.151 1184.22V1189M429.585 1130.99H502.358M439.434 1113.44V1122.22M482.113 1122.22V1130.99M467.887 1130.99V1139.77M467.887 1113.44V1122.22M454.755 1122.22V1130.99M439.434 1130.99V1139.77M496.34 1113.44V1122.22M496.34 1130.99V1139.77M429.585 1184.22H502.358M429.585 1189H575.679M439.434 1166.66V1175.44M482.113 1175.44V1184.22M467.887 1184.22V1189M467.887 1166.66V1175.44M454.755 1175.44V1184.22M439.434 1184.22V1189M496.34 1166.66V1175.44M496.34 1184.22V1189M282.943 1122.22H576.226M282.943 1130.99H355.717M282.943 1139.77H575.679M292.792 1113.44V1122.22M335.472 1122.22V1130.99M321.245 1130.99V1139.77M321.245 1113.44V1122.22M308.113 1122.22V1130.99M292.792 1130.99V1139.77M349.698 1113.44V1122.22M349.698 1130.99V1139.77M282.943 1175.44H576.226M282.943 1184.22H355.717M282.943 1189H429.038M292.792 1166.66V1175.44M335.472 1175.44V1184.22M321.245 1184.22V1189M321.245 1166.66V1175.44M308.113 1175.44V1184.22M292.792 1184.22V1189M349.698 1166.66V1175.44M349.698 1184.22V1189M575.132 1122.22H648.453M575.132 1130.99H647.906M575.132 1139.77H647.906M584.981 1113.44V1122.22M627.66 1122.22V1130.99M613.434 1130.99V1139.77M613.434 1113.44V1122.22M600.302 1122.22V1130.99M584.981 1130.99V1139.77M641.887 1113.44V1122.22M641.887 1130.99V1139.77M575.132 1175.44H648.453M575.132 1184.22H647.906M575.132 1189H647.906M584.981 1166.66V1175.44M627.66 1175.44V1184.22M613.434 1184.22V1189M613.434 1166.66V1175.44M600.302 1175.44V1184.22M584.981 1184.22V1189M641.887 1166.66V1175.44M641.887 1184.22V1189M646.811 1122.22H730.528M646.264 1130.99H731.075M647.358 1139.77H774M665.415 1113.44V1122.22M708.094 1122.22V1130.99M693.868 1130.99V1139.77M693.868 1113.44V1122.22M680.736 1122.22V1130.99M665.415 1130.99V1139.77M722.321 1113.44V1122.22M722.321 1130.99V1139.77M646.811 1175.44H769.406M646.811 1184.22H770.5M647.358 1189H731.075M665.415 1166.66V1175.44M708.094 1175.44V1184.22M693.868 1184.22V1189M693.868 1166.66V1175.44M680.736 1175.44V1184.22M665.415 1184.22V1189M722.321 1166.66V1175.44M722.321 1184.22V1189M64.0755 1112.89H137.396M74.4717 1113.44V1122.22M117.151 1122.22V1130.99M102.925 1130.99V1139.77M102.925 1113.44V1122.22M89.7924 1122.22V1130.99M74.4717 1130.99V1139.77M131.377 1113.44V1122.22M131.377 1130.99V1139.77M64.0755 1166.11H137.396M74.4717 1166.66V1175.44M117.151 1175.44V1184.22M102.925 1184.22V1189M102.925 1166.66V1175.44M89.7924 1175.44V1184.22M74.4717 1184.22V1189M131.377 1166.66V1175.44M131.377 1184.22V1189M209.623 1130.99H283.491V1122.22M210.17 1112.89H283.491M220.566 1113.44V1122.22M263.245 1122.22V1130.99M249.019 1130.99V1139.77M249.019 1113.44V1122.22M235.887 1122.22V1130.99M220.566 1130.99V1139.77M277.472 1113.44V1122.22M277.472 1130.99V1139.77M209.623 1184.22H283.491V1175.44M210.17 1166.11H283.491M220.566 1166.66V1175.44M263.245 1175.44V1184.22M249.019 1184.22V1189M249.019 1166.66V1175.44M235.887 1175.44V1184.22M220.566 1184.22V1189M277.472 1166.66V1175.44M277.472 1184.22V1189M501.811 1130.99H575.679V1122.22M502.358 1112.89H575.679M512.755 1113.44V1122.22M555.434 1122.22V1130.99M541.208 1130.99V1139.77M541.208 1113.44V1122.22M528.075 1122.22V1130.99M512.755 1130.99V1139.77M569.66 1113.44V1122.22M569.66 1130.99V1139.77M501.811 1184.22H575.679V1175.44M502.358 1166.11H575.679M512.755 1166.66V1175.44M555.434 1175.44V1184.22M541.208 1184.22V1189M541.208 1166.66V1175.44M528.075 1175.44V1184.22M512.755 1184.22V1189M569.66 1166.66V1175.44M569.66 1184.22V1189M355.17 1130.99H429.038V1122.22M355.717 1112.89H429.038M366.113 1113.44V1122.22M408.792 1122.22V1130.99M394.566 1130.99V1139.77M394.566 1113.44V1122.22M381.434 1122.22V1130.99M366.113 1130.99V1139.77M423.019 1113.44V1122.22M423.019 1130.99V1139.77M355.17 1184.22H429.038V1175.44M355.717 1166.11H429.038M366.113 1166.66V1175.44M408.792 1175.44V1184.22M394.566 1184.22V1189M394.566 1166.66V1175.44M381.434 1175.44V1184.22M366.113 1184.22V1189M423.019 1166.66V1175.44M423.019 1184.22V1189M639.151 1104.11H731.075M639.698 1086H713.019M650.094 1086.55V1095.33M692.774 1095.33V1104.11M678.547 1104.11V1112.89M678.547 1086.55V1095.33M665.415 1095.33V1104.11M650.094 1104.11V1112.89M707 1104.11V1112.89M639.151 1157.33H769.953M650.094 1139.77V1148.55M692.774 1148.55V1157.33M678.547 1157.33V1166.11M678.547 1139.77V1148.55M665.415 1148.55V1157.33M650.094 1157.33V1166.11M707 1157.33V1166.11M740.377 1157.33V1166.11M752.962 1166.11V1174.89M740.377 1175.44V1184.22M752.962 1184.22V1189M731.075 1149.1V1157.88M708.094 1139.77V1148.55" stroke="#72AF74" stroke-opacity="0.25"/>
<path d="M469.369 1086V1031.13H465V1024H607V1031.13H602.085V1086M474.831 1031.13H596.623V1064.6H474.831V1031.13Z" stroke="#23A159"/>
<path d="M475 1086V1070H597V1086" stroke="#23A159"/>
<path d="M475 1042H596" stroke="#23A159"/>
<path d="M475 1046H596" stroke="#23A159"/>
<path d="M482 1064C483.312 1061.74 486.95 1058.57 491 1064" stroke="#23A159"/>
<path d="M494 1064C495.312 1061.74 498.95 1058.57 503 1064" stroke="#23A159"/>
<path d="M109.124 1086C104.625 1077.27 98.2185 1058.29 108.583 1054.36L104.265 1050H121L116.681 1054.36" stroke="#23A159"/>
<path d="M116 1086C121.142 1077.27 128.466 1058.29 116.618 1054.36L121.554 1050" stroke="#23A159"/>
<path d="M594 752H366V992H594V752Z" fill="white"/>
<path d="M587.455 758.56H372.545V985.44H587.455V758.56Z" fill="white"/>
<path d="M472.909 764.027H378V815.417H472.909V764.027Z" fill="white"/>
<path d="M472.909 829.631H378V976.146H472.909V829.631Z" fill="white"/>
<path d="M582 829.631H487.091V976.146H582V829.631Z" fill="white"/>
<path d="M582 764.027H487.091V815.417H582V764.027Z" fill="white"/>
<path d="M477.818 758.56V985.44M481.636 758.56V985.44M423.818 764.027V815.417M423.818 829.631V976.146M532.909 829.631V976.146M532.909 764.027V815.417M427.091 764.027V815.417M427.091 829.631V976.146M536.182 829.631V976.146M536.182 764.027V815.417M372.545 820.884H477.818M481.636 820.884H586.909M372.545 824.164H477.818M378 878.834H423.273M487.091 878.834H532.364M378 925.85H423.273M487.091 925.85H532.364M427.091 878.834H472.364M536.182 878.834H581.455M427.091 925.85H472.364M536.182 925.85H581.455M378 881.02H423.273M487.091 881.02H532.364M378 928.036H423.273M487.091 928.036H532.364M427.091 881.02H472.364M536.182 881.02H581.455M427.091 928.036H472.364M536.182 928.036H581.455M481.636 824.164H586.909M366 752H594V992H366V752ZM372.545 758.56H587.455V985.44H372.545V758.56ZM378 764.027H472.909V815.417H378V764.027ZM378 829.631H472.909V976.146H378V829.631ZM487.091 829.631H582V976.146H487.091V829.631ZM487.091 764.027H582V815.417H487.091V764.027Z" stroke="#23A159"/>
<path d="M594 364H366V604H594V364Z" fill="white"/>
<path d="M587.455 370.56H372.545V597.44H587.455V370.56Z" fill="white"/>
<path d="M472.909 376.027H378V427.417H472.909V376.027Z" fill="white"/>
<path d="M472.909 441.631H378V588.146H472.909V441.631Z" fill="white"/>
<path d="M582 441.631H487.091V588.146H582V441.631Z" fill="white"/>
<path d="M582 376.027H487.091V427.417H582V376.027Z" fill="white"/>
<path d="M477.818 370.56V597.44M481.636 370.56V597.44M423.818 376.027V427.417M423.818 441.631V588.146M532.909 441.631V588.146M532.909 376.027V427.417M427.091 376.027V427.417M427.091 441.631V588.146M536.182 441.631V588.146M536.182 376.027V427.417M372.545 432.884H477.818M481.636 432.884H586.909M372.545 436.164H477.818M378 490.834H423.273M487.091 490.834H532.364M378 537.85H423.273M487.091 537.85H532.364M427.091 490.834H472.364M536.182 490.834H581.455M427.091 537.85H472.364M536.182 537.85H581.455M378 493.02H423.273M487.091 493.02H532.364M378 540.036H423.273M487.091 540.036H532.364M427.091 493.02H472.364M536.182 493.02H581.455M427.091 540.036H472.364M536.182 540.036H581.455M481.636 436.164H586.909M366 364H594V604H366V364ZM372.545 370.56H587.455V597.44H372.545V370.56ZM378 376.027H472.909V427.417H378V376.027ZM378 441.631H472.909V588.146H378V441.631ZM487.091 441.631H582V588.146H487.091V441.631ZM487.091 376.027H582V427.417H487.091V376.027Z" stroke="#23A159"/>
<path d="M275 1086H305" stroke="#23A159"/>
<path d="M370.031 1060.66H365.621C358.085 1049.46 343.673 1023.87 346.32 1011.09C346.384 1010.91 346.46 1010.72 346.549 1010.51C347.725 1007.78 351.053 1002.96 356.798 1001.73V990.16C356.982 987.774 358.893 983 365.069 983H413.043H414.145H427.931C434.107 983 436.018 987.774 436.202 990.16V1001.73C436.265 1001.74 436.328 1001.75 436.391 1001.77C442.447 1003.16 445.77 1008.55 446.68 1011.09C449.327 1023.87 434.916 1049.46 427.38 1060.66H426.828H422.968H415.248H414.145L415.08 1063.97H377.92L378.855 1060.66H370.031Z" fill="#F8FBF8"/>
<path d="M365.621 1060.66C365.988 1056.62 368.157 1048.55 373.892 1048.55M365.621 1060.66H370.031M365.621 1060.66C358.085 1049.46 343.673 1023.87 346.32 1011.09C347.239 1008.52 350.622 1003.05 356.798 1001.73M373.892 1048.55H419.108M373.892 1048.55C368.561 1035.33 355.585 1009.22 346.321 1010.54M426.828 1060.66C426.46 1056.62 424.291 1048.55 418.557 1048.55C423.887 1035.33 436.864 1009.22 446.128 1010.54M367.274 1086L370.031 1060.66M370.031 1060.66H378.855M356.798 1001.73V990.16C356.982 987.774 358.893 983 365.069 983H414.145M356.798 1001.73C362.68 1002.28 374.333 1008.56 373.892 1029.27M371.686 1086L378.855 1060.66M378.855 1060.66H415.248M377.92 1063.97H415.08M421.314 1086L414.145 1060.66H422.968M422.968 1060.66L425.726 1086M422.968 1060.66H427.38C434.916 1049.46 449.327 1023.87 446.68 1011.09C445.76 1008.52 442.378 1003.05 436.202 1001.73V990.16C436.018 987.774 434.107 983 427.931 983H413.043M370.583 1041.39H421.314M367.275 1034.22L373.892 1029.27M373.892 1029.27H419.66L425.174 1034.22M436.766 1001.73C430.884 1002.28 419.231 1008.56 419.672 1029.27" stroke="#23A159"/>
<path d="M601.106 673.893H531.894L524.81 673.893H520.995V635.679C518.996 634.587 515 629.783 515 625.853C515 620.94 518.27 617.118 525.354 614.935V614.882V567.986C527.353 566.895 532.766 566.349 536.254 572.9C545.882 568.714 569.715 562.309 596.746 572.354C600.234 565.803 606.192 566.894 608.19 567.986V614.935V615.109C614.898 617.318 618 621.068 618 625.853C618 629.784 614.004 634.588 612.005 635.68V673.893H608.19L601.106 673.893Z" fill="#F8FBF8"/>
<path d="M536.254 621.486V572.354M596.746 621.486V572.354M596.746 572.354C569.715 562.309 545.882 568.714 536.254 572.9C532.766 566.349 527.353 566.895 525.354 567.986V614.935C518.27 617.118 515 620.94 515 625.853C515 629.783 518.996 634.587 520.995 635.679V673.893H524.81M596.746 572.354C600.234 565.803 606.192 566.894 608.19 567.986V615.48M596.746 638.409V621.396C597.654 618.737 600.779 614.084 608.19 614.935M536.254 638.409V621.396C535.346 618.737 532.221 614.084 524.81 614.935M612.55 617.119C605.139 616.245 600.924 621.486 600.016 624.215V641.684H532.984V624.215C532.076 621.486 527.861 616.245 520.45 617.119M531.894 673.893H601.106M531.894 673.893L528.624 693M531.894 673.893L524.81 673.893M531.894 673.893V658.062L534.619 656.424M601.106 673.893L604.376 693M601.106 673.893L608.19 673.893M601.106 673.893V658.062L597.836 656.424H534.619M524.81 693V673.893M608.19 693V673.893M608.19 673.893H612.005V635.68C614.004 634.588 618 629.784 618 625.853C618 620.94 614.73 617.119 607.646 614.935M534.619 656.424C532.802 653.331 530.803 646.598 532.438 642.776C534.129 638.823 540.069 635.134 543.883 634.588H585.301M598.382 656.424C600.198 653.331 602.197 646.598 600.562 642.776C598.871 638.823 592.931 635.134 589.117 634.588H547.699" stroke="#23A159"/>
<circle cx="617.5" cy="300.5" r="16" fill="white" stroke="#23A159"/>
<circle cx="617.5" cy="300.5" r="7" fill="#23A159" stroke="#23A159"/>
<circle cx="305.5" cy="535.5" r="16" fill="white" stroke="#23A159"/>
<circle cx="305.5" cy="535.5" r="7" fill="#23A159" stroke="#23A159"/>
<circle cx="479.5" cy="880.5" r="16" fill="white" stroke="#23A159"/>
<circle cx="479.5" cy="880.5" r="7" fill="#23A159" stroke="#23A159"/>
</svg>
