<svg width="166" height="86" viewBox="0 0 166 86" fill="none" xmlns="http://www.w3.org/2000/svg">
<path d="M80.384 27.76H79.184C78.832 26.832 78.464 25.744 78.08 24.496C77.728 23.248 77.424 22.064 77.168 20.944C78.288 19.984 79.632 19.232 81.2 18.688C82.768 18.112 84.464 17.824 86.288 17.824C87.888 17.824 89.264 18.048 90.416 18.496C91.568 18.944 92.512 19.552 93.248 20.32C94.016 21.088 94.576 21.984 94.928 23.008C95.28 24 95.456 25.04 95.456 26.128C95.456 27.92 95.04 29.76 94.208 31.648C93.376 33.536 92.336 35.376 91.088 37.168C89.872 38.928 88.544 40.592 87.104 42.16C85.664 43.728 84.336 45.104 83.12 46.288L81.104 48.16V48.352L83.792 48.064H92.048L94.4 42.688H95.6C95.664 43.392 95.728 44.16 95.792 44.992C95.856 45.824 95.904 46.672 95.936 47.536C96 48.368 96.048 49.184 96.08 49.984C96.112 50.752 96.128 51.424 96.128 52H76.304V50.464C77.008 49.728 77.856 48.832 78.848 47.776C79.872 46.72 80.928 45.552 82.016 44.272C83.104 42.992 84.176 41.632 85.232 40.192C86.32 38.752 87.28 37.296 88.112 35.824C88.944 34.32 89.616 32.832 90.128 31.36C90.672 29.888 90.944 28.48 90.944 27.136C90.944 26.208 90.816 25.328 90.56 24.496C90.336 23.664 89.984 22.944 89.504 22.336C89.024 21.696 88.432 21.2 87.728 20.848C87.056 20.496 86.272 20.32 85.376 20.32C84.704 20.32 84.112 20.368 83.6 20.464C83.088 20.56 82.528 20.704 81.92 20.896L80.384 27.76Z" fill="#23A159"/>
<path d="M11.912 42.274H15.4976V42.5248H15.3723C15.2385 42.5248 15.1215 42.5749 15.0212 42.6752C14.9209 42.7588 14.8373 42.8675 14.7705 43.0012C14.7036 43.1349 14.6451 43.277 14.595 43.4275C14.5615 43.5779 14.5448 43.7116 14.5448 43.8287V50.5487C14.2439 50.6657 13.9012 50.766 13.5167 50.8496C13.1323 50.9331 12.7311 51 12.3132 51.0501C11.8953 51.117 11.469 51.1672 11.0344 51.2006C10.5997 51.234 10.1985 51.2507 9.83077 51.2507C8.32629 51.2507 7.01406 51 5.89406 50.4985C4.77406 49.997 3.84629 49.3451 3.11077 48.5427C2.37525 47.7236 1.82361 46.8042 1.45585 45.7845C1.1048 44.7648 0.929279 43.7367 0.929279 42.7003C0.929279 41.6639 1.1048 40.6358 1.45585 39.6161C1.82361 38.5964 2.37525 37.6854 3.11077 36.883C3.86301 36.0806 4.79913 35.437 5.91913 34.9522C7.05585 34.4507 8.40152 34.2 9.95615 34.2C10.5412 34.2 11.0845 34.2501 11.586 34.3504C12.0875 34.4507 12.5305 34.5427 12.915 34.6263C13.1323 34.6764 13.3161 34.7266 13.4666 34.7767C13.6338 34.8101 13.7758 34.8269 13.8929 34.8269H14.1185V37.4848H13.8678C13.7675 36.9666 13.5669 36.5487 13.266 36.231C12.9818 35.9134 12.6475 35.671 12.263 35.5039C11.8785 35.3367 11.469 35.2281 11.0344 35.1779C10.6164 35.111 10.2236 35.0776 9.85585 35.0776C8.60212 35.0776 7.51555 35.3033 6.59615 35.7546C5.67674 36.1893 4.9245 36.7576 4.33943 37.4597C3.75435 38.1618 3.31973 38.9558 3.03555 39.8418C2.75137 40.711 2.60928 41.5803 2.60928 42.4496C2.60928 43.4191 2.79316 44.3803 3.16092 45.3331C3.52868 46.2693 4.04689 47.1134 4.71555 47.8657C5.38421 48.6012 6.18659 49.203 7.12271 49.671C8.07555 50.1224 9.12868 50.3481 10.2821 50.3481C10.5997 50.3481 10.9926 50.3146 11.4606 50.2478C11.9287 50.1642 12.3967 49.9887 12.8648 49.7212V43.8287C12.8648 43.7116 12.8481 43.5779 12.8147 43.4275C12.7812 43.277 12.7227 43.1349 12.6391 43.0012C12.5723 42.8675 12.4887 42.7588 12.3884 42.6752C12.2881 42.5749 12.1711 42.5248 12.0373 42.5248H11.912V42.274ZM21.0197 50.7493H21.1451V51H17.6096V50.7493H17.735C17.852 50.7493 17.9606 50.6991 18.0609 50.5988C18.1612 50.4985 18.2448 50.3815 18.3117 50.2478C18.3953 50.114 18.4538 49.9719 18.4872 49.8215C18.5206 49.6543 18.5373 49.5039 18.5373 49.3701V36.0054C18.5373 35.8884 18.5206 35.7546 18.4872 35.6042C18.4538 35.4537 18.3953 35.3116 18.3117 35.1779C18.2448 35.0442 18.1612 34.9355 18.0609 34.8519C17.9606 34.7516 17.852 34.7015 17.735 34.7015H17.6096V34.4507H21.9726C23.6442 34.4507 24.9314 34.7767 25.8341 35.4287C26.7535 36.0806 27.2132 37.0418 27.2132 38.3122C27.2132 38.9475 27.1045 39.5075 26.8872 39.9922C26.6866 40.4603 26.4108 40.8699 26.0597 41.2209C25.7087 41.5552 25.2908 41.831 24.806 42.0484C24.3379 42.249 23.8365 42.3994 23.3015 42.4997L25.1069 45.2579C25.5415 45.9266 25.9845 46.5869 26.4359 47.2388C26.8872 47.874 27.3302 48.5343 27.7648 49.2197C27.8818 49.3869 28.0072 49.5624 28.1409 49.7463C28.2914 49.9301 28.4418 50.0973 28.5923 50.2478C28.7594 50.3982 28.9266 50.5236 29.0938 50.6239C29.2776 50.7075 29.4615 50.7493 29.6454 50.7493V51H28.5672C27.8985 51 27.3469 50.8412 26.9123 50.5236C26.4944 50.1893 26.1433 49.8048 25.8591 49.3701C25.1069 48.2669 24.3547 47.1469 23.6024 46.0101C22.8669 44.8734 22.1314 43.7534 21.3959 42.6501C21.212 42.6334 21.0114 42.6167 20.7941 42.6C20.5935 42.5666 20.4012 42.5331 20.2173 42.4997V49.3701C20.2173 49.5039 20.2341 49.6543 20.2675 49.8215C20.3009 49.9719 20.3511 50.114 20.4179 50.2478C20.5015 50.3815 20.5851 50.4985 20.6687 50.5988C20.769 50.6991 20.886 50.7493 21.0197 50.7493ZM20.2173 35.3033V41.6722H20.3427C20.4765 41.689 20.6854 41.7057 20.9696 41.7224C21.2705 41.7224 21.6382 41.7224 22.0729 41.7224C22.4239 41.7224 22.7917 41.6722 23.1762 41.5719C23.5773 41.4549 23.9451 41.271 24.2794 41.0203C24.6305 40.7528 24.9147 40.4101 25.132 39.9922C25.366 39.5743 25.483 39.0478 25.483 38.4125C25.483 37.7773 25.3576 37.2591 25.1069 36.8579C24.8729 36.4567 24.5385 36.1391 24.1039 35.9051C23.686 35.671 23.1762 35.5122 22.5744 35.4287C21.9726 35.3451 21.3123 35.3033 20.5935 35.3033H20.2173ZM31.1509 50.7493H31.2762C31.41 50.7493 31.527 50.7075 31.6273 50.6239C31.7276 50.5236 31.8112 50.4066 31.878 50.2728C31.9616 50.1391 32.0201 49.997 32.0536 49.8466C32.1037 49.6961 32.1288 49.554 32.1288 49.4203V36.0054C32.1288 35.8884 32.1037 35.7546 32.0536 35.6042C32.0201 35.4537 31.9616 35.3116 31.878 35.1779C31.8112 35.0442 31.7276 34.9355 31.6273 34.8519C31.527 34.7516 31.41 34.7015 31.2762 34.7015H31.1509V34.4507H40.8046V36.7827H40.5539C40.5204 36.3982 40.37 36.0639 40.1025 35.7797C39.835 35.4788 39.4171 35.3284 38.8488 35.3284H33.8088V41.6722H37.9712C38.3556 41.6722 38.6733 41.5552 38.924 41.3212C39.1915 41.0872 39.3252 40.8113 39.3252 40.4937H39.5759V43.6281H39.3252C39.3252 43.3272 39.1998 43.0681 38.9491 42.8507C38.6983 42.6334 38.3724 42.5248 37.9712 42.5248H33.8088V50.1224H39.3001C39.6177 50.1224 39.8936 50.0472 40.1276 49.8967C40.3616 49.7463 40.5539 49.5707 40.7043 49.3701C40.8715 49.1528 40.9885 48.9272 41.0553 48.6931C41.1389 48.4424 41.1807 48.2334 41.1807 48.0663H41.4315V51H31.1509V50.7493ZM43.3209 50.7493H43.4462C43.58 50.7493 43.697 50.7075 43.7973 50.6239C43.8976 50.5236 43.9812 50.4066 44.048 50.2728C44.1316 50.1391 44.1901 49.997 44.2236 49.8466C44.2737 49.6961 44.2988 49.554 44.2988 49.4203V36.0054C44.2988 35.8884 44.2737 35.7546 44.2236 35.6042C44.1901 35.4537 44.1316 35.3116 44.048 35.1779C43.9812 35.0442 43.8976 34.9355 43.7973 34.8519C43.697 34.7516 43.58 34.7015 43.4462 34.7015H43.3209V34.4507H52.9746V36.7827H52.7239C52.6904 36.3982 52.54 36.0639 52.2725 35.7797C52.0051 35.4788 51.5871 35.3284 51.0188 35.3284H45.9788V41.6722H50.1412C50.5257 41.6722 50.8433 41.5552 51.094 41.3212C51.3615 41.0872 51.4952 40.8113 51.4952 40.4937H51.7459V43.6281H51.4952C51.4952 43.3272 51.3698 43.0681 51.1191 42.8507C50.8683 42.6334 50.5424 42.5248 50.1412 42.5248H45.9788V50.1224H51.4701C51.7877 50.1224 52.0636 50.0472 52.2976 49.8967C52.5316 49.7463 52.7239 49.5707 52.8743 49.3701C53.0415 49.1528 53.1585 48.9272 53.2254 48.6931C53.3089 48.4424 53.3507 48.2334 53.3507 48.0663H53.6015V51H43.3209V50.7493ZM58.1237 50.7493H58.2491V51H55.4658V50.7493H55.5912C55.7082 50.7493 55.8169 50.6991 55.9172 50.5988C56.0342 50.4985 56.1261 50.3815 56.193 50.2478C56.2598 50.114 56.31 49.9719 56.3434 49.8215C56.3936 49.6543 56.4186 49.5039 56.4186 49.3701V36.0054C56.4186 35.8884 56.4019 35.7546 56.3685 35.6042C56.3518 35.4537 56.31 35.3116 56.2431 35.1779C56.1763 35.0442 56.0843 34.9355 55.9673 34.8519C55.8503 34.7516 55.7082 34.7015 55.541 34.7015H55.4157V34.4507H57.9482L67.0503 48.7934V36.0054C67.0503 35.8884 67.0252 35.7546 66.9751 35.6042C66.9416 35.4537 66.8831 35.3116 66.7995 35.1779C66.7327 35.0442 66.6491 34.9355 66.5488 34.8519C66.4485 34.7516 66.3315 34.7015 66.1978 34.7015H66.0724V34.4507H68.8807V34.7015H68.7554C68.6216 34.7015 68.5046 34.7516 68.4043 34.8519C68.304 34.9355 68.2121 35.0442 68.1285 35.1779C68.0616 35.3116 68.0115 35.4537 67.978 35.6042C67.9446 35.7546 67.9279 35.8884 67.9279 36.0054V51H66.3733L57.2963 36.6072V49.3701C57.2963 49.5039 57.313 49.6543 57.3464 49.8215C57.3798 49.9719 57.43 50.114 57.4969 50.2478C57.5804 50.3815 57.6724 50.4985 57.7727 50.5988C57.873 50.6991 57.99 50.7493 58.1237 50.7493ZM110.148 50.7493H110.273V51H106.712V50.7493H106.838C106.971 50.7493 107.088 50.6991 107.189 50.5988C107.289 50.4985 107.373 50.3815 107.439 50.2478C107.523 50.114 107.582 49.9719 107.615 49.8215C107.648 49.6543 107.665 49.5039 107.665 49.3701V35.3785H104.756C104.489 35.3785 104.255 35.437 104.054 35.554C103.854 35.671 103.687 35.8215 103.553 36.0054C103.419 36.1725 103.319 36.3648 103.252 36.5821C103.185 36.7827 103.152 36.9833 103.152 37.1839H102.901V34.4507H114.159V37.1839H113.909C113.909 36.9833 113.875 36.7827 113.808 36.5821C113.742 36.3648 113.641 36.1725 113.508 36.0054C113.374 35.8215 113.207 35.671 113.006 35.554C112.805 35.437 112.571 35.3785 112.304 35.3785H109.345V49.3701C109.345 49.5039 109.362 49.6543 109.395 49.8215C109.429 49.9719 109.479 50.114 109.546 50.2478C109.629 50.3815 109.713 50.4985 109.796 50.5988C109.897 50.6991 110.014 50.7493 110.148 50.7493ZM122.734 34.2C124.038 34.2 125.208 34.434 126.245 34.9021C127.281 35.3534 128.159 35.9719 128.877 36.7576C129.613 37.5266 130.173 38.4293 130.557 39.4657C130.959 40.4854 131.159 41.5552 131.159 42.6752C131.159 43.929 130.925 45.0824 130.457 46.1355C130.006 47.1887 129.379 48.0913 128.577 48.8436C127.774 49.5958 126.838 50.1893 125.768 50.6239C124.715 51.0418 123.587 51.2507 122.383 51.2507C121.096 51.2507 119.934 51.0167 118.898 50.5487C117.878 50.0806 117.009 49.4621 116.29 48.6931C115.588 47.9242 115.045 47.0382 114.66 46.0352C114.276 45.0322 114.083 43.9875 114.083 42.9009C114.083 41.831 114.276 40.7779 114.66 39.7415C115.045 38.6884 115.605 37.7522 116.34 36.9331C117.092 36.114 118.003 35.4537 119.073 34.9522C120.143 34.4507 121.363 34.2 122.734 34.2ZM122.709 50.3731C123.829 50.323 124.807 50.0722 125.643 49.6209C126.495 49.1528 127.206 48.5678 127.774 47.8657C128.343 47.1469 128.76 46.3612 129.028 45.5087C129.312 44.6561 129.454 43.8119 129.454 42.9761C129.454 42.0567 129.287 41.129 128.953 40.1928C128.618 39.2567 128.142 38.4125 127.523 37.6603C126.905 36.8913 126.161 36.2728 125.292 35.8048C124.439 35.32 123.478 35.0776 122.408 35.0776C121.372 35.0776 120.444 35.3116 119.625 35.7797C118.806 36.231 118.104 36.8161 117.519 37.5349C116.95 38.2537 116.516 39.0561 116.215 39.9421C115.914 40.8281 115.763 41.6973 115.763 42.5499C115.763 43.4693 115.939 44.397 116.29 45.3331C116.641 46.2525 117.126 47.0884 117.744 47.8406C118.363 48.5928 119.09 49.203 119.926 49.671C120.778 50.1391 121.706 50.3731 122.709 50.3731ZM149.886 34.7015C149.551 34.7015 149.267 34.8436 149.033 35.1278C148.799 35.4119 148.64 35.7212 148.557 36.0555L143.993 51.1003L140.082 38.7636L136.17 51.1254L131.581 36.0806C131.498 35.763 131.347 35.4537 131.13 35.1528C130.929 34.8519 130.695 34.7015 130.428 34.7015V34.4507H133.988V34.7015C133.771 34.7015 133.587 34.7934 133.437 34.9773C133.303 35.1445 133.236 35.3618 133.236 35.6293C133.236 35.7128 133.253 35.8215 133.286 35.9552L136.546 46.5869L140.533 34.3003L144.369 46.5618L147.679 35.9552C147.679 35.9218 147.687 35.8549 147.704 35.7546C147.738 35.6376 147.754 35.5457 147.754 35.4788C147.754 35.2448 147.687 35.0609 147.554 34.9272C147.42 34.7767 147.286 34.7015 147.153 34.7015V34.4507H149.886V34.7015ZM154.015 50.7493H154.14V51H151.357V50.7493H151.482C151.599 50.7493 151.708 50.6991 151.808 50.5988C151.925 50.4985 152.017 50.3815 152.084 50.2478C152.151 50.114 152.201 49.9719 152.234 49.8215C152.284 49.6543 152.31 49.5039 152.31 49.3701V36.0054C152.31 35.8884 152.293 35.7546 152.259 35.6042C152.243 35.4537 152.201 35.3116 152.134 35.1779C152.067 35.0442 151.975 34.9355 151.858 34.8519C151.741 34.7516 151.599 34.7015 151.432 34.7015H151.307V34.4507H153.839L162.941 48.7934V36.0054C162.941 35.8884 162.916 35.7546 162.866 35.6042C162.832 35.4537 162.774 35.3116 162.69 35.1779C162.624 35.0442 162.54 34.9355 162.44 34.8519C162.339 34.7516 162.222 34.7015 162.089 34.7015H161.963V34.4507H164.772V34.7015H164.646C164.512 34.7015 164.395 34.7516 164.295 34.8519C164.195 34.9355 164.103 35.0442 164.019 35.1779C163.952 35.3116 163.902 35.4537 163.869 35.6042C163.835 35.7546 163.819 35.8884 163.819 36.0054V51H162.264L153.187 36.6072V49.3701C153.187 49.5039 153.204 49.6543 153.237 49.8215C153.271 49.9719 153.321 50.114 153.388 50.2478C153.471 50.3815 153.563 50.4985 153.664 50.5988C153.764 50.6991 153.881 50.7493 154.015 50.7493Z" fill="#1B1B1B"/>
</svg>
