<svg width="1920" height="686" viewBox="0 0 1920 686" fill="none" xmlns="http://www.w3.org/2000/svg">
<path d="M96.392 310.176L97.3941 311.907L98.392 311.329V310.176H96.392ZM83.432 316.512L84.1748 318.369L84.1931 318.362L84.2113 318.354L83.432 316.512ZM67.88 321.984L68.4295 323.907L68.4512 323.901L68.4728 323.894L67.88 321.984ZM51.464 325.728L51.1242 323.757L51.0844 323.764L51.0449 323.772L51.464 325.728ZM-5.272 321.408L-5.92216 323.299L-5.90887 323.304L-5.89554 323.308L-5.272 321.408ZM-36.664 302.4L-38.0782 303.814L-38.0703 303.822L-38.0622 303.83L-36.664 302.4ZM-56.824 269.856L-58.71 270.522L-58.7056 270.534L-58.7012 270.546L-56.824 269.856ZM-55.672 175.104L-57.5158 174.329L-57.5206 174.34L-57.5252 174.352L-55.672 175.104ZM-33.784 142.848L-32.434 144.324L-32.4325 144.322L-33.784 142.848ZM-2.67999 124.704L-2.07621 126.611L-2.06654 126.608L-2.05689 126.604L-2.67999 124.704ZM65 121.536L64.6078 123.497L64.6325 123.502L64.6573 123.506L65 121.536ZM88.04 128.736H90.04V127.5L88.9344 126.947L88.04 128.736ZM87.752 139.392L89.75 139.483L87.752 139.392ZM86.888 152.64L88.8811 152.806V152.806L86.888 152.64ZM85.448 166.464L87.4312 166.723L87.4326 166.712L85.448 166.464ZM83.72 178.272V180.272H85.4142L85.6928 178.601L83.72 178.272ZM76.232 178.272L74.3509 178.951L74.8278 180.272H76.232V178.272ZM61.256 136.8L63.1371 136.121L62.8795 135.407L62.2137 135.044L61.256 136.8ZM50.6 134.496L50.7534 132.502L50.6 134.496ZM8.552 139.392L9.29478 141.249L9.31244 141.242L9.32995 141.234L8.552 139.392ZM-14.2 155.808L-15.7075 154.494L-15.7101 154.497L-14.2 155.808ZM-29.464 183.744L-27.5732 184.396L-27.5699 184.386L-29.464 183.744ZM-29.752 260.064L-31.6494 260.696L-31.6444 260.711L-31.6392 260.726L-29.752 260.064ZM-14.2 288.288L-15.7395 289.565L-15.7226 289.585L-15.7052 289.605L-14.2 288.288ZM9.12801 306.144L8.2651 307.948L8.2726 307.952L8.28013 307.955L9.12801 306.144ZM49.448 311.328L49.036 309.371L49.448 311.328ZM59.528 308.736L60.1246 310.645L60.1779 310.628L60.2303 310.609L59.528 308.736ZM67.016 305.28L66.0583 303.524L66.0222 303.544L65.987 303.565L67.016 305.28ZM71.336 302.4L72.7502 303.814L73.336 303.228V302.4H71.336ZM71.336 244.224H73.336V242.372L71.4894 242.23L71.336 244.224ZM56.936 241.632L56.3537 243.545L56.3648 243.549L56.376 243.552L56.936 241.632ZM43.688 237.312H41.688V238.734L43.031 239.201L43.688 237.312ZM43.688 228.96V226.96H41.688V228.96H43.688ZM114.248 228.96H116.248V226.96H114.248V228.96ZM114.248 237.312L115.395 238.95L116.248 238.353V237.312H114.248ZM107.336 241.056L106.548 239.218L106.548 239.218L107.336 241.056ZM96.392 244.224L95.9841 242.266L94.392 242.598V244.224H96.392ZM95.3899 308.445C91.8307 310.506 87.5886 312.582 82.6527 314.67L84.2113 318.354C89.2594 316.218 93.6573 314.07 97.3941 311.907L95.3899 308.445ZM82.6892 314.655C77.9442 316.553 72.8108 318.36 67.2872 320.074L68.4728 323.894C74.0852 322.152 79.3198 320.311 84.1748 318.369L82.6892 314.655ZM67.3306 320.061C62.0243 321.577 56.6223 322.809 51.1242 323.757L51.8038 327.699C57.4418 326.727 62.9838 325.463 68.4295 323.907L67.3306 320.061ZM51.0449 323.772C45.7872 324.899 40.8405 325.456 36.2 325.456V329.456C41.1595 329.456 46.3888 328.861 51.8831 327.684L51.0449 323.772ZM36.2 325.456C21.0132 325.456 7.40461 323.463 -4.64845 319.508L-5.89554 323.308C6.6274 327.417 20.6668 329.456 36.2 329.456V325.456ZM-4.62183 319.517C-16.6509 315.382 -26.8535 309.195 -35.2658 300.97L-38.0622 303.83C-29.1945 312.501 -18.4691 318.986 -5.92216 323.299L-4.62183 319.517ZM-35.2498 300.986C-43.6582 292.577 -50.233 281.987 -54.9468 269.166L-58.7012 270.546C-53.815 283.837 -46.9498 294.943 -38.0782 303.814L-35.2498 300.986ZM-54.938 269.19C-59.4516 256.402 -61.736 241.086 -61.736 223.2H-65.736C-65.736 241.41 -63.4124 257.198 -58.71 270.522L-54.938 269.19ZM-61.736 223.2C-61.736 204.565 -59.0725 188.803 -53.8188 175.856L-57.5252 174.352C-63.0235 187.901 -65.736 204.203 -65.736 223.2H-61.736ZM-53.8282 175.879C-48.3528 162.851 -41.2106 152.353 -32.434 144.324L-35.134 141.372C-44.4054 149.855 -51.8552 160.861 -57.5158 174.329L-53.8282 175.879ZM-32.4325 144.322C-23.4237 136.064 -13.3088 130.168 -2.07621 126.611L-3.28378 122.797C-15.0912 126.536 -25.7123 132.736 -35.1354 141.374L-32.4325 144.322ZM-2.05689 126.604C9.45785 122.829 21.1517 120.944 33.032 120.944V116.944C20.7203 116.944 8.60616 118.899 -3.30309 122.804L-2.05689 126.604ZM33.032 120.944C45.6243 120.944 56.1395 121.803 64.6078 123.497L65.3922 119.575C56.5805 117.812 45.7837 116.944 33.032 116.944V120.944ZM64.6573 123.506C73.3395 125.016 80.8261 127.365 87.1456 130.525L88.9344 126.947C82.198 123.579 74.3245 121.128 65.3427 119.566L64.6573 123.506ZM86.04 128.736C86.04 131.575 85.9453 135.095 85.7541 139.301L89.75 139.483C89.9427 135.241 90.04 131.657 90.04 128.736H86.04ZM85.7541 139.301C85.5633 143.498 85.277 147.889 84.8949 152.474L88.8811 152.806C89.267 148.175 89.5567 143.734 89.75 139.483L85.7541 139.301ZM84.8949 152.474C84.5132 157.054 84.0361 161.635 83.4635 166.216L87.4326 166.712C88.0119 162.077 88.4948 157.442 88.8811 152.806L84.8949 152.474ZM83.4648 166.205C82.8911 170.604 82.3185 174.516 81.7472 177.943L85.6928 178.601C86.2735 175.116 86.8529 171.156 87.4312 166.723L83.4648 166.205ZM83.72 176.272H76.232V180.272H83.72V176.272ZM78.1131 177.593L63.1371 136.121L59.3749 137.479L74.3509 178.951L78.1131 177.593ZM62.2137 135.044C59.7053 133.676 55.7875 132.889 50.7534 132.502L50.4466 136.49C55.3965 136.871 58.5827 137.62 60.2983 138.556L62.2137 135.044ZM50.7534 132.502C45.7125 132.114 40.7653 131.92 35.912 131.92V135.92C40.6587 135.92 45.5035 136.11 50.4466 136.49L50.7534 132.502ZM35.912 131.92C26.0512 131.92 16.6661 133.795 7.77406 137.549L9.32995 141.234C17.7179 137.693 26.5728 135.92 35.912 135.92V131.92ZM7.80923 137.535C-1.14484 141.117 -8.98566 146.783 -15.7075 154.494L-12.6925 157.122C-6.35834 149.857 0.968842 144.579 9.29478 141.249L7.80923 137.535ZM-15.7101 154.497C-22.2516 162.029 -27.454 171.585 -31.3581 183.102L-27.5699 184.386C-23.794 173.247 -18.8204 164.179 -12.6899 157.119L-15.7101 154.497ZM-31.3547 183.092C-35.2845 194.488 -37.224 207.871 -37.224 223.2H-33.224C-33.224 208.193 -31.3235 195.272 -27.5733 184.396L-31.3547 183.092ZM-37.224 223.2C-37.224 237.009 -35.3764 249.515 -31.6494 260.696L-27.8546 259.432C-31.4236 248.725 -33.224 236.655 -33.224 223.2H-37.224ZM-31.6392 260.726C-27.7311 271.864 -22.4378 281.487 -15.7395 289.565L-12.6605 287.011C-19.0182 279.345 -24.0929 270.152 -27.8648 259.402L-31.6392 260.726ZM-15.7052 289.605C-8.81409 297.48 -0.822212 303.602 8.2651 307.948L9.99092 304.34C1.41423 300.238 -6.1459 294.456 -12.6948 286.971L-15.7052 289.605ZM8.28013 307.955C17.5804 312.309 27.5672 314.48 38.216 314.48V310.48C28.1288 310.48 18.7237 308.427 9.97588 304.333L8.28013 307.955ZM38.216 314.48C42.1903 314.48 46.0725 314.082 49.86 313.285L49.036 309.371C45.5275 310.11 41.9217 310.48 38.216 310.48V314.48ZM49.86 313.285C53.5608 312.506 56.9833 311.627 60.1246 310.645L58.9315 306.827C55.9288 307.765 52.6312 308.614 49.036 309.371L49.86 313.285ZM60.2303 310.609C63.3686 309.432 65.9854 308.231 68.045 306.995L65.987 303.565C64.2067 304.633 61.8315 305.736 58.8258 306.863L60.2303 310.609ZM67.9737 307.036C70.1006 305.876 71.7632 304.801 72.7502 303.814L69.9218 300.986C69.3728 301.535 68.1554 302.38 66.0583 303.524L67.9737 307.036ZM73.336 302.4V244.224H69.336V302.4H73.336ZM71.4894 242.23C66.6292 241.856 61.9658 241.016 57.496 239.712L56.376 243.552C61.1222 244.936 66.0588 245.824 71.1826 246.218L71.4894 242.23ZM57.5183 239.719C53.1277 238.382 48.7366 236.951 44.345 235.423L43.031 239.201C47.4714 240.745 51.9123 242.194 56.3537 243.545L57.5183 239.719ZM45.688 237.312V228.96H41.688V237.312H45.688ZM43.688 230.96H114.248V226.96H43.688V230.96ZM112.248 228.96V237.312H116.248V228.96H112.248ZM113.101 235.674C111.317 236.922 109.14 238.107 106.548 239.218L108.124 242.894C110.908 241.701 113.339 240.39 115.395 238.95L113.101 235.674ZM106.548 239.218C104.033 240.295 100.53 241.319 95.9841 242.266L96.7999 246.182C101.47 245.209 105.263 244.121 108.124 242.894L106.548 239.218ZM94.392 244.224V310.176H98.392V244.224H94.392ZM178.897 308.736H176.897V310.348L178.472 310.69L178.897 308.736ZM191.569 311.904L191.02 313.827L191.063 313.839L191.106 313.85L191.569 311.904ZM203.377 315.648H205.377V314.294L204.12 313.791L203.377 315.648ZM203.377 324V326H205.377V324H203.377ZM127.633 324H125.633V326H127.633V324ZM127.633 315.648L126.806 313.827L125.633 314.36V315.648H127.633ZM139.729 311.328L139.244 309.388L139.729 311.328ZM151.249 308.736L151.641 310.697L153.249 310.376V308.736H151.249ZM151.249 137.952H153.249V136.3L151.627 135.988L151.249 137.952ZM138.001 134.784L137.341 136.672L137.383 136.687L137.427 136.7L138.001 134.784ZM127.633 130.752H125.633V132.06L126.832 132.584L127.633 130.752ZM127.633 122.4V120.4H125.633V122.4H127.633ZM178.033 121.248L177.867 119.255L177.864 119.255L178.033 121.248ZM231.025 123.264L230.519 125.199L230.53 125.202L231.025 123.264ZM252.337 133.344L253.562 131.763L252.337 133.344ZM266.161 150.912L264.344 151.747L264.353 151.767L264.363 151.787L266.161 150.912ZM260.113 211.392L258.561 210.131L258.553 210.141L258.545 210.151L260.113 211.392ZM230.161 231.264L229.555 229.358L227.086 230.144L228.471 232.333L230.161 231.264ZM284.305 308.448L282.723 309.671L282.983 310.008L283.359 310.21L284.305 308.448ZM299.857 316.8H301.857V315.604L300.804 315.038L299.857 316.8ZM299.857 324V326H301.857V324H299.857ZM265.009 324L263.823 325.61L264.352 326H265.009V324ZM254.065 315.936L252.504 317.185L252.668 317.39L252.879 317.546L254.065 315.936ZM239.377 296.352L237.721 297.473L237.728 297.484L237.736 297.496L239.377 296.352ZM226.993 276.768L225.257 277.76L225.263 277.771L225.269 277.782L226.993 276.768ZM216.049 256.608L214.241 257.462L214.255 257.493L214.271 257.523L216.049 256.608ZM205.969 234.72L207.793 233.899L207.262 232.72H205.969V234.72ZM178.897 234.72V232.72H176.897V234.72H178.897ZM186.961 135.36L186.836 133.364L186.828 133.364L186.961 135.36ZM178.897 136.512L178.448 134.563L176.897 134.921V136.512H178.897ZM178.897 222.624H176.897V224.624H178.897V222.624ZM231.025 209.952L229.562 208.589L229.554 208.598L229.545 208.607L231.025 209.952ZM230.449 145.152L231.712 143.601L230.449 145.152ZM178.472 310.69C182.85 311.642 187.032 312.688 191.02 313.827L192.119 309.981C188.042 308.816 183.777 307.75 179.322 306.782L178.472 310.69ZM191.106 313.85C195.043 314.787 198.886 316.005 202.634 317.505L204.12 313.791C200.189 312.219 196.16 310.941 192.033 309.958L191.106 313.85ZM201.377 315.648V324H205.377V315.648H201.377ZM203.377 322H127.633V326H203.377V322ZM129.633 324V315.648H125.633V324H129.633ZM128.461 317.469C132.593 315.591 136.51 314.194 140.214 313.268L139.244 309.388C135.269 310.382 131.122 311.865 126.806 313.827L128.461 317.469ZM140.214 313.268C144.024 312.316 147.833 311.459 151.641 310.697L150.857 306.775C146.986 307.549 143.115 308.42 139.244 309.388L140.214 313.268ZM153.249 308.736V137.952H149.249V308.736H153.249ZM151.627 135.988C146.685 135.038 142.337 133.997 138.576 132.868L137.427 136.7C141.346 137.875 145.83 138.946 150.872 139.916L151.627 135.988ZM138.662 132.896C134.86 131.566 131.452 130.24 128.435 128.92L126.832 132.584C129.958 133.952 133.463 135.314 137.341 136.672L138.662 132.896ZM129.633 130.752V122.4H125.633V130.752H129.633ZM127.633 124.4H152.977V120.4H127.633V124.4ZM152.977 124.4C160.723 124.4 169.132 124.013 178.203 123.241L177.864 119.255C168.886 120.019 160.592 120.4 152.977 120.4V124.4ZM178.199 123.241C187.364 122.477 196.236 122.096 204.817 122.096V118.096C196.118 118.096 187.135 118.483 177.867 119.255L178.199 123.241ZM204.817 122.096C214.076 122.096 222.64 123.135 230.519 125.199L231.532 121.329C223.283 119.169 214.375 118.096 204.817 118.096V122.096ZM230.53 125.202C238.556 127.255 245.404 130.505 251.113 134.925L253.562 131.763C247.367 126.967 240.007 123.497 231.521 121.326L230.53 125.202ZM251.113 134.925C256.8 139.328 261.209 144.924 264.344 151.747L267.979 150.077C264.585 142.692 259.779 136.576 253.562 131.763L251.113 134.925ZM264.363 151.787C267.656 158.556 269.345 166.785 269.345 176.544H273.345C273.345 166.335 271.579 157.476 267.96 150.037L264.363 151.787ZM269.345 176.544C269.345 190.187 265.709 201.333 258.561 210.131L261.665 212.653C269.493 203.019 273.345 190.933 273.345 176.544H269.345ZM258.545 210.151C251.528 219.014 241.899 225.431 229.555 229.358L230.768 233.17C243.768 229.033 254.107 222.202 261.681 212.633L258.545 210.151ZM228.471 232.333C236.744 245.416 245.402 258.403 254.444 271.293L257.719 268.995C248.713 256.157 240.09 243.224 231.852 230.195L228.471 232.333ZM254.444 271.293C263.486 284.182 272.912 296.975 282.723 309.671L285.888 307.225C276.114 294.577 266.725 281.834 257.719 268.995L254.444 271.293ZM283.359 310.21L298.911 318.562L300.804 315.038L285.251 306.686L283.359 310.21ZM297.857 316.8V324H301.857V316.8H297.857ZM299.857 322H265.009V326H299.857V322ZM266.196 322.39L255.252 314.326L252.879 317.546L263.823 325.61L266.196 322.39ZM255.627 314.687C250.275 307.997 245.406 301.504 241.018 295.208L237.736 297.496C242.18 303.872 247.103 310.435 252.504 317.185L255.627 314.687ZM241.034 295.231C236.64 288.737 232.535 282.244 228.717 275.754L225.269 277.782C229.132 284.348 233.282 290.911 237.721 297.473L241.034 295.231ZM228.73 275.776C224.904 269.081 221.27 262.387 217.828 255.693L214.271 257.523C217.74 264.269 221.403 271.015 225.257 277.76L228.73 275.776ZM217.858 255.754C214.599 248.854 211.245 241.569 207.793 233.899L204.145 235.541C207.606 243.231 210.971 250.538 214.241 257.462L217.858 255.754ZM205.969 232.72H178.897V236.72H205.969V232.72ZM176.897 234.72V308.736H180.897V234.72H176.897ZM198.481 133.072C193.85 133.072 189.965 133.168 186.836 133.364L187.086 137.356C190.102 137.168 193.897 137.072 198.481 137.072V133.072ZM186.828 133.364C183.855 133.563 181.06 133.96 178.448 134.563L179.347 138.461C181.727 137.912 184.308 137.541 187.094 137.356L186.828 133.364ZM176.897 136.512V222.624H180.897V136.512H176.897ZM178.897 224.624H199.633V220.624H178.897V224.624ZM199.633 224.624C213.345 224.624 224.384 220.23 232.505 211.297L229.545 208.607C222.306 216.57 212.417 220.624 199.633 220.624V224.624ZM232.488 211.315C240.771 202.427 244.833 190.768 244.833 176.544H240.833C240.833 189.968 237.023 200.581 229.562 208.589L232.488 211.315ZM244.833 176.544C244.833 161.949 240.579 150.818 231.712 143.601L229.187 146.703C236.832 152.926 240.833 162.722 240.833 176.544H244.833ZM231.712 143.601C223.024 136.529 211.89 133.072 198.481 133.072V137.072C211.185 137.072 221.363 140.335 229.187 146.703L231.712 143.601ZM447.52 122.4L449.52 122.45L449.571 120.4H447.52V122.4ZM446.368 145.728L444.374 145.582L444.372 145.605L444.371 145.628L446.368 145.728ZM444.352 169.056V171.056H446.123L446.338 169.298L444.352 169.056ZM436.864 169.056L434.99 169.755L435.475 171.056H436.864V169.056ZM425.056 137.376L426.93 136.677L426.445 135.376H425.056V137.376ZM362.272 137.376V135.376H360.272V137.376H362.272ZM362.272 213.696H360.272V215.696H362.272V213.696ZM409.216 213.696V215.696H410.423L410.986 214.628L409.216 213.696ZM420.448 192.384V190.384H419.242L418.679 191.452L420.448 192.384ZM427.648 192.384L429.645 192.263L429.531 190.384H427.648V192.384ZM427.648 250.56V252.56H429.535L429.645 250.676L427.648 250.56ZM420.448 250.56L418.669 251.473L419.227 252.56H420.448V250.56ZM409.216 228.672L410.996 227.759L410.438 226.672H409.216V228.672ZM362.272 228.672V226.672H360.272V228.672H362.272ZM362.272 309.024H360.272V311.024H362.272V309.024ZM428.512 309.024V311.024H429.856L430.364 309.78L428.512 309.024ZM442.624 274.464V272.464H441.281L440.773 273.708L442.624 274.464ZM449.824 274.464L451.797 274.135L451.518 272.464H449.824V274.464ZM452.704 298.944L450.709 299.083L452.704 298.944ZM452.992 324V326H454.903L454.99 324.091L452.992 324ZM311.008 324H309.008V326H311.008V324ZM311.008 315.648L310.177 313.829L309.008 314.363V315.648H311.008ZM334.624 308.736L334.96 310.708L336.624 310.424V308.736H334.624ZM334.624 137.952H336.624V136.312L335.016 135.991L334.624 137.952ZM322.816 135.072L322.184 136.969L322.225 136.983L322.267 136.995L322.816 135.072ZM311.008 130.752H309.008V132.106L310.265 132.609L311.008 130.752ZM311.008 122.4V120.4H309.008V122.4H311.008ZM445.521 122.35C445.33 129.997 444.947 137.741 444.374 145.582L448.363 145.874C448.941 137.971 449.327 130.163 449.52 122.45L445.521 122.35ZM444.371 145.628C443.989 153.259 443.321 160.988 442.367 168.814L446.338 169.298C447.303 161.38 447.979 153.557 448.366 145.828L444.371 145.628ZM444.352 167.056H436.864V171.056H444.352V167.056ZM438.738 168.357L426.93 136.677L423.182 138.075L434.99 169.755L438.738 168.357ZM425.056 135.376H362.272V139.376H425.056V135.376ZM360.272 137.376V213.696H364.272V137.376H360.272ZM362.272 215.696H409.216V211.696H362.272V215.696ZM410.986 214.628L422.218 193.316L418.679 191.452L407.447 212.764L410.986 214.628ZM420.448 194.384H427.648V190.384H420.448V194.384ZM425.652 192.505C426.799 211.431 426.799 230.744 425.652 250.444L429.645 250.676C430.801 230.824 430.802 211.353 429.645 192.263L425.652 192.505ZM427.648 248.56H420.448V252.56H427.648V248.56ZM422.228 249.647L410.996 227.759L407.437 229.585L418.669 251.473L422.228 249.647ZM409.216 226.672H362.272V230.672H409.216V226.672ZM360.272 228.672V309.024H364.272V228.672H360.272ZM362.272 311.024H428.512V307.024H362.272V311.024ZM430.364 309.78L444.476 275.22L440.773 273.708L426.661 308.268L430.364 309.78ZM442.624 276.464H449.824V272.464H442.624V276.464ZM447.852 274.793C449.185 282.793 450.137 290.89 450.709 299.083L454.699 298.805C454.119 290.486 453.152 282.263 451.797 274.135L447.852 274.793ZM450.709 299.083C451.28 307.261 451.375 315.536 450.994 323.909L454.99 324.091C455.378 315.568 455.281 307.139 454.699 298.805L450.709 299.083ZM452.992 322H311.008V326H452.992V322ZM313.008 324V315.648H309.008V324H313.008ZM311.84 317.467C318.369 314.482 326.068 312.221 334.96 310.708L334.289 306.764C325.132 308.323 317.087 310.67 310.177 313.829L311.84 317.467ZM336.624 308.736V137.952H332.624V308.736H336.624ZM335.016 135.991C331.233 135.234 327.349 134.287 323.366 133.149L322.267 136.995C326.347 138.161 330.336 139.134 334.232 139.913L335.016 135.991ZM323.449 133.175C319.453 131.843 315.554 130.416 311.751 128.895L310.265 132.609C314.143 134.16 318.116 135.613 322.184 136.969L323.449 133.175ZM313.008 130.752V122.4H309.008V130.752H313.008ZM311.008 124.4H447.52V120.4H311.008V124.4ZM615.145 122.4L617.145 122.45L617.196 120.4H615.145V122.4ZM613.993 145.728L611.999 145.582L611.997 145.605L611.996 145.628L613.993 145.728ZM611.977 169.056V171.056H613.748L613.963 169.298L611.977 169.056ZM604.489 169.056L602.615 169.755L603.1 171.056H604.489V169.056ZM592.681 137.376L594.555 136.677L594.07 135.376H592.681V137.376ZM529.897 137.376V135.376H527.897V137.376H529.897ZM529.897 213.696H527.897V215.696H529.897V213.696ZM576.841 213.696V215.696H578.048L578.611 214.628L576.841 213.696ZM588.073 192.384V190.384H586.867L586.304 191.452L588.073 192.384ZM595.273 192.384L597.27 192.263L597.156 190.384H595.273V192.384ZM595.273 250.56V252.56H597.16L597.27 250.676L595.273 250.56ZM588.073 250.56L586.294 251.473L586.852 252.56H588.073V250.56ZM576.841 228.672L578.621 227.759L578.063 226.672H576.841V228.672ZM529.897 228.672V226.672H527.897V228.672H529.897ZM529.897 309.024H527.897V311.024H529.897V309.024ZM596.137 309.024V311.024H597.481L597.989 309.78L596.137 309.024ZM610.249 274.464V272.464H608.906L608.398 273.708L610.249 274.464ZM617.449 274.464L619.422 274.135L619.143 272.464H617.449V274.464ZM620.329 298.944L618.334 299.083L620.329 298.944ZM620.617 324V326H622.528L622.615 324.091L620.617 324ZM478.633 324H476.633V326H478.633V324ZM478.633 315.648L477.802 313.829L476.633 314.363V315.648H478.633ZM502.249 308.736L502.585 310.708L504.249 310.424V308.736H502.249ZM502.249 137.952H504.249V136.312L502.641 135.991L502.249 137.952ZM490.441 135.072L489.809 136.969L489.85 136.983L489.892 136.995L490.441 135.072ZM478.633 130.752H476.633V132.106L477.891 132.609L478.633 130.752ZM478.633 122.4V120.4H476.633V122.4H478.633ZM613.146 122.35C612.955 129.997 612.572 137.741 611.999 145.582L615.988 145.874C616.566 137.971 616.952 130.163 617.145 122.45L613.146 122.35ZM611.996 145.628C611.614 153.259 610.946 160.988 609.992 168.814L613.963 169.298C614.928 161.38 615.604 153.557 615.991 145.828L611.996 145.628ZM611.977 167.056H604.489V171.056H611.977V167.056ZM606.363 168.357L594.555 136.677L590.807 138.075L602.615 169.755L606.363 168.357ZM592.681 135.376H529.897V139.376H592.681V135.376ZM527.897 137.376V213.696H531.897V137.376H527.897ZM529.897 215.696H576.841V211.696H529.897V215.696ZM578.611 214.628L589.843 193.316L586.304 191.452L575.072 212.764L578.611 214.628ZM588.073 194.384H595.273V190.384H588.073V194.384ZM593.277 192.505C594.424 211.431 594.424 230.744 593.277 250.444L597.27 250.676C598.426 230.824 598.427 211.353 597.27 192.263L593.277 192.505ZM595.273 248.56H588.073V252.56H595.273V248.56ZM589.853 249.647L578.621 227.759L575.062 229.585L586.294 251.473L589.853 249.647ZM576.841 226.672H529.897V230.672H576.841V226.672ZM527.897 228.672V309.024H531.897V228.672H527.897ZM529.897 311.024H596.137V307.024H529.897V311.024ZM597.989 309.78L612.101 275.22L608.398 273.708L594.286 308.268L597.989 309.78ZM610.249 276.464H617.449V272.464H610.249V276.464ZM615.477 274.793C616.81 282.793 617.762 290.89 618.334 299.083L622.324 298.805C621.744 290.486 620.777 282.263 619.422 274.135L615.477 274.793ZM618.334 299.083C618.905 307.261 619 315.536 618.619 323.909L622.615 324.091C623.003 315.568 622.906 307.139 622.324 298.805L618.334 299.083ZM620.617 322H478.633V326H620.617V322ZM480.633 324V315.648H476.633V324H480.633ZM479.465 317.467C485.995 314.482 493.693 312.221 502.585 310.708L501.914 306.764C492.757 308.323 484.712 310.67 477.802 313.829L479.465 317.467ZM504.249 308.736V137.952H500.249V308.736H504.249ZM502.641 135.991C498.858 135.234 494.974 134.287 490.991 133.149L489.892 136.995C493.972 138.161 497.961 139.134 501.857 139.913L502.641 135.991ZM491.074 133.175C487.078 131.843 483.179 130.416 479.376 128.895L477.891 132.609C481.768 134.16 485.741 135.613 489.809 136.969L491.074 133.175ZM480.633 130.752V122.4H476.633V130.752H480.633ZM478.633 124.4H615.145V120.4H478.633V124.4ZM778.162 122.4V120.4H776.162V122.4H778.162ZM840.37 122.4H842.37V120.4H840.37V122.4ZM840.37 130.752L841.48 132.416L842.37 131.822V130.752H840.37ZM816.754 142.272L816.18 140.356L814.754 140.784V142.272H816.754ZM816.754 327.456V329.456H818.754V327.456H816.754ZM800.338 327.456L798.668 328.556L799.261 329.456H800.338V327.456ZM695.794 168.768L694.005 169.662L694.059 169.769L694.124 169.868L695.794 168.768ZM684.562 146.304L686.351 145.41L685.798 144.304H684.562V146.304ZM683.698 146.304V144.304H681.454L681.711 146.533L683.698 146.304ZM686.29 168.768H688.29V168.653L688.277 168.539L686.29 168.768ZM686.29 305.568H684.29V307.102L685.772 307.5L686.29 305.568ZM708.466 315.648H710.466V314.578L709.576 313.984L708.466 315.648ZM708.466 324V326H710.466V324H708.466ZM646.258 324H644.258V326H646.258V324ZM646.258 315.648L645.215 313.941L644.258 314.526V315.648H646.258ZM657.202 310.176L657.945 312.033L657.968 312.024L657.99 312.014L657.202 310.176ZM669.874 305.568L670.457 307.481L671.874 307.05V305.568H669.874ZM669.874 140.544H671.874V139.19L670.617 138.687L669.874 140.544ZM658.354 135.648L657.498 137.455L657.516 137.464L657.534 137.472L658.354 135.648ZM647.986 130.464H645.986V131.668L647.05 132.232L647.986 130.464ZM647.986 122.4V120.4H645.986V122.4H647.986ZM696.658 122.4L698.325 121.295L697.732 120.4H696.658V122.4ZM787.378 259.2L789.142 258.257L789.097 258.173L789.045 258.095L787.378 259.2ZM800.626 283.968L798.863 284.911L799.428 285.968H800.626V283.968ZM801.778 283.968V285.968H803.898L803.775 283.852L801.778 283.968ZM800.338 259.2H798.338V259.258L798.342 259.316L800.338 259.2ZM800.338 142.272H802.338V140.953L801.126 140.434L800.338 142.272ZM788.53 136.8L787.599 138.57L787.617 138.58L787.636 138.589L788.53 136.8ZM778.162 130.752H776.162V131.84L777.076 132.431L778.162 130.752ZM778.162 124.4H840.37V120.4H778.162V124.4ZM838.37 122.4V130.752H842.37V122.4H838.37ZM839.261 129.088C831.328 134.376 823.635 138.12 816.18 140.356L817.329 144.188C825.233 141.816 833.284 137.88 841.48 132.416L839.261 129.088ZM814.754 142.272V327.456H818.754V142.272H814.754ZM816.754 325.456H800.338V329.456H816.754V325.456ZM802.008 326.356L697.464 167.668L694.124 169.868L798.668 328.556L802.008 326.356ZM697.583 167.874L686.351 145.41L682.773 147.198L694.005 169.662L697.583 167.874ZM684.562 144.304H683.698V148.304H684.562V144.304ZM681.711 146.533L684.303 168.997L688.277 168.539L685.685 146.075L681.711 146.533ZM684.29 168.768V305.568H688.29V168.768H684.29ZM685.772 307.5C693.43 309.554 700.622 312.823 707.357 317.312L709.576 313.984C702.486 309.257 694.895 305.806 686.809 303.636L685.772 307.5ZM706.466 315.648V324H710.466V315.648H706.466ZM708.466 322H646.258V326H708.466V322ZM648.258 324V315.648H644.258V324H648.258ZM647.301 317.355C650.659 315.302 654.207 313.528 657.945 312.033L656.459 308.319C652.518 309.896 648.769 311.77 645.215 313.941L647.301 317.355ZM657.99 312.014C661.952 310.316 666.107 308.805 670.457 307.481L669.292 303.655C664.81 305.019 660.517 306.579 656.414 308.338L657.99 312.014ZM671.874 305.568V140.544H667.874V305.568H671.874ZM670.617 138.687C666.804 137.162 662.99 135.541 659.175 133.824L657.534 137.472C661.399 139.211 665.265 140.854 669.131 142.401L670.617 138.687ZM659.21 133.841C655.587 132.124 652.158 130.409 648.922 128.696L647.05 132.232C650.343 133.975 653.826 135.716 657.498 137.455L659.21 133.841ZM649.986 130.464V122.4H645.986V130.464H649.986ZM647.986 124.4H696.658V120.4H647.986V124.4ZM694.991 123.505L785.711 260.305L789.045 258.095L698.325 121.295L694.991 123.505ZM785.615 260.143L798.863 284.911L802.39 283.025L789.142 258.257L785.615 260.143ZM800.626 285.968H801.778V281.968H800.626V285.968ZM803.775 283.852L802.335 259.084L798.342 259.316L799.782 284.084L803.775 283.852ZM802.338 259.2V142.272H798.338V259.2H802.338ZM801.126 140.434C797.129 138.721 793.229 136.913 789.425 135.011L787.636 138.589C791.512 140.527 795.483 142.367 799.55 144.11L801.126 140.434ZM789.462 135.03C785.864 133.136 782.46 131.15 779.249 129.073L777.076 132.431C780.393 134.578 783.901 136.624 787.599 138.57L789.462 135.03ZM780.162 130.752V122.4H776.162V130.752H780.162Z" fill="#5E9B61"/>
<path d="M1277.6 578V580H1279.6V578H1277.6ZM1196.67 578H1194.67V580H1196.67V578ZM1196.67 569.648L1195.99 567.768L1194.67 568.247V569.648H1196.67ZM1209.34 565.616L1208.84 563.681L1208.83 563.684L1208.82 563.686L1209.34 565.616ZM1223.46 562.736L1223.76 564.713L1225.46 564.452V562.736H1223.46ZM1223.46 391.376H1225.46V389.376H1223.46V391.376ZM1179.39 391.376V389.376H1178L1177.52 390.681L1179.39 391.376ZM1164.13 432.56V434.56H1165.52L1166 433.255L1164.13 432.56ZM1156.93 432.56L1154.95 432.857L1155.21 434.56H1156.93V432.56ZM1155.49 419.6L1153.49 419.753L1153.49 419.759L1155.49 419.6ZM1154.34 404.624L1152.34 404.698L1152.34 404.738L1152.34 404.777L1154.34 404.624ZM1153.76 389.648L1151.76 389.725L1151.76 389.728L1153.76 389.648ZM1153.47 376.4V374.4H1151.47V376.4H1153.47ZM1320.8 376.4H1322.8V374.4H1320.8V376.4ZM1319.65 404.336L1317.65 404.188L1317.65 404.224L1317.65 404.259L1319.65 404.336ZM1318.78 419.312L1316.79 419.159L1316.79 419.195L1316.79 419.232L1318.78 419.312ZM1317.63 432.56V434.56H1319.37L1319.61 432.843L1317.63 432.56ZM1310.14 432.56L1308.26 433.243L1308.74 434.56H1310.14V432.56ZM1295.17 391.376L1297.05 390.693L1296.57 389.376H1295.17V391.376ZM1251.1 391.376V389.376H1249.1V391.376H1251.1ZM1251.1 562.736H1249.1V564.388L1250.73 564.7L1251.1 562.736ZM1264.93 565.616L1264.48 567.566L1264.49 567.568L1264.5 567.57L1264.93 565.616ZM1277.6 569.648H1279.6V568.329L1278.39 567.81L1277.6 569.648ZM1277.6 576H1196.67V580H1277.6V576ZM1198.67 578V569.648H1194.67V578H1198.67ZM1197.36 571.528C1201.53 570.01 1205.7 568.683 1209.87 567.546L1208.82 563.686C1204.54 564.853 1200.26 566.214 1195.99 567.768L1197.36 571.528ZM1209.85 567.551C1214.19 566.418 1218.83 565.471 1223.76 564.713L1223.15 560.759C1218.1 561.537 1213.33 562.51 1208.84 563.681L1209.85 567.551ZM1225.46 562.736V391.376H1221.46V562.736H1225.46ZM1223.46 389.376H1179.39V393.376H1223.46V389.376ZM1177.52 390.681L1162.25 431.865L1166 433.255L1181.27 392.071L1177.52 390.681ZM1164.13 430.56H1156.93V434.56H1164.13V430.56ZM1158.91 432.263C1158.34 428.478 1157.86 424.205 1157.48 419.441L1153.49 419.759C1153.88 424.595 1154.37 428.962 1154.95 432.857L1158.91 432.263ZM1157.48 419.447C1157.1 414.455 1156.71 409.463 1156.33 404.471L1152.34 404.777C1152.73 409.769 1153.11 414.761 1153.49 419.753L1157.48 419.447ZM1156.33 404.55C1156.14 399.364 1155.95 394.37 1155.76 389.568L1151.76 389.728C1151.95 394.526 1152.15 399.516 1152.34 404.698L1156.33 404.55ZM1155.76 389.571C1155.57 384.598 1155.47 380.208 1155.47 376.4H1151.47C1151.47 380.272 1151.57 384.714 1151.76 389.725L1155.76 389.571ZM1153.47 378.4H1320.8V374.4H1153.47V378.4ZM1318.8 376.4C1318.8 380.208 1318.7 384.5 1318.51 389.28L1322.51 389.44C1322.7 384.62 1322.8 380.272 1322.8 376.4H1318.8ZM1318.51 389.28C1318.32 394.056 1318.04 399.025 1317.65 404.188L1321.64 404.484C1322.03 399.279 1322.32 394.264 1322.51 389.44L1318.51 389.28ZM1317.65 404.259C1317.46 409.226 1317.17 414.192 1316.79 419.159L1320.78 419.465C1321.16 414.448 1321.45 409.43 1321.65 404.413L1317.65 404.259ZM1316.79 419.232C1316.6 423.976 1316.22 428.323 1315.65 432.277L1319.61 432.843C1320.2 428.733 1320.59 424.248 1320.78 419.392L1316.79 419.232ZM1317.63 430.56H1310.14V434.56H1317.63V430.56ZM1312.02 431.877L1297.05 390.693L1293.29 392.059L1308.26 433.243L1312.02 431.877ZM1295.17 389.376H1251.1V393.376H1295.17V389.376ZM1249.1 391.376V562.736H1253.1V391.376H1249.1ZM1250.73 564.7C1255.7 565.656 1260.29 566.612 1264.48 567.566L1265.37 563.666C1261.12 562.7 1256.49 561.736 1251.48 560.772L1250.73 564.7ZM1264.5 567.57C1268.8 568.504 1272.9 569.81 1276.81 571.486L1278.39 567.81C1274.24 566.03 1269.89 564.648 1265.35 563.662L1264.5 567.57ZM1275.6 569.648V578H1279.6V569.648H1275.6ZM1340.59 435.728L1338.69 435.104L1338.69 435.113L1338.69 435.122L1340.59 435.728ZM1358.45 402.608L1356.92 401.325L1356.91 401.328L1358.45 402.608ZM1387.25 380.72L1386.42 378.901L1387.25 380.72ZM1464.43 380.72L1465.27 378.901L1464.43 380.72ZM1492.95 402.608L1491.4 403.873L1491.41 403.89L1491.42 403.907L1492.95 402.608ZM1510.8 435.728L1508.89 436.326L1508.9 436.343L1508.9 436.36L1510.8 435.728ZM1510.8 518.96L1508.9 518.336L1508.9 518.345L1508.9 518.354L1510.8 518.96ZM1492.95 552.08L1491.41 550.797L1491.41 550.8L1492.95 552.08ZM1464.43 573.68L1463.6 571.861L1464.43 573.68ZM1387.25 573.68L1388.08 571.861L1387.25 573.68ZM1358.45 552.08L1356.9 553.345L1356.91 553.362L1356.93 553.379L1358.45 552.08ZM1340.59 518.96L1338.68 519.558L1338.69 519.575L1338.7 519.592L1340.59 518.96ZM1369.11 512.048L1367.16 512.493L1367.16 512.513L1367.16 512.533L1369.11 512.048ZM1380.91 540.272L1382.6 539.19L1380.91 540.272ZM1400.5 559.568L1399.46 561.276L1399.47 561.285L1399.49 561.294L1400.5 559.568ZM1454.07 559.568L1455.13 561.259L1455.15 561.249L1455.16 561.239L1454.07 559.568ZM1471.92 540.272L1470.2 539.249L1470.19 539.264L1470.18 539.28L1471.92 540.272ZM1482.58 512.048L1480.63 511.603L1480.62 511.616L1480.62 511.629L1482.58 512.048ZM1482.58 442.64L1480.63 443.085L1480.63 443.092L1482.58 442.64ZM1451.47 395.12L1450.43 396.828L1450.45 396.837L1450.46 396.846L1451.47 395.12ZM1396.47 395.12L1397.53 396.811L1397.54 396.804L1396.47 395.12ZM1378.61 414.128L1380.35 415.12L1378.61 414.128ZM1368.53 442.64L1370.49 443.025L1370.49 443.019L1368.53 442.64ZM1336.55 477.2C1336.55 462.404 1338.54 448.787 1342.5 436.334L1338.69 435.122C1334.59 448.013 1332.55 462.044 1332.55 477.2H1336.55ZM1342.49 436.352C1346.65 423.697 1352.49 412.887 1359.99 403.888L1356.91 401.328C1349.05 410.761 1342.99 422.031 1338.69 435.104L1342.49 436.352ZM1359.98 403.891C1367.66 394.715 1377.02 387.601 1388.08 382.539L1386.42 378.901C1374.82 384.207 1364.98 391.684 1356.92 401.325L1359.98 403.891ZM1388.08 382.539C1399.11 377.491 1411.68 374.944 1425.84 374.944V370.944C1411.2 370.944 1398.04 373.581 1386.42 378.901L1388.08 382.539ZM1425.84 374.944C1440 374.944 1452.57 377.491 1463.6 382.539L1465.27 378.901C1453.64 373.581 1440.48 370.944 1425.84 370.944V374.944ZM1463.6 382.539C1474.66 387.599 1483.91 394.708 1491.4 403.873L1494.49 401.343C1486.62 391.692 1476.86 384.209 1465.27 378.901L1463.6 382.539ZM1491.42 403.907C1499.1 412.896 1504.93 423.691 1508.89 436.326L1512.71 435.13C1508.61 422.037 1502.53 410.752 1494.47 401.309L1491.42 403.907ZM1508.9 436.36C1513.05 448.805 1515.14 462.413 1515.14 477.2H1519.14C1519.14 462.035 1517 447.995 1512.7 435.096L1508.9 436.36ZM1515.14 477.2C1515.14 491.986 1513.05 505.694 1508.9 518.336L1512.7 519.584C1517 506.498 1519.14 492.366 1519.14 477.2H1515.14ZM1508.9 518.354C1504.94 530.799 1499.1 541.604 1491.41 550.797L1494.48 553.363C1502.53 543.74 1508.6 532.465 1512.71 519.566L1508.9 518.354ZM1491.41 550.8C1483.93 559.777 1474.67 566.797 1463.6 571.861L1465.27 575.499C1476.85 570.195 1486.6 562.815 1494.48 553.36L1491.41 550.8ZM1463.6 571.861C1452.57 576.909 1440 579.456 1425.84 579.456V583.456C1440.48 583.456 1453.64 580.819 1465.27 575.499L1463.6 571.861ZM1425.84 579.456C1411.68 579.456 1399.11 576.909 1388.08 571.861L1386.42 575.499C1398.04 580.819 1411.2 583.456 1425.84 583.456V579.456ZM1388.08 571.861C1377.01 566.795 1367.65 559.77 1359.97 550.781L1356.93 553.379C1364.99 562.822 1374.83 570.197 1386.42 575.499L1388.08 571.861ZM1360 550.815C1352.49 541.613 1346.65 530.792 1342.49 518.328L1338.7 519.592C1342.99 532.472 1349.05 543.731 1356.9 553.345L1360 550.815ZM1342.5 518.362C1338.54 505.712 1336.55 491.995 1336.55 477.2H1332.55C1332.55 492.357 1334.59 506.48 1338.68 519.558L1342.5 518.362ZM1363.36 477.2C1363.36 489.624 1364.62 501.39 1367.16 512.493L1371.06 511.603C1368.6 500.818 1367.36 489.352 1367.36 477.2H1363.36ZM1367.16 512.533C1369.9 523.464 1373.91 533.08 1379.23 541.354L1382.6 539.19C1377.55 531.336 1373.69 522.136 1371.05 511.563L1367.16 512.533ZM1379.23 541.354C1384.57 549.662 1391.32 556.312 1399.46 561.276L1401.54 557.86C1393.94 553.224 1387.62 547.01 1382.6 539.19L1379.23 541.354ZM1399.49 561.294C1407.72 566.111 1417.39 568.48 1428.43 568.48V564.48C1417.97 564.48 1409.02 562.241 1401.51 557.842L1399.49 561.294ZM1428.43 568.48C1438.55 568.48 1447.48 566.095 1455.13 561.259L1453 557.877C1446.06 562.257 1437.9 564.48 1428.43 564.48V568.48ZM1455.16 561.239C1462.74 556.255 1468.9 549.584 1473.66 541.264L1470.18 539.28C1465.72 547.088 1459.98 553.281 1452.97 557.897L1455.16 561.239ZM1473.64 541.295C1478.57 533.015 1482.19 523.396 1484.53 512.467L1480.62 511.629C1478.36 522.204 1474.87 531.401 1470.2 539.249L1473.64 541.295ZM1484.53 512.493C1487.06 501.39 1488.32 489.624 1488.32 477.2H1484.32C1484.32 489.352 1483.09 500.818 1480.63 511.603L1484.53 512.493ZM1488.32 477.2C1488.32 464.777 1487.06 453.104 1484.53 442.188L1480.63 443.092C1483.09 453.68 1484.32 465.047 1484.32 477.2H1488.32ZM1484.53 442.195C1481.99 431.063 1478.07 421.336 1472.74 413.046L1469.37 415.21C1474.41 423.048 1478.17 432.329 1480.63 443.085L1484.53 442.195ZM1472.74 413.046C1467.39 404.732 1460.64 398.169 1452.48 393.394L1450.46 396.846C1458.05 401.287 1464.35 407.396 1469.37 415.21L1472.74 413.046ZM1452.51 393.412C1444.28 388.391 1434.59 385.92 1423.54 385.92V389.92C1433.98 389.92 1442.92 392.249 1450.43 396.828L1452.51 393.412ZM1423.54 385.92C1412.67 385.92 1403.25 388.394 1395.39 393.436L1397.54 396.804C1404.65 392.246 1413.29 389.92 1423.54 389.92V385.92ZM1395.4 393.429C1387.8 398.225 1381.63 404.81 1376.87 413.136L1380.35 415.12C1384.8 407.318 1390.53 401.231 1397.53 396.811L1395.4 393.429ZM1376.87 413.136C1372.14 421.424 1368.71 431.143 1366.57 442.261L1370.49 443.019C1372.57 432.249 1375.87 422.96 1380.35 415.12L1376.87 413.136ZM1366.57 442.255C1364.43 453.148 1363.36 464.798 1363.36 477.2H1367.36C1367.36 465.026 1368.41 453.636 1370.49 443.025L1366.57 442.255ZM1752.44 391.952L1754.38 392.401L1754.87 390.28L1752.72 389.972L1752.44 391.952ZM1740.34 389.36L1739.71 391.257L1739.75 391.271L1739.79 391.283L1740.34 389.36ZM1727.67 384.752H1725.67V386.117L1726.94 386.614L1727.67 384.752ZM1727.67 376.4V374.4H1725.67V376.4H1727.67ZM1792.18 376.4H1794.18V374.4H1792.18V376.4ZM1792.18 384.752L1792.99 386.582L1794.18 386.056V384.752H1792.18ZM1771.44 391.952L1770.93 390.018L1769.8 390.316L1769.51 391.451L1771.44 391.952ZM1723.35 578L1723.73 579.964L1724.97 579.724L1725.28 578.501L1723.35 578ZM1705.49 581.456L1703.57 582.024L1704.09 583.765L1705.87 583.42L1705.49 581.456ZM1659.12 424.784L1661.04 424.216L1659.13 417.748L1657.21 424.215L1659.12 424.784ZM1613.62 578L1614.01 579.962L1615.19 579.729L1615.54 578.569L1613.62 578ZM1596.05 581.456L1594.12 581.976L1594.61 583.779L1596.44 583.418L1596.05 581.456ZM1545.08 391.952L1547.01 391.432L1546.7 390.297L1545.56 390.012L1545.08 391.952ZM1533.84 388.784L1533.24 390.691L1533.84 388.784ZM1523.19 384.752H1521.19V386.052L1522.38 386.58L1523.19 384.752ZM1523.19 376.4V374.4H1521.19V376.4H1523.19ZM1598.07 376.4H1600.07V374.4H1598.07V376.4ZM1598.07 384.752L1598.76 386.629L1600.07 386.147V384.752H1598.07ZM1586.84 388.784L1587.41 390.7L1587.45 390.687L1587.5 390.672L1586.84 388.784ZM1574.45 391.952L1574.03 389.998L1572.02 390.434L1572.51 392.429L1574.45 391.952ZM1602.96 508.016L1604.94 507.682L1604.92 507.61L1604.91 507.539L1602.96 508.016ZM1609.3 545.456L1607.33 545.79L1607.61 547.456H1609.3V545.456ZM1609.88 545.456V547.456H1611.41L1611.81 545.969L1609.88 545.456ZM1619.96 507.44L1618.04 506.871L1618.03 506.899L1618.02 506.927L1619.96 507.44ZM1658.84 376.4V374.4H1657.34L1656.92 375.831L1658.84 376.4ZM1668.63 376.4L1670.53 375.793L1670.09 374.4H1668.63V376.4ZM1710.39 507.44L1712.34 507.005L1712.32 506.918L1712.29 506.833L1710.39 507.44ZM1718.74 544.88L1716.79 545.315L1717.14 546.88H1718.74V544.88ZM1719.32 544.88V546.88H1721L1721.29 545.223L1719.32 544.88ZM1725.94 506.864L1723.99 506.415L1723.98 506.467L1723.97 506.521L1725.94 506.864ZM1752.72 389.972C1748.78 389.409 1744.84 388.565 1740.89 387.437L1739.79 391.283C1743.91 392.459 1748.03 393.343 1752.15 393.932L1752.72 389.972ZM1740.97 387.463C1736.98 386.131 1732.78 384.606 1728.4 382.89L1726.94 386.614C1731.38 388.354 1735.64 389.901 1739.71 391.257L1740.97 387.463ZM1729.67 384.752V376.4H1725.67V384.752H1729.67ZM1727.67 378.4H1792.18V374.4H1727.67V378.4ZM1790.18 376.4V384.752H1794.18V376.4H1790.18ZM1791.37 382.922C1784.95 385.757 1778.13 388.123 1770.93 390.018L1771.95 393.886C1779.34 391.941 1786.36 389.507 1792.99 386.582L1791.37 382.922ZM1769.51 391.451L1721.41 577.499L1725.28 578.501L1773.38 392.453L1769.51 391.451ZM1722.97 576.036L1705.11 579.492L1705.87 583.42L1723.73 579.964L1722.97 576.036ZM1707.41 580.888L1661.04 424.216L1657.21 425.352L1703.57 582.024L1707.41 580.888ZM1657.21 424.215L1611.7 577.431L1615.54 578.569L1661.04 425.353L1657.21 424.215ZM1613.23 576.038L1595.67 579.494L1596.44 583.418L1614.01 579.962L1613.23 576.038ZM1597.98 580.936L1547.01 391.432L1543.14 392.472L1594.12 581.976L1597.98 580.936ZM1545.56 390.012C1541.76 389.061 1538.05 388.016 1534.45 386.877L1533.24 390.691C1536.93 391.856 1540.71 392.923 1544.59 393.892L1545.56 390.012ZM1534.45 386.877C1530.87 385.747 1527.39 384.43 1524 382.924L1522.38 386.58C1525.9 388.146 1529.52 389.517 1533.24 390.691L1534.45 386.877ZM1525.19 384.752V376.4H1521.19V384.752H1525.19ZM1523.19 378.4H1598.07V374.4H1523.19V378.4ZM1596.07 376.4V384.752H1600.07V376.4H1596.07ZM1597.38 382.875C1593.74 384.215 1590.01 385.556 1586.17 386.896L1587.5 390.672C1591.35 389.324 1595.1 387.977 1598.76 386.629L1597.38 382.875ZM1586.26 386.868C1582.48 388.004 1578.4 389.047 1574.03 389.998L1574.88 393.906C1579.34 392.937 1583.52 391.868 1587.41 390.7L1586.26 386.868ZM1572.51 392.429L1601.02 508.493L1604.91 507.539L1576.39 391.475L1572.51 392.429ZM1600.99 508.35L1607.33 545.79L1611.27 545.122L1604.94 507.682L1600.99 508.35ZM1609.3 547.456H1609.88V543.456H1609.3V547.456ZM1611.81 545.969L1621.89 507.953L1618.02 506.927L1607.94 544.943L1611.81 545.969ZM1621.87 508.009L1660.75 376.969L1656.92 375.831L1618.04 506.871L1621.87 508.009ZM1658.84 378.4H1668.63V374.4H1658.84V378.4ZM1666.72 377.007L1708.48 508.047L1712.29 506.833L1670.53 375.793L1666.72 377.007ZM1708.44 507.875L1716.79 545.315L1720.69 544.445L1712.34 507.005L1708.44 507.875ZM1718.74 546.88H1719.32V542.88H1718.74V546.88ZM1721.29 545.223L1727.91 507.207L1723.97 506.521L1717.35 544.537L1721.29 545.223ZM1727.89 507.313L1754.38 392.401L1750.49 391.503L1723.99 506.415L1727.89 507.313ZM1932.32 376.4V374.4H1930.32V376.4H1932.32ZM1994.53 376.4H1996.53V374.4H1994.53V376.4ZM1994.53 384.752L1995.64 386.416L1996.53 385.822V384.752H1994.53ZM1970.91 396.272L1970.34 394.356L1968.91 394.784V396.272H1970.91ZM1970.91 581.456V583.456H1972.91V581.456H1970.91ZM1954.49 581.456L1952.82 582.556L1953.42 583.456H1954.49V581.456ZM1849.95 422.768L1848.16 423.662L1848.21 423.769L1848.28 423.868L1849.95 422.768ZM1838.72 400.304L1840.51 399.41L1839.95 398.304H1838.72V400.304ZM1837.85 400.304V398.304H1835.61L1835.87 400.533L1837.85 400.304ZM1840.45 422.768H1842.45V422.653L1842.43 422.539L1840.45 422.768ZM1840.45 559.568H1838.45V561.102L1839.93 561.5L1840.45 559.568ZM1862.62 569.648H1864.62V568.578L1863.73 567.984L1862.62 569.648ZM1862.62 578V580H1864.62V578H1862.62ZM1800.41 578H1798.41V580H1800.41V578ZM1800.41 569.648L1799.37 567.941L1798.41 568.526V569.648H1800.41ZM1811.36 564.176L1812.1 566.033L1812.12 566.024L1812.15 566.014L1811.36 564.176ZM1824.03 559.568L1824.61 561.481L1826.03 561.05V559.568H1824.03ZM1824.03 394.544H1826.03V393.19L1824.77 392.687L1824.03 394.544ZM1812.51 389.648L1811.65 391.455L1811.67 391.464L1811.69 391.472L1812.51 389.648ZM1802.14 384.464H1800.14V385.668L1801.21 386.232L1802.14 384.464ZM1802.14 376.4V374.4H1800.14V376.4H1802.14ZM1850.81 376.4L1852.48 375.295L1851.89 374.4H1850.81V376.4ZM1941.53 513.2L1943.3 512.257L1943.25 512.173L1943.2 512.095L1941.53 513.2ZM1954.78 537.968L1953.02 538.911L1953.58 539.968H1954.78V537.968ZM1955.93 537.968V539.968H1958.05L1957.93 537.852L1955.93 537.968ZM1954.49 513.2H1952.49V513.258L1952.5 513.316L1954.49 513.2ZM1954.49 396.272H1956.49V394.953L1955.28 394.434L1954.49 396.272ZM1942.69 390.8L1941.76 392.57L1941.77 392.58L1941.79 392.589L1942.69 390.8ZM1932.32 384.752H1930.32V385.84L1931.23 386.431L1932.32 384.752ZM1932.32 378.4H1994.53V374.4H1932.32V378.4ZM1992.53 376.4V384.752H1996.53V376.4H1992.53ZM1993.42 383.088C1985.48 388.376 1977.79 392.12 1970.34 394.356L1971.49 398.188C1979.39 395.816 1987.44 391.88 1995.64 386.416L1993.42 383.088ZM1968.91 396.272V581.456H1972.91V396.272H1968.91ZM1970.91 579.456H1954.49V583.456H1970.91V579.456ZM1956.16 580.356L1851.62 421.668L1848.28 423.868L1952.82 582.556L1956.16 580.356ZM1851.74 421.874L1840.51 399.41L1836.93 401.198L1848.16 423.662L1851.74 421.874ZM1838.72 398.304H1837.85V402.304H1838.72V398.304ZM1835.87 400.533L1838.46 422.997L1842.43 422.539L1839.84 400.075L1835.87 400.533ZM1838.45 422.768V559.568H1842.45V422.768H1838.45ZM1839.93 561.5C1847.59 563.554 1854.78 566.823 1861.51 571.312L1863.73 567.984C1856.64 563.257 1849.05 559.806 1840.96 557.636L1839.93 561.5ZM1860.62 569.648V578H1864.62V569.648H1860.62ZM1862.62 576H1800.41V580H1862.62V576ZM1802.41 578V569.648H1798.41V578H1802.41ZM1801.46 571.355C1804.82 569.302 1808.36 567.528 1812.1 566.033L1810.62 562.319C1806.67 563.896 1802.93 565.77 1799.37 567.941L1801.46 571.355ZM1812.15 566.014C1816.11 564.316 1820.26 562.805 1824.61 561.481L1823.45 557.655C1818.97 559.019 1814.67 560.579 1810.57 562.338L1812.15 566.014ZM1826.03 559.568V394.544H1822.03V559.568H1826.03ZM1824.77 392.687C1820.96 391.162 1817.15 389.541 1813.33 387.824L1811.69 391.472C1815.56 393.211 1819.42 394.854 1823.29 396.401L1824.77 392.687ZM1813.37 387.841C1809.74 386.124 1806.31 384.409 1803.08 382.696L1801.21 386.232C1804.5 387.975 1807.98 389.716 1811.65 391.455L1813.37 387.841ZM1804.14 384.464V376.4H1800.14V384.464H1804.14ZM1802.14 378.4H1850.81V374.4H1802.14V378.4ZM1849.15 377.505L1939.87 514.305L1943.2 512.095L1852.48 375.295L1849.15 377.505ZM1939.77 514.143L1953.02 538.911L1956.55 537.025L1943.3 512.257L1939.77 514.143ZM1954.78 539.968H1955.93V535.968H1954.78V539.968ZM1957.93 537.852L1956.49 513.084L1952.5 513.316L1953.94 538.084L1957.93 537.852ZM1956.49 513.2V396.272H1952.49V513.2H1956.49ZM1955.28 394.434C1951.29 392.721 1947.39 390.913 1943.58 389.011L1941.79 392.589C1945.67 394.527 1949.64 396.367 1953.71 398.11L1955.28 394.434ZM1943.62 389.03C1940.02 387.136 1936.62 385.15 1933.41 383.073L1931.23 386.431C1934.55 388.578 1938.06 390.624 1941.76 392.57L1943.62 389.03ZM1934.32 384.752V376.4H1930.32V384.752H1934.32Z" fill="#5E9B61"/>
</svg>
