<svg width="23" height="27" viewBox="0 0 23 27" fill="none" xmlns="http://www.w3.org/2000/svg">
<path d="M15.763 11.294V11.918C15.763 13.166 15.3513 14.1887 14.528 14.986C13.7047 15.7747 12.63 16.169 11.304 16.169C9.9 16.169 8.73867 15.714 7.82 14.804C6.91 13.894 6.455 12.776 6.455 11.45C6.455 10.1327 6.91 9.019 7.82 8.109C8.73867 7.19033 9.874 6.731 11.226 6.731C12.0753 6.731 12.851 6.926 13.553 7.316C14.255 7.706 14.801 8.23033 15.191 8.889L13.904 9.63C13.6613 9.19667 13.3017 8.85 12.825 8.59C12.3483 8.32133 11.8153 8.187 11.226 8.187C10.2727 8.187 9.48833 8.499 8.873 9.123C8.25767 9.747 7.95 10.527 7.95 11.463C7.95 12.399 8.25767 13.1747 8.873 13.79C9.497 14.4053 10.3117 14.713 11.317 14.713C12.123 14.713 12.7773 14.5267 13.28 14.154C13.7913 13.7727 14.1163 13.2657 14.255 12.633H11.213V11.294H15.763Z" fill="#23A159"/>
<mask id="path-2-inside-1" fill="white">
<path fill-rule="evenodd" clip-rule="evenodd" d="M19.6856 18.9238C21.5133 16.9143 22.6274 14.2441 22.6274 11.3137C22.6274 5.06532 17.5621 0 11.3137 0C5.06532 0 0 5.06532 0 11.3137C0 14.244 1.11402 16.9141 2.94164 18.9236L2.93252 18.9327L9.89926 25.8995C10.6803 26.6805 11.9466 26.6805 12.7277 25.8994L19.2664 19.3608C19.298 19.3295 19.3295 19.298 19.3608 19.2664L19.6944 18.9327L19.6856 18.9238Z"/>
</mask>
<path d="M19.6856 18.9238L18.206 17.5781L16.9225 18.9892L18.2713 20.338L19.6856 18.9238ZM2.94164 18.9236L4.35586 20.3378L5.70463 18.989L4.42122 17.5779L2.94164 18.9236ZM2.93252 18.9327L1.51831 17.5185L0.104097 18.9327L1.51831 20.3469L2.93252 18.9327ZM9.89926 25.8995L8.48505 27.3137L9.89926 25.8995ZM12.7277 25.8994L14.1419 27.3137L14.1419 27.3137L12.7277 25.8994ZM19.2664 19.3608L17.8605 17.9382L17.8522 17.9466L19.2664 19.3608ZM19.3608 19.2664L17.9465 17.8521L17.9383 17.8605L19.3608 19.2664ZM19.6944 18.9327L21.1086 20.3469L22.5229 18.9327L21.1086 17.5185L19.6944 18.9327ZM20.6274 11.3137C20.6274 13.7273 19.712 15.9224 18.206 17.5781L21.1651 20.2696C23.3146 17.9063 24.6274 14.761 24.6274 11.3137H20.6274ZM11.3137 2C16.4575 2 20.6274 6.16989 20.6274 11.3137H24.6274C24.6274 3.96075 18.6667 -2 11.3137 -2V2ZM2 11.3137C2 6.16989 6.16989 2 11.3137 2V-2C3.96075 -2 -2 3.96075 -2 11.3137H2ZM4.42122 17.5779C2.91535 15.9222 2 13.7272 2 11.3137H-2C-2 14.7608 -0.687314 17.906 1.46206 20.2693L4.42122 17.5779ZM4.34674 20.3469L4.35586 20.3378L1.52743 17.5094L1.51831 17.5185L4.34674 20.3469ZM11.3135 24.4852L4.34674 17.5185L1.51831 20.3469L8.48505 27.3137L11.3135 24.4852ZM11.3135 24.4852L11.3135 24.4852L8.48505 27.3137C10.0471 28.8758 12.5798 28.8758 14.1419 27.3137L11.3135 24.4852ZM17.8522 17.9466L11.3135 24.4852L14.1419 27.3137L20.6806 20.775L17.8522 17.9466ZM17.9383 17.8605C17.9125 17.8866 17.8866 17.9125 17.8605 17.9383L20.6722 20.7833C20.7095 20.7465 20.7465 20.7095 20.7833 20.6722L17.9383 17.8605ZM18.2802 17.5185L17.9466 17.8522L20.775 20.6806L21.1086 20.3469L18.2802 17.5185ZM18.2713 20.338L18.2802 20.3469L21.1086 17.5185L21.0998 17.5096L18.2713 20.338Z" fill="#23A159" mask="url(#path-2-inside-1)"/>
</svg>
