<svg width="166" height="86" viewBox="0 0 166 86" fill="none" xmlns="http://www.w3.org/2000/svg">
<path d="M77.2119 34.8195H75.6683C75.2155 33.6258 74.7422 32.2262 74.2482 30.6209C73.7954 29.0156 73.4044 27.4926 73.0751 26.0519C74.5158 24.817 76.2446 23.8497 78.2615 23.1499C80.2785 22.409 82.4601 22.0386 84.8064 22.0386C86.8645 22.0386 88.6345 22.3267 90.1163 22.903C91.5982 23.4792 92.8125 24.2613 93.7592 25.2492C94.7471 26.2371 95.4674 27.3897 95.9202 28.7069C96.373 29.9829 96.5994 31.3207 96.5994 32.7202C96.5994 35.0253 96.0643 37.3921 94.9941 39.8207C93.9238 42.2493 92.5861 44.6161 90.9807 46.9212C89.4166 49.1852 87.7083 51.3256 85.856 53.3426C84.0037 55.3595 82.2955 57.1295 80.7313 58.6525L78.1381 61.0605V61.3075L81.5957 60.937H92.2156L95.241 54.0217H96.7846C96.8669 54.9273 96.9493 55.9152 97.0316 56.9854C97.1139 58.0557 97.1757 59.1465 97.2168 60.2578C97.2992 61.3281 97.3609 62.3777 97.4021 63.4068C97.4432 64.3947 97.4638 65.2591 97.4638 66H71.9637V64.0242C72.8693 63.0775 73.9601 61.9249 75.2361 60.5666C76.5533 59.2082 77.9117 57.7058 79.3112 56.0593C80.7107 54.4128 82.0896 52.6634 83.448 50.8111C84.8475 48.9588 86.0824 47.0859 87.1526 45.1924C88.2228 43.2578 89.0873 41.3437 89.7459 39.4502C90.4456 37.5568 90.7955 35.7456 90.7955 34.0168C90.7955 32.8231 90.6308 31.6911 90.3015 30.6209C90.0134 29.5507 89.5606 28.6245 88.9432 27.8424C88.3258 27.0192 87.5642 26.3812 86.6587 25.9284C85.7943 25.4756 84.7858 25.2492 83.6332 25.2492C82.7688 25.2492 82.0073 25.311 81.3487 25.4345C80.6901 25.5579 79.9698 25.7432 79.1877 25.9901L77.2119 34.8195Z" fill="#23A159"/>
<path d="M11.912 47.274H15.4976V47.5248H15.3723C15.2385 47.5248 15.1215 47.5749 15.0212 47.6752C14.9209 47.7588 14.8373 47.8675 14.7705 48.0012C14.7036 48.1349 14.6451 48.277 14.595 48.4275C14.5615 48.5779 14.5448 48.7116 14.5448 48.8287V55.5487C14.2439 55.6657 13.9012 55.766 13.5167 55.8496C13.1323 55.9331 12.7311 56 12.3132 56.0501C11.8953 56.117 11.469 56.1672 11.0344 56.2006C10.5997 56.234 10.1985 56.2507 9.83077 56.2507C8.32629 56.2507 7.01406 56 5.89406 55.4985C4.77406 54.997 3.84629 54.3451 3.11077 53.5427C2.37525 52.7236 1.82361 51.8042 1.45585 50.7845C1.1048 49.7648 0.929279 48.7367 0.929279 47.7003C0.929279 46.6639 1.1048 45.6358 1.45585 44.6161C1.82361 43.5964 2.37525 42.6854 3.11077 41.883C3.86301 41.0806 4.79913 40.437 5.91913 39.9522C7.05585 39.4507 8.40152 39.2 9.95615 39.2C10.5412 39.2 11.0845 39.2501 11.586 39.3504C12.0875 39.4507 12.5305 39.5427 12.915 39.6263C13.1323 39.6764 13.3161 39.7266 13.4666 39.7767C13.6338 39.8101 13.7758 39.8269 13.8929 39.8269H14.1185V42.4848H13.8678C13.7675 41.9666 13.5669 41.5487 13.266 41.231C12.9818 40.9134 12.6475 40.671 12.263 40.5039C11.8785 40.3367 11.469 40.2281 11.0344 40.1779C10.6164 40.111 10.2236 40.0776 9.85585 40.0776C8.60212 40.0776 7.51555 40.3033 6.59615 40.7546C5.67674 41.1893 4.9245 41.7576 4.33943 42.4597C3.75435 43.1618 3.31973 43.9558 3.03555 44.8418C2.75137 45.711 2.60928 46.5803 2.60928 47.4496C2.60928 48.4191 2.79316 49.3803 3.16092 50.3331C3.52868 51.2693 4.04689 52.1134 4.71555 52.8657C5.38421 53.6012 6.18659 54.203 7.12271 54.671C8.07555 55.1224 9.12868 55.3481 10.2821 55.3481C10.5997 55.3481 10.9926 55.3146 11.4606 55.2478C11.9287 55.1642 12.3967 54.9887 12.8648 54.7212V48.8287C12.8648 48.7116 12.8481 48.5779 12.8147 48.4275C12.7812 48.277 12.7227 48.1349 12.6391 48.0012C12.5723 47.8675 12.4887 47.7588 12.3884 47.6752C12.2881 47.5749 12.1711 47.5248 12.0373 47.5248H11.912V47.274ZM21.0197 55.7493H21.1451V56H17.6096V55.7493H17.735C17.852 55.7493 17.9606 55.6991 18.0609 55.5988C18.1612 55.4985 18.2448 55.3815 18.3117 55.2478C18.3953 55.114 18.4538 54.9719 18.4872 54.8215C18.5206 54.6543 18.5373 54.5039 18.5373 54.3701V41.0054C18.5373 40.8884 18.5206 40.7546 18.4872 40.6042C18.4538 40.4537 18.3953 40.3116 18.3117 40.1779C18.2448 40.0442 18.1612 39.9355 18.0609 39.8519C17.9606 39.7516 17.852 39.7015 17.735 39.7015H17.6096V39.4507H21.9726C23.6442 39.4507 24.9314 39.7767 25.8341 40.4287C26.7535 41.0806 27.2132 42.0418 27.2132 43.3122C27.2132 43.9475 27.1045 44.5075 26.8872 44.9922C26.6866 45.4603 26.4108 45.8699 26.0597 46.2209C25.7087 46.5552 25.2908 46.831 24.806 47.0484C24.3379 47.249 23.8365 47.3994 23.3015 47.4997L25.1069 50.2579C25.5415 50.9266 25.9845 51.5869 26.4359 52.2388C26.8872 52.874 27.3302 53.5343 27.7648 54.2197C27.8818 54.3869 28.0072 54.5624 28.1409 54.7463C28.2914 54.9301 28.4418 55.0973 28.5923 55.2478C28.7594 55.3982 28.9266 55.5236 29.0938 55.6239C29.2776 55.7075 29.4615 55.7493 29.6454 55.7493V56H28.5672C27.8985 56 27.3469 55.8412 26.9123 55.5236C26.4944 55.1893 26.1433 54.8048 25.8591 54.3701C25.1069 53.2669 24.3547 52.1469 23.6024 51.0101C22.8669 49.8734 22.1314 48.7534 21.3959 47.6501C21.212 47.6334 21.0114 47.6167 20.7941 47.6C20.5935 47.5666 20.4012 47.5331 20.2173 47.4997V54.3701C20.2173 54.5039 20.2341 54.6543 20.2675 54.8215C20.3009 54.9719 20.3511 55.114 20.4179 55.2478C20.5015 55.3815 20.5851 55.4985 20.6687 55.5988C20.769 55.6991 20.886 55.7493 21.0197 55.7493ZM20.2173 40.3033V46.6722H20.3427C20.4765 46.689 20.6854 46.7057 20.9696 46.7224C21.2705 46.7224 21.6382 46.7224 22.0729 46.7224C22.4239 46.7224 22.7917 46.6722 23.1762 46.5719C23.5773 46.4549 23.9451 46.271 24.2794 46.0203C24.6305 45.7528 24.9147 45.4101 25.132 44.9922C25.366 44.5743 25.483 44.0478 25.483 43.4125C25.483 42.7773 25.3576 42.2591 25.1069 41.8579C24.8729 41.4567 24.5385 41.1391 24.1039 40.9051C23.686 40.671 23.1762 40.5122 22.5744 40.4287C21.9726 40.3451 21.3123 40.3033 20.5935 40.3033H20.2173ZM31.1509 55.7493H31.2762C31.41 55.7493 31.527 55.7075 31.6273 55.6239C31.7276 55.5236 31.8112 55.4066 31.878 55.2728C31.9616 55.1391 32.0201 54.997 32.0536 54.8466C32.1037 54.6961 32.1288 54.554 32.1288 54.4203V41.0054C32.1288 40.8884 32.1037 40.7546 32.0536 40.6042C32.0201 40.4537 31.9616 40.3116 31.878 40.1779C31.8112 40.0442 31.7276 39.9355 31.6273 39.8519C31.527 39.7516 31.41 39.7015 31.2762 39.7015H31.1509V39.4507H40.8046V41.7827H40.5539C40.5204 41.3982 40.37 41.0639 40.1025 40.7797C39.835 40.4788 39.4171 40.3284 38.8488 40.3284H33.8088V46.6722H37.9712C38.3556 46.6722 38.6733 46.5552 38.924 46.3212C39.1915 46.0872 39.3252 45.8113 39.3252 45.4937H39.5759V48.6281H39.3252C39.3252 48.3272 39.1998 48.0681 38.9491 47.8507C38.6983 47.6334 38.3724 47.5248 37.9712 47.5248H33.8088V55.1224H39.3001C39.6177 55.1224 39.8936 55.0472 40.1276 54.8967C40.3616 54.7463 40.5539 54.5707 40.7043 54.3701C40.8715 54.1528 40.9885 53.9272 41.0553 53.6931C41.1389 53.4424 41.1807 53.2334 41.1807 53.0663H41.4315V56H31.1509V55.7493ZM43.3209 55.7493H43.4462C43.58 55.7493 43.697 55.7075 43.7973 55.6239C43.8976 55.5236 43.9812 55.4066 44.048 55.2728C44.1316 55.1391 44.1901 54.997 44.2236 54.8466C44.2737 54.6961 44.2988 54.554 44.2988 54.4203V41.0054C44.2988 40.8884 44.2737 40.7546 44.2236 40.6042C44.1901 40.4537 44.1316 40.3116 44.048 40.1779C43.9812 40.0442 43.8976 39.9355 43.7973 39.8519C43.697 39.7516 43.58 39.7015 43.4462 39.7015H43.3209V39.4507H52.9746V41.7827H52.7239C52.6904 41.3982 52.54 41.0639 52.2725 40.7797C52.0051 40.4788 51.5871 40.3284 51.0188 40.3284H45.9788V46.6722H50.1412C50.5257 46.6722 50.8433 46.5552 51.094 46.3212C51.3615 46.0872 51.4952 45.8113 51.4952 45.4937H51.7459V48.6281H51.4952C51.4952 48.3272 51.3698 48.0681 51.1191 47.8507C50.8683 47.6334 50.5424 47.5248 50.1412 47.5248H45.9788V55.1224H51.4701C51.7877 55.1224 52.0636 55.0472 52.2976 54.8967C52.5316 54.7463 52.7239 54.5707 52.8743 54.3701C53.0415 54.1528 53.1585 53.9272 53.2254 53.6931C53.3089 53.4424 53.3507 53.2334 53.3507 53.0663H53.6015V56H43.3209V55.7493ZM58.1237 55.7493H58.2491V56H55.4658V55.7493H55.5912C55.7082 55.7493 55.8169 55.6991 55.9172 55.5988C56.0342 55.4985 56.1261 55.3815 56.193 55.2478C56.2598 55.114 56.31 54.9719 56.3434 54.8215C56.3936 54.6543 56.4186 54.5039 56.4186 54.3701V41.0054C56.4186 40.8884 56.4019 40.7546 56.3685 40.6042C56.3518 40.4537 56.31 40.3116 56.2431 40.1779C56.1763 40.0442 56.0843 39.9355 55.9673 39.8519C55.8503 39.7516 55.7082 39.7015 55.541 39.7015H55.4157V39.4507H57.9482L67.0503 53.7934V41.0054C67.0503 40.8884 67.0252 40.7546 66.9751 40.6042C66.9416 40.4537 66.8831 40.3116 66.7995 40.1779C66.7327 40.0442 66.6491 39.9355 66.5488 39.8519C66.4485 39.7516 66.3315 39.7015 66.1978 39.7015H66.0724V39.4507H68.8807V39.7015H68.7554C68.6216 39.7015 68.5046 39.7516 68.4043 39.8519C68.304 39.9355 68.2121 40.0442 68.1285 40.1779C68.0616 40.3116 68.0115 40.4537 67.978 40.6042C67.9446 40.7546 67.9279 40.8884 67.9279 41.0054V56H66.3733L57.2963 41.6072V54.3701C57.2963 54.5039 57.313 54.6543 57.3464 54.8215C57.3798 54.9719 57.43 55.114 57.4969 55.2478C57.5804 55.3815 57.6724 55.4985 57.7727 55.5988C57.873 55.6991 57.99 55.7493 58.1237 55.7493ZM110.148 55.7493H110.273V56H106.712V55.7493H106.838C106.971 55.7493 107.088 55.6991 107.189 55.5988C107.289 55.4985 107.373 55.3815 107.439 55.2478C107.523 55.114 107.582 54.9719 107.615 54.8215C107.648 54.6543 107.665 54.5039 107.665 54.3701V40.3785H104.756C104.489 40.3785 104.255 40.437 104.054 40.554C103.854 40.671 103.687 40.8215 103.553 41.0054C103.419 41.1725 103.319 41.3648 103.252 41.5821C103.185 41.7827 103.152 41.9833 103.152 42.1839H102.901V39.4507H114.159V42.1839H113.909C113.909 41.9833 113.875 41.7827 113.808 41.5821C113.742 41.3648 113.641 41.1725 113.508 41.0054C113.374 40.8215 113.207 40.671 113.006 40.554C112.805 40.437 112.571 40.3785 112.304 40.3785H109.345V54.3701C109.345 54.5039 109.362 54.6543 109.395 54.8215C109.429 54.9719 109.479 55.114 109.546 55.2478C109.629 55.3815 109.713 55.4985 109.796 55.5988C109.897 55.6991 110.014 55.7493 110.148 55.7493ZM122.734 39.2C124.038 39.2 125.208 39.434 126.245 39.9021C127.281 40.3534 128.159 40.9719 128.877 41.7576C129.613 42.5266 130.173 43.4293 130.557 44.4657C130.959 45.4854 131.159 46.5552 131.159 47.6752C131.159 48.929 130.925 50.0824 130.457 51.1355C130.006 52.1887 129.379 53.0913 128.577 53.8436C127.774 54.5958 126.838 55.1893 125.768 55.6239C124.715 56.0418 123.587 56.2507 122.383 56.2507C121.096 56.2507 119.934 56.0167 118.898 55.5487C117.878 55.0806 117.009 54.4621 116.29 53.6931C115.588 52.9242 115.045 52.0382 114.66 51.0352C114.276 50.0322 114.083 48.9875 114.083 47.9009C114.083 46.831 114.276 45.7779 114.66 44.7415C115.045 43.6884 115.605 42.7522 116.34 41.9331C117.092 41.114 118.003 40.4537 119.073 39.9522C120.143 39.4507 121.363 39.2 122.734 39.2ZM122.709 55.3731C123.829 55.323 124.807 55.0722 125.643 54.6209C126.495 54.1528 127.206 53.5678 127.774 52.8657C128.343 52.1469 128.76 51.3612 129.028 50.5087C129.312 49.6561 129.454 48.8119 129.454 47.9761C129.454 47.0567 129.287 46.129 128.953 45.1928C128.618 44.2567 128.142 43.4125 127.523 42.6603C126.905 41.8913 126.161 41.2728 125.292 40.8048C124.439 40.32 123.478 40.0776 122.408 40.0776C121.372 40.0776 120.444 40.3116 119.625 40.7797C118.806 41.231 118.104 41.8161 117.519 42.5349C116.95 43.2537 116.516 44.0561 116.215 44.9421C115.914 45.8281 115.763 46.6973 115.763 47.5499C115.763 48.4693 115.939 49.397 116.29 50.3331C116.641 51.2525 117.126 52.0884 117.744 52.8406C118.363 53.5928 119.09 54.203 119.926 54.671C120.778 55.1391 121.706 55.3731 122.709 55.3731ZM149.886 39.7015C149.551 39.7015 149.267 39.8436 149.033 40.1278C148.799 40.4119 148.64 40.7212 148.557 41.0555L143.993 56.1003L140.082 43.7636L136.17 56.1254L131.581 41.0806C131.498 40.763 131.347 40.4537 131.13 40.1528C130.929 39.8519 130.695 39.7015 130.428 39.7015V39.4507H133.988V39.7015C133.771 39.7015 133.587 39.7934 133.437 39.9773C133.303 40.1445 133.236 40.3618 133.236 40.6293C133.236 40.7128 133.253 40.8215 133.286 40.9552L136.546 51.5869L140.533 39.3003L144.369 51.5618L147.679 40.9552C147.679 40.9218 147.687 40.8549 147.704 40.7546C147.738 40.6376 147.754 40.5457 147.754 40.4788C147.754 40.2448 147.687 40.0609 147.554 39.9272C147.42 39.7767 147.286 39.7015 147.153 39.7015V39.4507H149.886V39.7015ZM154.015 55.7493H154.14V56H151.357V55.7493H151.482C151.599 55.7493 151.708 55.6991 151.808 55.5988C151.925 55.4985 152.017 55.3815 152.084 55.2478C152.151 55.114 152.201 54.9719 152.234 54.8215C152.284 54.6543 152.31 54.5039 152.31 54.3701V41.0054C152.31 40.8884 152.293 40.7546 152.259 40.6042C152.243 40.4537 152.201 40.3116 152.134 40.1779C152.067 40.0442 151.975 39.9355 151.858 39.8519C151.741 39.7516 151.599 39.7015 151.432 39.7015H151.307V39.4507H153.839L162.941 53.7934V41.0054C162.941 40.8884 162.916 40.7546 162.866 40.6042C162.832 40.4537 162.774 40.3116 162.69 40.1779C162.624 40.0442 162.54 39.9355 162.44 39.8519C162.339 39.7516 162.222 39.7015 162.089 39.7015H161.963V39.4507H164.772V39.7015H164.646C164.512 39.7015 164.395 39.7516 164.295 39.8519C164.195 39.9355 164.103 40.0442 164.019 40.1779C163.952 40.3116 163.902 40.4537 163.869 40.6042C163.835 40.7546 163.819 40.8884 163.819 41.0054V56H162.264L153.187 41.6072V54.3701C153.187 54.5039 153.204 54.6543 153.237 54.8215C153.271 54.9719 153.321 55.114 153.388 55.2478C153.471 55.3815 153.563 55.4985 153.664 55.5988C153.764 55.6991 153.881 55.7493 154.015 55.7493Z" fill="white"/>
</svg>
