<svg width="66" height="75" viewBox="0 0 66 75" fill="none" xmlns="http://www.w3.org/2000/svg">
<circle cx="33" cy="33" r="23.3345" transform="rotate(45 33 33)" fill="#23A159"/>
<path d="M33 33L49.5 49.5L35.1213 63.8787C33.9497 65.0502 32.0503 65.0502 30.8787 63.8787L16.5 49.5L33 33Z" fill="#23A159"/>
<path d="M31.5 70.5C32.3284 69.6716 33.6716 69.6716 34.5 70.5C35.3284 71.3284 35.3284 72.6716 34.5 73.5C33.6716 74.3284 32.3284 74.3284 31.5 73.5C30.6716 72.6716 30.6716 71.3284 31.5 70.5Z" fill="#23A159"/>
<path d="M25.3506 33.54H28.2106V33.74H28.1106C28.0039 33.74 27.9106 33.78 27.8306 33.86C27.7506 33.9267 27.6839 34.0133 27.6306 34.12C27.5773 34.2267 27.5306 34.34 27.4906 34.46C27.4639 34.58 27.4506 34.6867 27.4506 34.78V40.14C27.2106 40.2333 26.9373 40.3133 26.6306 40.38C26.3239 40.4467 26.0039 40.5 25.6706 40.54C25.3373 40.5933 24.9973 40.6333 24.6506 40.66C24.3039 40.6867 23.9839 40.7 23.6906 40.7C22.4906 40.7 21.4439 40.5 20.5506 40.1C19.6573 39.7 18.9173 39.18 18.3306 38.54C17.7439 37.8867 17.3039 37.1533 17.0106 36.34C16.7306 35.5267 16.5906 34.7067 16.5906 33.88C16.5906 33.0533 16.7306 32.2333 17.0106 31.42C17.3039 30.6067 17.7439 29.88 18.3306 29.24C18.9306 28.6 19.6773 28.0867 20.5706 27.7C21.4773 27.3 22.5506 27.1 23.7906 27.1C24.2573 27.1 24.6906 27.14 25.0906 27.22C25.4906 27.3 25.8439 27.3733 26.1506 27.44C26.3239 27.48 26.4706 27.52 26.5906 27.56C26.7239 27.5867 26.8373 27.6 26.9306 27.6H27.1106V29.72H26.9106C26.8306 29.3067 26.6706 28.9733 26.4306 28.72C26.2039 28.4667 25.9373 28.2733 25.6306 28.14C25.3239 28.0067 24.9973 27.92 24.6506 27.88C24.3173 27.8267 24.0039 27.8 23.7106 27.8C22.7106 27.8 21.8439 27.98 21.1106 28.34C20.3773 28.6867 19.7773 29.14 19.3106 29.7C18.8439 30.26 18.4973 30.8933 18.2706 31.6C18.0439 32.2933 17.9306 32.9867 17.9306 33.68C17.9306 34.4533 18.0773 35.22 18.3706 35.98C18.6639 36.7267 19.0773 37.4 19.6106 38C20.1439 38.5867 20.7839 39.0667 21.5306 39.44C22.2906 39.8 23.1306 39.98 24.0506 39.98C24.3039 39.98 24.6173 39.9533 24.9906 39.9C25.3639 39.8333 25.7373 39.6933 26.1106 39.48V34.78C26.1106 34.6867 26.0973 34.58 26.0706 34.46C26.0439 34.34 25.9973 34.2267 25.9306 34.12C25.8773 34.0133 25.8106 33.9267 25.7306 33.86C25.6506 33.78 25.5573 33.74 25.4506 33.74H25.3506V33.54ZM34.252 40.3H34.352V40.5H31.512V40.3H31.612C31.7187 40.3 31.812 40.26 31.892 40.18C31.972 40.1 32.0387 40.0067 32.092 39.9C32.1587 39.7933 32.2053 39.68 32.232 39.56C32.2587 39.4267 32.272 39.3067 32.272 39.2V28.04H29.952C29.7387 28.04 29.552 28.0867 29.392 28.18C29.232 28.2733 29.0987 28.3933 28.992 28.54C28.8853 28.6733 28.8053 28.8267 28.752 29C28.6987 29.16 28.672 29.32 28.672 29.48H28.472V27.3H37.452V29.48H37.252C37.252 29.32 37.2253 29.16 37.172 29C37.1187 28.8267 37.0387 28.6733 36.932 28.54C36.8253 28.3933 36.692 28.2733 36.532 28.18C36.372 28.0867 36.1853 28.04 35.972 28.04H33.612V39.2C33.612 39.3067 33.6253 39.4267 33.652 39.56C33.6787 39.68 33.7187 39.7933 33.772 39.9C33.8387 40.0067 33.9053 40.1 33.972 40.18C34.052 40.26 34.1453 40.3 34.252 40.3Z" fill="white"/>
<path d="M41.3979 30.8961H40.9225C40.783 30.5284 40.6372 30.0974 40.4851 29.603C40.3456 29.1085 40.2252 28.6395 40.1238 28.1957C40.5675 27.8154 41.0999 27.5175 41.7212 27.302C42.3424 27.0738 43.0143 26.9597 43.7369 26.9597C44.3708 26.9597 44.9159 27.0484 45.3723 27.2259C45.8287 27.4034 46.2027 27.6443 46.4943 27.9485C46.7986 28.2528 47.0205 28.6078 47.1599 29.0135C47.2994 29.4065 47.3691 29.8185 47.3691 30.2495C47.3691 30.9595 47.2043 31.6885 46.8747 32.4365C46.545 33.1844 46.133 33.9134 45.6386 34.6234C45.1568 35.3206 44.6307 35.9799 44.0602 36.6011C43.4897 37.2223 42.9636 37.7675 42.4818 38.2365L41.6831 38.9782V39.0542L42.748 38.9401H46.0189L46.9507 36.8103H47.4261C47.4515 37.0892 47.4769 37.3935 47.5022 37.7231C47.5276 38.0527 47.5466 38.3887 47.5593 38.731C47.5846 39.0606 47.6036 39.3839 47.6163 39.7008C47.629 40.0051 47.6353 40.2713 47.6353 40.4995H39.7815V39.891C40.0604 39.5994 40.3963 39.2444 40.7893 38.826C41.195 38.4077 41.6134 37.9449 42.0444 37.4378C42.4755 36.9307 42.9002 36.3919 43.3185 35.8214C43.7496 35.2509 44.1299 34.6741 44.4595 34.0909C44.7892 33.495 45.0554 32.9055 45.2582 32.3224C45.4738 31.7392 45.5815 31.1814 45.5815 30.6489C45.5815 30.2812 45.5308 29.9326 45.4294 29.603C45.3407 29.2733 45.2012 28.9881 45.011 28.7472C44.8209 28.4937 44.5863 28.2972 44.3074 28.1577C44.0412 28.0182 43.7306 27.9485 43.3756 27.9485C43.1094 27.9485 42.8748 27.9675 42.672 28.0056C42.4691 28.0436 42.2473 28.1007 42.0064 28.1767L41.3979 30.8961Z" fill="white"/>
</svg>
