<svg width="40" height="40" viewBox="0 0 40 40" fill="none" xmlns="http://www.w3.org/2000/svg">
<circle cx="20" cy="20" r="14.1421" transform="rotate(45 20 20)" fill="#23A159"/>
<path d="M20 20L30 30L22.1213 37.8787C20.9497 39.0503 19.0503 39.0503 17.8787 37.8787L10 30L20 20Z" fill="#23A159"/>
<path fill-rule="evenodd" clip-rule="evenodd" d="M19.6936 13C19.9953 13 20.2398 13.2442 20.2398 13.5455V15.1818L24.997 15.1818C25.3027 15.1818 25.5982 15.2915 25.8296 15.4909L28.1509 17.4909C28.7401 17.9986 28.7401 18.9105 28.1509 19.4182L25.8296 21.4182C25.5982 21.6176 25.3027 21.7273 24.997 21.7273L20.2398 21.7273V28.4545C20.2398 28.7558 19.9953 29 19.6936 29C19.3919 29 19.1474 28.7558 19.1474 28.4545V21.7273L13.8673 21.7272C13.1634 21.7272 12.5928 21.1574 12.5928 20.4545V16.4545C12.5928 15.7516 13.1634 15.1818 13.8673 15.1818L19.1474 15.1818V13.5455C19.1474 13.2442 19.3919 13 19.6936 13ZM19.6936 16.2727L19.6966 16.2727L24.997 16.2727C25.0407 16.2727 25.0829 16.2884 25.116 16.3169L27.4372 18.3169C27.5214 18.3894 27.5214 18.5197 27.4372 18.5922L25.116 20.5922C25.0829 20.6207 25.0407 20.6364 24.997 20.6364L13.8673 20.6363C13.7667 20.6363 13.6852 20.5549 13.6852 20.4545L13.6852 16.4545C13.6852 16.3541 13.7667 16.2727 13.8673 16.2727L19.6907 16.2727L19.6936 16.2727Z" fill="white"/>
</svg>
