<svg width="40" height="40" viewBox="0 0 40 40" fill="none" xmlns="http://www.w3.org/2000/svg">
<circle cx="20" cy="20" r="14.1421" transform="rotate(45 20 20)" fill="#23A159"/>
<path d="M20 20L30 30L22.1213 37.8787C20.9497 39.0503 19.0503 39.0503 17.8787 37.8787L10 30L20 20Z" fill="#23A159"/>
<path d="M20.5003 17.1665C20.5003 16.8904 20.2765 16.6665 20.0003 16.6665C19.7242 16.6665 19.5003 16.8904 19.5003 17.1665V19.4998H17.167C16.8908 19.4998 16.667 19.7237 16.667 19.9998C16.667 20.276 16.8908 20.4998 17.167 20.4998H19.5003V22.8332C19.5003 23.1093 19.7242 23.3332 20.0003 23.3332C20.2765 23.3332 20.5003 23.1093 20.5003 22.8332V20.4998H22.8337C23.1098 20.4998 23.3337 20.276 23.3337 19.9998C23.3337 19.7237 23.1098 19.4998 22.8337 19.4998H20.5003V17.1665Z" fill="white"/>
<path fill-rule="evenodd" clip-rule="evenodd" d="M20.0003 12.6665C15.9502 12.6665 12.667 15.9497 12.667 19.9998C12.667 24.0499 15.9502 27.3332 20.0003 27.3332C24.0504 27.3332 27.3337 24.0499 27.3337 19.9998C27.3337 15.9497 24.0504 12.6665 20.0003 12.6665ZM13.667 19.9998C13.667 16.502 16.5025 13.6665 20.0003 13.6665C23.4981 13.6665 26.3337 16.502 26.3337 19.9998C26.3337 23.4976 23.4981 26.3332 20.0003 26.3332C16.5025 26.3332 13.667 23.4976 13.667 19.9998Z" fill="white"/>
</svg>
