<svg width="156" height="178" viewBox="0 0 156 178" fill="none" xmlns="http://www.w3.org/2000/svg">
<path d="M102 26L126 50H106.8C102.96 50 102 46.8 102 45.2V26Z" fill="#23A159"/>
<g filter="url(#filter0_d)">
<path fill-rule="evenodd" clip-rule="evenodd" d="M101.586 26C101.851 26 102.105 26.1054 102.293 26.2929L125.707 49.7071C125.895 49.8946 126 50.149 126 50.4142V141.598C126 142.703 125.105 143.598 124 143.598H32C30.8954 143.598 30 142.703 30 141.598V28C30 26.8954 30.8954 26 32 26H101.586ZM123.996 26.0247C124.041 26.0269 124.045 26 124 26H122.889C123.309 26.0024 123.676 26.0089 123.996 26.0247Z" fill="#23A159"/>
</g>
<path d="M59.696 98.856C59.44 99.112 59.128 99.24 58.76 99.24C58.392 99.24 58.08 99.112 57.824 98.856C57.568 98.6 57.44 98.288 57.44 97.92C57.44 97.552 57.568 97.24 57.824 96.984C58.08 96.728 58.392 96.6 58.76 96.6C59.128 96.6 59.44 96.728 59.696 96.984C59.952 97.24 60.08 97.552 60.08 97.92C60.08 98.288 59.952 98.6 59.696 98.856ZM69.6433 86.712C71.3553 86.712 72.8113 87.32 74.0113 88.536C75.2273 89.752 75.8353 91.24 75.8353 93C75.8353 94.76 75.2273 96.248 74.0113 97.464C72.8113 98.68 71.3553 99.288 69.6433 99.288C67.5153 99.288 65.8993 98.408 64.7953 96.648V103.8H63.2113V87H64.7953V89.352C65.8993 87.592 67.5153 86.712 69.6433 86.712ZM66.1633 96.384C67.0753 97.296 68.1953 97.752 69.5233 97.752C70.8513 97.752 71.9713 97.296 72.8833 96.384C73.7953 95.456 74.2513 94.328 74.2513 93C74.2513 91.672 73.7953 90.552 72.8833 89.64C71.9713 88.712 70.8513 88.248 69.5233 88.248C68.1953 88.248 67.0753 88.712 66.1633 89.64C65.2513 90.552 64.7953 91.672 64.7953 93C64.7953 94.328 65.2513 95.456 66.1633 96.384ZM88.7891 82.2H90.3731V99H88.7891V96.648C87.6851 98.408 86.0691 99.288 83.9411 99.288C82.2291 99.288 80.7651 98.68 79.5491 97.464C78.3491 96.248 77.7491 94.76 77.7491 93C77.7491 91.24 78.3491 89.752 79.5491 88.536C80.7651 87.32 82.2291 86.712 83.9411 86.712C86.0691 86.712 87.6851 87.592 88.7891 89.352V82.2ZM80.7011 96.384C81.6131 97.296 82.7331 97.752 84.0611 97.752C85.3891 97.752 86.5091 97.296 87.4211 96.384C88.3331 95.456 88.7891 94.328 88.7891 93C88.7891 91.672 88.3331 90.552 87.4211 89.64C86.5091 88.712 85.3891 88.248 84.0611 88.248C82.7331 88.248 81.6131 88.712 80.7011 89.64C79.7891 90.552 79.3331 91.672 79.3331 93C79.3331 94.328 79.7891 95.456 80.7011 96.384ZM99.7269 83.448C98.5589 83.352 97.6869 83.552 97.1109 84.048C96.5509 84.544 96.2709 85.368 96.2709 86.52V87H99.7269V88.536H96.2709V99H94.6869V88.536H92.6469V87H94.6869V86.52C94.6869 84.952 95.1189 83.768 95.9829 82.968C96.8629 82.152 98.1109 81.8 99.7269 81.912V83.448Z" fill="white"/>
<defs>
<filter id="filter0_d" x="0" y="0" width="156" height="177.598" filterUnits="userSpaceOnUse" color-interpolation-filters="sRGB">
<feFlood flood-opacity="0" result="BackgroundImageFix"/>
<feColorMatrix in="SourceAlpha" type="matrix" values="0 0 0 0 0 0 0 0 0 0 0 0 0 0 0 0 0 0 127 0"/>
<feOffset dy="4"/>
<feGaussianBlur stdDeviation="15"/>
<feColorMatrix type="matrix" values="0 0 0 0 0.447059 0 0 0 0 0.686275 0 0 0 0 0.454902 0 0 0 0.32 0"/>
<feBlend mode="normal" in2="BackgroundImageFix" result="effect1_dropShadow"/>
<feBlend mode="normal" in="SourceGraphic" in2="effect1_dropShadow" result="shape"/>
</filter>
</defs>
</svg>
