<svg width="40" height="40" viewBox="0 0 40 40" fill="none" xmlns="http://www.w3.org/2000/svg">
<circle cx="20" cy="20" r="14.1421" transform="rotate(45 20 20)" fill="#23A159"/>
<path d="M20 20L30 30L22.1213 37.8787C20.9497 39.0503 19.0503 39.0503 17.8787 37.8787L10 30L20 20Z" fill="#23A159"/>
<path fill-rule="evenodd" clip-rule="evenodd" d="M22.779 13.9494L15.007 20.7074C14.9813 20.7297 14.9631 20.7593 14.9546 20.7922C14.9462 20.8252 14.9481 20.8599 14.96 20.8918C14.9719 20.9236 14.9933 20.9511 15.0212 20.9704C15.0492 20.9898 15.0824 21.0002 15.1164 21.0001H18.7497C18.8322 21 18.9135 21.0204 18.9862 21.0593C19.059 21.0982 19.1209 21.1546 19.1666 21.2233C19.2123 21.292 19.2402 21.371 19.248 21.4531C19.2558 21.5353 19.2431 21.6181 19.211 21.6941L17.505 25.7381L24.9817 19.2928C25.0074 19.2705 25.0257 19.2409 25.0341 19.208C25.0425 19.175 25.0406 19.1403 25.0287 19.1084C25.0168 19.0766 24.9955 19.0491 24.9675 19.0298C24.9396 19.0104 24.9064 19.0001 24.8724 19.0001H21.3337C21.2507 19.0001 21.169 18.9794 21.096 18.9399C21.023 18.9004 20.961 18.8433 20.9156 18.7739C20.8701 18.7044 20.8427 18.6247 20.8357 18.542C20.8288 18.4593 20.8425 18.3762 20.8757 18.3001L22.779 13.9494ZM22.4777 12.8861C22.6309 12.7526 22.825 12.6752 23.028 12.6668C23.231 12.6583 23.4308 12.7193 23.5946 12.8396C23.7583 12.96 23.8762 13.1325 23.9287 13.3288C23.9813 13.5251 23.9654 13.7334 23.8837 13.9194L22.0984 18.0001H24.8724C25.9544 18.0001 26.4537 19.3441 25.6344 20.0501L17.4017 27.1474C17.2709 27.2607 17.1056 27.3263 16.9327 27.3336C16.7598 27.341 16.5896 27.2895 16.4496 27.1877C16.3097 27.0859 16.2084 26.9397 16.1622 26.773C16.1159 26.6062 16.1275 26.4288 16.195 26.2694L17.9977 22.0001H15.1164C14.037 22.0001 13.5364 20.6614 14.351 19.9534L22.4777 12.8868V12.8861Z" fill="white"/>
</svg>
