<svg width="40" height="40" viewBox="0 0 40 40" fill="none" xmlns="http://www.w3.org/2000/svg">
<circle cx="20" cy="20" r="14.1421" transform="rotate(45 20 20)" fill="#23A159"/>
<path d="M20 20L30 30L22.1213 37.8787C20.9497 39.0503 19.0503 39.0503 17.8787 37.8787L10 30L20 20Z" fill="#23A159"/>
<rect width="16" height="16" transform="translate(12 12)" fill="#23A159"/>
<path fill-rule="evenodd" clip-rule="evenodd" d="M20.1945 13.3729C20.0701 13.3204 19.9299 13.3204 19.8055 13.3729L12.3055 16.5395C12.1204 16.6177 12 16.7992 12 17.0002C12 17.2012 12.1204 17.3826 12.3055 17.4608L14.8333 18.5281V21.0638C14.5092 21.1479 14.2016 21.3154 13.9485 21.5685C13.5627 21.9543 13.3333 22.5087 13.3333 23.1876V26.1876C13.3333 26.3538 13.4186 26.5122 13.5567 26.6041C13.5961 26.6302 13.635 26.6527 13.7034 26.6869C13.7858 26.7281 13.9014 26.779 14.0502 26.8286C14.3484 26.928 14.7767 27.021 15.3333 27.021C15.8899 27.021 16.3182 26.9281 16.6164 26.8287C16.7652 26.7791 16.8808 26.7282 16.9632 26.687C17.0277 26.6547 17.0655 26.6326 17.1031 26.6087C17.2441 26.5169 17.3333 26.3564 17.3333 26.1877V23.1877C17.3333 22.5087 17.104 21.9544 16.7181 21.5685C16.4651 21.3155 16.1575 21.1479 15.8333 21.0639V18.9503L19.8055 20.6275C19.9299 20.68 20.0701 20.68 20.1945 20.6275L23.6667 19.1614V21.8296C23.6516 21.8466 23.6341 21.8655 23.6142 21.886C23.5065 21.9968 23.3251 22.156 23.048 22.3196C22.4972 22.6446 21.5449 23.0002 20 23.0002C19.592 23.0002 19.2256 22.9753 18.8974 22.933C18.6235 22.8976 18.3728 23.091 18.3375 23.3649C18.3021 23.6387 18.4955 23.8894 18.7693 23.9248C19.1422 23.9729 19.5514 24.0002 20 24.0002C21.7051 24.0002 22.8362 23.6057 23.5562 23.1808C23.9146 22.9693 24.1654 22.7536 24.3312 22.5831C24.4268 22.4847 24.5209 22.379 24.5929 22.2616L24.5933 22.2609C24.6413 22.1824 24.6667 22.0922 24.6667 22.0002V18.7392L27.6945 17.4608C27.8796 17.3826 28 17.2012 28 17.0002C28 16.7992 27.8796 16.6177 27.6945 16.5395L20.1945 13.3729ZM15.3333 22.0002C15.3333 22.0002 15.3333 22.0002 15.3333 22.0002C15.082 22.0002 14.837 22.0942 14.6556 22.2756C14.479 22.4522 14.3333 22.7416 14.3333 23.1876V25.8686C14.5326 25.9388 14.8648 26.021 15.3333 26.021C15.8018 26.021 16.1341 25.9388 16.3333 25.8687V23.1877C16.3333 22.7417 16.1877 22.4523 16.011 22.2756C15.8297 22.0942 15.5846 22.0002 15.3333 22.0002ZM20 19.6241L13.7854 17.0002L20 14.3762L26.2146 17.0002L20 19.6241Z" fill="white"/>
</svg>
