<svg width="642" height="1063" viewBox="0 0 642 1063" fill="none" xmlns="http://www.w3.org/2000/svg">
<path d="M601.549 543.666V615.43H290.472V290.295H600.572V320.563H612.781M601.549 543.666H612.781M601.549 543.666H589.828V534.878H612.781M621.082 320.563V543.666H612.781M621.082 320.563H612.781M621.082 320.563H640.616M612.781 320.563V534.878M612.781 543.666V534.878" stroke="#23A159" stroke-width="0.852029"/>
<path d="M475.597 242.067H640.61M265.668 242.067H307.654M1.06055 242.067H260.786M475.597 244.747H640.61M265.668 244.747H307.654M1.06055 244.747H260.786" stroke="#23A159" stroke-width="0.852029"/>
<path d="M520.45 585.958H600.421M290.472 585.958H482.972M520.45 588.638H600.421M290.472 588.638H482.972" stroke="#23A159" stroke-width="0.852029"/>
<path d="M1.06055 585.958H159.162M1.06055 588.638H159.162" stroke="#23A159" stroke-width="0.852029"/>
<path d="M1.06055 943.245H110.927M1.06055 946.818H109.951" stroke="#23A159" stroke-width="0.852029"/>
<path d="M127.897 943.245H160.947M127.897 946.818H160.947" stroke="#23A159" stroke-width="0.852029"/>
<path d="M290.472 943.245H369.969M290.472 946.818H348.509" stroke="#23A159" stroke-width="0.852029"/>
<path d="M395.869 943.245H437.851M395.869 946.818H437.363" stroke="#23A159" stroke-width="0.852029"/>
<path d="M555.756 943.245H602.204M555.756 946.818H601.664" stroke="#23A159" stroke-width="0.852029"/>
<path d="M302.969 202.769C308.328 202.611 319.047 205.425 319.047 217.948" stroke="#23A159" stroke-width="0.852029"/>
<path d="M479.826 202.769C474.467 202.611 463.748 205.425 463.748 217.948" stroke="#23A159" stroke-width="0.852029"/>
<path d="M321.727 249.204H462.856" stroke="#23A159" stroke-width="0.852029"/>
<path d="M331.264 211.692L319.05 217.945H391.848M391.848 217.945L386.473 211.692M391.848 217.945H464.646L452.92 211.692" stroke="#23A159" stroke-width="0.852029"/>
<path d="M391.403 217.945L397.656 211.692" stroke="#23A159" stroke-width="0.852029"/>
<path d="M312.294 264.393L313.766 249.212H309.84L307.386 246.764C307.549 233.869 306.895 206.903 302.969 202.202L319.655 195.347L322.6 179.677H329.471V171.842C329.798 170.536 331.729 167.924 336.833 167.924C341.937 167.924 371.678 167.924 385.911 167.924C388.038 168.087 392.291 169.785 392.291 175.269C392.291 180.754 392.291 201.06 392.291 210.527" stroke="#23A159" stroke-width="0.852029"/>
<path d="M471.396 264.393L469.923 249.212H473.85L476.304 246.764C476.14 233.869 476.794 206.903 480.721 202.202L464.034 195.347L461.089 179.677H454.218V171.842C453.891 170.536 451.961 167.924 446.857 167.924C441.752 167.924 412.011 167.924 397.778 167.924C395.652 168.087 391.398 169.785 391.398 175.269C391.398 180.754 391.398 201.06 391.398 210.527" stroke="#23A159" stroke-width="0.852029"/>
<path d="M113.609 0V5.29065L114.584 6.25258H123.354L124.328 5.29065V0" stroke="#23A159" stroke-width="0.852029"/>
<path d="M119.016 6.24878V39.4258M119.016 39.4258H95.322L90.3857 64.3085H146.659L140.735 39.4258H119.016Z" stroke="#23A159" stroke-width="0.852029"/>
<path d="M101.993 64.3186C106.584 64.829 115.865 67.6873 116.259 75.0373H122.162M135.936 64.3186C131.344 64.829 122.064 67.6873 121.67 75.0373" stroke="#23A159" stroke-width="0.852029"/>
<path d="M117.176 75.0273V78.6002H119.855V75.0273" stroke="#23A159" stroke-width="0.852029"/>
<path d="M250.449 93.7852L238.658 133.98H287.786L275.504 93.7852H250.449Z" stroke="#23A159" stroke-width="0.852029"/>
<path d="M260.987 134.876V246.529H265.453V134.876" stroke="#23A159" stroke-width="0.852029"/>
<path d="M364.604 138.451V63.4204H420.878V138.451H364.604Z" stroke="#23A159" stroke-width="0.852029"/>
<path d="M368.172 134.873V66.988H417.299V134.873H368.172Z" stroke="#23A159" stroke-width="0.852029"/>
<path d="M376.217 124.162V77.7144H409.266V124.162H376.217Z" stroke="#23A159" stroke-width="0.852029"/>
<path d="M636.74 0.890381H5.44326C2.98931 0.890381 1 2.87966 1 5.3336V1057.6C1 1060.06 2.98737 1062.04 5.44008 1062.05L636.554 1062.5C639.009 1062.5 641 1060.51 641 1058.05V1052V1043V1013V974.5V969.5V967V5.15053C641 2.79771 639.093 0.890381 636.74 0.890381Z" fill="#D4E5D5" fill-opacity="0.1" stroke="#23A159" stroke-width="0.852029"/>
<path d="M115.093 934.313C115.093 930.926 113.724 923.088 108.245 918.83H113.137V909.637C113.789 908.347 114.995 905.477 114.604 904.315L117.539 907.702C118.354 905.122 119.789 899.864 119.006 899.477C122.267 902.864 128.007 911.476 124.876 918.83C126.181 917.863 128.3 915.443 128.789 913.992C127.811 920.282 124.583 933.152 121.452 934.313" stroke="#23A159" stroke-width="0.852029"/>
<path d="M113.609 920.918C115.098 922.992 118.076 928.574 118.076 934.316" stroke="#23A159" stroke-width="0.852029"/>
<path d="M117.176 907.522V919.134" stroke="#23A159" stroke-width="0.852029"/>
<path d="M110.927 942.357H127.005" stroke="#23A159" stroke-width="0.852029"/>
<path d="M110.927 951.287H127.005" stroke="#23A159" stroke-width="0.852029"/>
<path d="M448.571 946.322V936.932C449.911 934.955 453.395 932.187 456.61 936.932V946.817" stroke="#23A159" stroke-width="0.852029"/>
<path d="M459.29 946.322V936.932C460.63 934.955 464.113 932.187 467.329 936.932V946.817" stroke="#23A159" stroke-width="0.852029"/>
<path d="M563.792 434.103H591.482" stroke="#23A159" stroke-width="0.852029"/>
<path d="M562.899 437.675H592.376C591.362 432.396 588.253 420.337 584.198 416.238" stroke="#23A159" stroke-width="0.852029"/>
<path d="M571.837 415.349H584.342" stroke="#23A159" stroke-width="0.852029"/>
<path d="M563.798 437.68C564.803 432.056 567.817 419.716 571.837 415.349" stroke="#23A159" stroke-width="0.852029"/>
<path d="M2.84766 264.396H640.611" stroke="#23A159" stroke-width="0.852029"/>
<path d="M392.294 210.211L386.902 211.695H331.016C328.075 209.057 325.289 202.321 328.565 192.401C331.507 183.496 331.016 179.539 327.586 179.539" stroke="#23A159" stroke-width="0.852029"/>
<path d="M391.397 210.211L396.789 211.695H452.675C455.616 209.057 458.402 202.321 455.126 192.401C452.185 183.496 452.675 179.539 456.106 179.539" stroke="#23A159" stroke-width="0.852029"/>
<path d="M319.05 217.945V229.081C319.05 230.43 319.637 233.13 321.986 233.13C324.336 233.13 368.646 233.13 390.508 233.13V217.945" stroke="#23A159" stroke-width="0.852029"/>
<path d="M463.754 217.945V229.081C463.754 230.43 463.167 233.13 460.817 233.13C458.468 233.13 414.157 233.13 392.296 233.13V217.945" stroke="#23A159" stroke-width="0.852029"/>
<path d="M316.533 264.389L321.734 249.204H313.695" stroke="#23A159" stroke-width="0.852029"/>
<path d="M467.166 264.389L461.964 249.204H470.003" stroke="#23A159" stroke-width="0.852029"/>
<path d="M2.84766 290.295H263.67V615.43H2.84766" stroke="#23A159" stroke-width="0.852029"/>
<path d="M260.99 246.531C258.674 247.854 255.134 251.592 259.501 255.959V257.448C258.51 259.433 254.043 263.403 250.073 258.44C249.577 257.448 247.592 257.646 247.592 260.425C247.592 263.204 249.577 264.23 250.569 264.395" stroke="#23A159" stroke-width="0.852029"/>
<path d="M265.451 246.531C267.612 247.854 270.916 251.592 266.84 255.959V257.448C267.766 259.433 271.935 263.403 275.64 258.44C276.103 257.448 277.956 257.646 277.956 260.425C277.956 263.204 276.103 264.23 275.177 264.395" stroke="#23A159" stroke-width="0.852029"/>
<path d="M258.311 264.398L263.223 260.825L268.136 264.398" stroke="#23A159" stroke-width="0.852029"/>
<path d="M72.5166 399.269H101.1V394.803H72.5166" stroke="#23A159" stroke-width="0.852029"/>
<path d="M72.5166 774.429H101.1V769.963H72.5166" stroke="#23A159" stroke-width="0.852029"/>
<path fill-rule="evenodd" clip-rule="evenodd" d="M579.794 444.398C582.962 445.257 585.293 448.153 585.293 451.593C585.293 455.71 581.955 459.048 577.839 459.048C573.722 459.048 570.384 455.71 570.384 451.593C570.384 448.152 572.716 445.256 575.885 444.398V443.518C572.24 444.397 569.532 447.679 569.532 451.593C569.532 456.181 573.251 459.9 577.839 459.9C582.426 459.9 586.145 456.181 586.145 451.593C586.145 447.679 583.438 444.398 579.794 443.518V444.398Z" fill="#23A159"/>
<path d="M575.83 438.105H579.444V451.627C579.444 452.568 578.681 453.331 577.74 453.331H577.534C576.593 453.331 575.83 452.568 575.83 451.627V438.105Z" stroke="#23A159" stroke-width="0.852029"/>
<path d="M96.6348 399.276V417.331H125.939V435.874H156.22V451.977H263.668" stroke="#23A159" stroke-width="0.852029"/>
<path d="M96.6348 774.433V792.488H125.939V811.03H156.22V827.133H263.668" stroke="#23A159" stroke-width="0.852029"/>
<path d="M96.6348 412.672H130.577V417.138H125.244" stroke="#23A159" stroke-width="0.852029"/>
<path d="M96.6348 787.828H130.577V792.294H125.244" stroke="#23A159" stroke-width="0.852029"/>
<path d="M126.109 431.43H160.052V435.896H154.718" stroke="#23A159" stroke-width="0.852029"/>
<path d="M126.109 806.58H160.052V811.046H154.718" stroke="#23A159" stroke-width="0.852029"/>
<path d="M156.483 448.395H263.671" stroke="#23A159" stroke-width="0.852029"/>
<path d="M156.483 822.657H263.671" stroke="#23A159" stroke-width="0.852029"/>
<path d="M263.671 470.732H156.483V467.159H263.671" stroke="#23A159" stroke-width="0.852029"/>
<path d="M263.671 845.886H156.483V842.313H263.671" stroke="#23A159" stroke-width="0.852029"/>
<path d="M263.671 489.489H156.483V485.022H263.671" stroke="#23A159" stroke-width="0.852029"/>
<path d="M263.671 864.645H156.483V860.179H263.671" stroke="#23A159" stroke-width="0.852029"/>
<path d="M263.671 506.459H156.483V502.886H263.671" stroke="#23A159" stroke-width="0.852029"/>
<path d="M263.671 881.611H156.483V878.038H263.671" stroke="#23A159" stroke-width="0.852029"/>
<path fill-rule="evenodd" clip-rule="evenodd" d="M71.7022 289.862V424.717V424.961L71.912 425.085L159.651 476.753V485.305H160.504V476.51V476.266L160.294 476.143L72.5542 424.474V289.862H71.7022ZM159.651 502.896V489.214H160.504V502.896H159.651ZM160.504 506.805H159.651V514.195H44.2776H43.8516V514.621V615.274H44.7036V515.047H160.077H160.504V514.621V506.805Z" fill="#23A159"/>
<path d="M263.671 525.216H156.483V521.644H263.671" stroke="#23A159" stroke-width="0.852029"/>
<path d="M263.671 900.369H156.483V896.796H263.671" stroke="#23A159" stroke-width="0.852029"/>
<path d="M263.671 543.98H156.483V540.407H263.671" stroke="#23A159" stroke-width="0.852029"/>
<path d="M263.671 919.131H156.483V915.558H263.671" stroke="#23A159" stroke-width="0.852029"/>
<path d="M263.671 561.838H156.483V557.372H263.671" stroke="#23A159" stroke-width="0.852029"/>
<path d="M263.671 936.991H156.483V932.525H263.671" stroke="#23A159" stroke-width="0.852029"/>
<path d="M263.671 579.707H156.483V576.134H263.671" stroke="#23A159" stroke-width="0.852029"/>
<path d="M263.671 955.753H156.483V951.287H263.671" stroke="#23A159" stroke-width="0.852029"/>
<path d="M263.671 597.572H156.483V594H263.671" stroke="#23A159" stroke-width="0.852029"/>
<path d="M160.055 451.971V466.262" stroke="#23A159" stroke-width="0.852029"/>
<path d="M160.055 827.123V841.415" stroke="#23A159" stroke-width="0.852029"/>
<path d="M160.055 470.729V485.02" stroke="#23A159" stroke-width="0.852029"/>
<path d="M160.055 845.885V860.176" stroke="#23A159" stroke-width="0.852029"/>
<path d="M160.055 514.499V521.644" stroke="#23A159" stroke-width="0.852029"/>
<path d="M160.055 525.215V540.4" stroke="#23A159" stroke-width="0.852029"/>
<path d="M160.055 900.371V915.556" stroke="#23A159" stroke-width="0.852029"/>
<path d="M160.055 881.614V896.798" stroke="#23A159" stroke-width="0.852029"/>
<path d="M160.055 864.639V878.037" stroke="#23A159" stroke-width="0.852029"/>
<path d="M160.055 543.973L160.055 557.371" stroke="#23A159" stroke-width="0.852029"/>
<path d="M160.055 919.125L160.055 932.524" stroke="#23A159" stroke-width="0.852029"/>
<path d="M160.055 561.838L160.055 576.13" stroke="#23A159" stroke-width="0.852029"/>
<path d="M160.055 936.989L160.055 951.28" stroke="#23A159" stroke-width="0.852029"/>
<path d="M160.055 579.702L160.055 593.993" stroke="#23A159" stroke-width="0.852029"/>
<path d="M160.055 955.751L160.055 967.363" stroke="#23A159" stroke-width="0.852029"/>
<path d="M160.055 597.561L160.055 615.426" stroke="#23A159" stroke-width="0.852029"/>
<path d="M620.959 543.08H640.61" stroke="#23A159" stroke-width="0.852029"/>
<path d="M601.314 966.469H290.472V635.975H601.314V966.469ZM601.314 966.469H640.83" stroke="#23A159" stroke-width="0.852029"/>
<path d="M1 966.408V635.385H263.152V966.408H1Z" stroke="#23A159" stroke-width="0.852029"/>
<path d="M71.6279 635.975V799.872L160.057 851.243" stroke="#23A159" stroke-width="0.852029"/>
<path d="M2.93257 974.801H133.917M2.93257 982.643H67.9358M2.93257 990.485H263.923M11.73 966.959V974.801M49.8522 974.801V982.643M37.1448 982.643V990.485M37.1448 966.959V974.801M25.4149 974.801V982.643M11.73 982.643V990.485M62.5596 966.959V974.801M62.5596 982.643V990.485M2.93257 1022.34H133.917M2.93257 1030.19H67.9358M2.93257 1038.03H263.923M11.73 1014.5V1022.34M49.8522 1022.34V1030.19M37.1448 1030.19V1038.03M37.1448 1014.5V1022.34M25.4149 1022.34V1030.19M11.73 1030.19V1038.03M62.5596 1014.5V1022.34M62.5596 1030.19V1038.03M133.428 982.643H198.431M133.428 982.643H67.4471M133.428 982.643V974.801H264.412M142.225 966.959V974.801M180.348 974.801V982.643M167.64 982.643V990.485M167.64 966.959V974.801M155.91 974.801V982.643M142.225 982.643V990.485M193.055 966.959V974.801M193.055 982.643V990.485M133.428 1030.19H198.431M133.428 1030.19H67.4471M133.428 1030.19V1022.34H264.412M142.225 1014.5V1022.34M180.348 1022.34V1030.19M167.64 1030.19V1038.03M167.64 1014.5V1022.34M155.91 1022.34V1030.19M142.225 1030.19V1038.03M193.055 1014.5V1022.34M193.055 1030.19V1038.03M394.418 982.643H459.422M394.418 990.485H524.914M403.216 966.959V974.801M441.338 974.801V982.643M428.631 982.643V990.485M428.631 966.959V974.801M416.901 974.801V982.643M403.216 982.643V990.485M454.046 966.959V974.801M454.046 982.643V990.485M394.418 1030.19H459.422M394.418 1038.03H524.914M403.216 1014.5V1022.34M441.338 1022.34V1030.19M428.631 1030.19V1038.03M428.631 1014.5V1022.34M416.901 1022.34V1030.19M403.216 1030.19V1038.03M454.046 1014.5V1022.34M454.046 1030.19V1038.03M263.434 974.801H525.403M263.434 982.643H328.438M263.434 990.485H393.93M272.232 966.959V974.801M310.354 974.801V982.643M297.647 982.643V990.485M297.647 966.959V974.801M285.917 974.801V982.643M272.232 982.643V990.485M323.062 966.959V974.801M323.062 982.643V990.485M263.434 1022.34H525.403M263.434 1030.19H328.438M263.434 1038.03H393.93M272.232 1014.5V1022.34M310.354 1022.34V1030.19M297.647 1030.19V1038.03M297.647 1014.5V1022.34M285.917 1022.34V1030.19M272.232 1030.19V1038.03M323.062 1014.5V1022.34M323.062 1030.19V1038.03M524.425 974.801H640.83M524.425 982.643H589.428M524.425 990.485H641.318M533.222 966.959V974.801M571.345 974.801V982.643M558.637 982.643V990.485M558.637 966.959V974.801M546.907 974.801V982.643M533.222 982.643V990.485M584.052 966.959V974.801M584.052 982.643V990.485M524.425 1022.34H640.872M524.425 1030.19H589.428M524.425 1038.03H640.83M533.222 1014.5V1022.34M571.345 1022.34V1030.19M558.637 1030.19V1038.03M558.637 1014.5V1022.34M546.907 1022.34V1030.19M533.222 1030.19V1038.03M584.052 1014.5V1022.34M584.052 1030.19V1038.03M67.9358 966.469H133.428M77.222 966.959V974.801M115.344 974.801V982.643M102.637 982.643V990.485M102.637 966.959V974.801M90.9069 974.801V982.643M77.222 982.643V990.485M128.052 966.959V974.801M128.052 982.643V990.485M77.222 1014.5V1022.34M115.344 1022.34V1030.19M102.637 1030.19V1038.03M102.637 1014.5V1022.34M90.9069 1022.34V1030.19M77.222 1030.19V1038.03M128.052 1014.5V1022.34M128.052 1030.19V1038.03M197.942 982.643H263.923V974.801M198.431 966.469H263.923M207.717 966.959V974.801M245.84 974.801V982.643M233.132 982.643V990.485M233.132 966.959V974.801M221.402 974.801V982.643M207.717 982.643V990.485M258.547 966.959V974.801M258.547 982.643V990.485M197.942 1030.19H263.923V1022.34M207.717 1014.5V1022.34M245.84 1022.34V1030.19M233.132 1030.19V1038.03M233.132 1014.5V1022.34M221.402 1022.34V1030.19M207.717 1030.19V1038.03M258.547 1014.5V1022.34M258.547 1030.19V1038.03M458.933 982.643H524.914V974.801M459.422 966.469H524.914M468.708 966.959V974.801M506.83 974.801V982.643M494.123 982.643V990.485M494.123 966.959V974.801M482.393 974.801V982.643M468.708 982.643V990.485M519.538 966.959V974.801M519.538 982.643V990.485M458.933 1030.19H524.914V1022.34M468.708 1014.5V1022.34M506.83 1022.34V1030.19M494.123 1030.19V1038.03M494.123 1014.5V1022.34M482.393 1022.34V1030.19M468.708 1030.19V1038.03M519.538 1014.5V1022.34M519.538 1030.19V1038.03M327.949 982.643H393.93V974.801M328.438 966.469H393.93M337.724 966.959V974.801M375.846 974.801V982.643M363.139 982.643V990.485M363.139 966.959V974.801M351.409 974.801V982.643M337.724 982.643V990.485M388.554 966.959V974.801M388.554 982.643V990.485M327.949 1030.19H393.93V1022.34M337.724 1014.5V1022.34M375.846 1022.34V1030.19M363.139 1030.19V1038.03M363.139 1014.5V1022.34M351.409 1022.34V1030.19M337.724 1030.19V1038.03M388.554 1014.5V1022.34M388.554 1030.19V1038.03M2.44382 998.818H141.248M1.95508 1006.66H75.267M2.44382 1014.5H271.254M19.0612 990.975V998.818M57.1834 998.818V1006.66M44.476 1006.66V1014.5M44.476 990.975V998.818M32.7461 998.818V1006.66M19.0612 1006.66V1014.5M69.8908 990.975V998.818M69.8908 1006.66V1014.5M2.44382 1046.36H141.248M1.95508 1054.2H75.267M2.44382 1062.04H271.254M19.0612 1038.52V1046.36M57.1834 1046.36V1054.2M44.476 1054.2V1062.04M44.476 1038.52V1046.36M32.7461 1046.36V1054.2M19.0612 1054.2V1062.04M69.8908 1038.52V1046.36M69.8908 1054.2V1062.04M140.759 1006.66H205.762M140.759 1006.66H74.7783M140.759 1006.66V998.818H271.743M149.557 990.975V998.818M187.679 998.818V1006.66M174.971 1006.66V1014.5M174.971 990.975V998.818M163.241 998.818V1006.66M149.557 1006.66V1014.5M200.386 990.975V998.818M200.386 1006.66V1014.5M140.759 1054.2H205.762M140.759 1054.2H74.7783M140.759 1054.2V1046.36H271.743M149.557 1038.52V1046.36M187.679 1046.36V1054.2M174.971 1054.2V1062.04M174.971 1038.52V1046.36M163.241 1046.36V1054.2M149.557 1054.2V1062.04M200.386 1038.52V1046.36M200.386 1054.2V1062.04M401.75 1006.66H466.753M410.547 990.975V998.818M448.669 998.818V1006.66M435.962 1006.66V1014.5M435.962 990.975V998.818M424.232 998.818V1006.66M410.547 1006.66V1014.5M461.377 990.975V998.818M461.377 1006.66V1014.5M401.75 1054.2H466.753M401.75 1062.04H532.245M410.547 1038.52V1046.36M448.669 1046.36V1054.2M435.962 1054.2V1062.04M435.962 1038.52V1046.36M424.232 1046.36V1054.2M410.547 1054.2V1062.04M461.377 1038.52V1046.36M461.377 1054.2V1062.04M270.766 998.818H532.734M270.766 1006.66H335.769M270.766 1014.5H532.245M279.563 990.975V998.818M317.685 998.818V1006.66M304.978 1006.66V1014.5M304.978 990.975V998.818M293.248 998.818V1006.66M279.563 1006.66V1014.5M330.393 990.975V998.818M330.393 1006.66V1014.5M270.766 1046.36H532.734M270.766 1054.2H335.769M270.766 1062.04H401.261M279.563 1038.52V1046.36M317.685 1046.36V1054.2M304.978 1054.2V1062.04M304.978 1038.52V1046.36M293.248 1046.36V1054.2M279.563 1054.2V1062.04M330.393 1038.52V1046.36M330.393 1054.2V1062.04M531.756 998.818H597.248M531.756 1006.66H596.76M531.756 1014.5H596.76M540.554 990.975V998.818M578.676 998.818V1006.66M565.968 1006.66V1014.5M565.968 990.975V998.818M554.239 998.818V1006.66M540.554 1006.66V1014.5M591.383 990.975V998.818M591.383 1006.66V1014.5M531.756 1046.36H597.248M531.756 1054.2H596.76M531.756 1062.04H596.76M540.554 1038.52V1046.36M578.676 1046.36V1054.2M565.968 1054.2V1062.04M565.968 1038.52V1046.36M554.239 1046.36V1054.2M540.554 1054.2V1062.04M591.383 1038.52V1046.36M591.383 1054.2V1062.04M595.782 998.818H640.341M595.293 1006.66H640.83M596.271 1014.5H640.341M612.399 990.975V998.818M626.084 998.818V1006.66M612.399 1006.66V1014.5M595.782 1046.36H640.341M595.782 1054.2H640.341M596.271 1062.04H636.386M612.399 1038.52V1046.36M626.084 1046.36V1054.2M612.399 1054.2V1062.04M75.267 990.485H140.759M84.5532 990.975V998.818M122.675 998.818V1006.66M109.968 1006.66V1014.5M109.968 990.975V998.818M98.2381 998.818V1006.66M84.5532 1006.66V1014.5M135.383 990.975V998.818M135.383 1006.66V1014.5M75.267 1038.03H140.759M84.5532 1038.52V1046.36M122.675 1046.36V1054.2M109.968 1054.2V1062.04M109.968 1038.52V1046.36M98.2381 1046.36V1054.2M84.5532 1054.2V1062.04M135.383 1038.52V1046.36M135.383 1054.2V1062.04M205.274 1006.66H271.254V998.818M205.762 990.485H271.254M215.049 990.975V998.818M253.171 998.818V1006.66M240.463 1006.66V1014.5M240.463 990.975V998.818M228.733 998.818V1006.66M215.049 1006.66V1014.5M265.878 990.975V998.818M265.878 1006.66V1014.5M205.274 1054.2H271.254V1046.36M205.762 1038.03H271.254M215.049 1038.52V1046.36M253.171 1046.36V1054.2M240.463 1054.2V1062.04M240.463 1038.52V1046.36M228.733 1046.36V1054.2M215.049 1054.2V1062.04M265.878 1038.52V1046.36M265.878 1054.2V1062.04M466.264 1006.66H532.245V998.818M466.753 990.485H532.245M476.039 990.975V998.818M514.161 998.818V1006.66M501.454 1006.66V1014.5M501.454 990.975V998.818M489.724 998.818V1006.66M476.039 1006.66V1014.5M526.869 990.975V998.818M526.869 1006.66V1014.5M466.264 1054.2H532.245V1046.36M466.753 1038.03H532.245M476.039 1038.52V1046.36M514.161 1046.36V1054.2M501.454 1054.2V1062.04M501.454 1038.52V1046.36M489.724 1046.36V1054.2M476.039 1054.2V1062.04M526.869 1038.52V1046.36M526.869 1054.2V1062.04M335.28 1006.66H401.261V998.818M335.769 990.485H401.261M345.055 990.975V998.818M383.177 998.818V1006.66M370.47 1006.66V1014.5M370.47 990.975V998.818M358.74 998.818V1006.66M345.055 1006.66V1014.5M395.885 990.975V998.818M395.885 1006.66V1014.5M335.28 1054.2H401.261V1046.36M335.769 1038.03H401.261M345.055 1038.52V1046.36M383.177 1046.36V1054.2M370.47 1054.2V1062.04M370.47 1038.52V1046.36M358.74 1046.36V1054.2M345.055 1054.2V1062.04M395.885 1038.52V1046.36M395.885 1054.2V1062.04M588.94 982.643H640.83M589.428 966.469H640.83M598.715 966.959V974.801M624.129 982.643V990.485M624.129 966.959V974.801M612.399 974.801V982.643M598.715 982.643V990.485M588.94 1030.19H640.83M598.715 1014.5V1022.34M624.129 1030.19V1038.03M624.129 1014.5V1022.34M612.399 1022.34V1030.19M598.715 1030.19V1038.03" stroke="#23A159" stroke-width="0.852029"/>
<path d="M437.282 966.464V917.455H433.379V911.084H560.217V917.455H555.826V966.464M442.16 917.455H550.948V947.351H442.16V917.455Z" stroke="#23A159" stroke-width="0.852029"/>
<path d="M442.314 966.469V952.177H551.288V966.469" stroke="#23A159" stroke-width="0.852029"/>
<path d="M442.314 927.171H550.395" stroke="#23A159" stroke-width="0.852029"/>
<path d="M442.314 930.746H550.395" stroke="#23A159" stroke-width="0.852029"/>
<path d="M448.571 946.815C449.744 944.793 452.993 941.962 456.61 946.815" stroke="#23A159" stroke-width="0.852029"/>
<path d="M459.29 946.815C460.462 944.793 463.712 941.962 467.329 946.815" stroke="#23A159" stroke-width="0.852029"/>
<path d="M115.508 966.468C111.49 958.672 105.767 941.717 115.025 938.209L111.168 934.312H126.116L122.259 938.209" stroke="#23A159" stroke-width="0.852029"/>
<path d="M121.645 966.468C126.238 958.672 132.78 941.717 122.197 938.209L126.606 934.312" stroke="#23A159" stroke-width="0.852029"/>
<path d="M548.61 668.129H344.954V882.503H548.61V668.129Z" fill="white"/>
<path d="M542.763 673.989H350.801V876.643H542.763V673.989Z" fill="white"/>
<path d="M440.448 678.872H355.673V724.774H440.448V678.872Z" fill="white"/>
<path d="M440.448 737.471H355.673V868.342H440.448V737.471Z" fill="white"/>
<path d="M537.891 737.471H453.116V868.342H537.891V737.471Z" fill="white"/>
<path d="M537.891 678.872H453.116V724.774H537.891V678.872Z" fill="white"/>
<path d="M444.833 673.989V876.643M448.244 673.989V876.643M396.599 678.872V724.774M396.599 737.471V868.342M494.042 737.471V868.342M494.042 678.872V724.774M399.522 678.872V724.774M399.522 737.471V868.342M496.965 737.471V868.342M496.965 678.872V724.774M350.801 729.658H444.833M448.244 729.658H542.276M350.801 732.587H444.833M355.673 781.42H396.112M453.116 781.42H493.554M355.673 823.416H396.112M453.116 823.416H493.554M399.522 781.42H439.961M496.965 781.42H537.404M399.522 823.416H439.961M496.965 823.416H537.404M355.673 783.373H396.112M453.116 783.373H493.554M355.673 825.369H396.112M453.116 825.369H493.554M399.522 783.373H439.961M496.965 783.373H537.404M399.522 825.369H439.961M496.965 825.369H537.404M448.244 732.587H542.276M344.954 668.129H548.61V882.503H344.954V668.129ZM350.801 673.989H542.763V876.643H350.801V673.989ZM355.673 678.872H440.448V724.774H355.673V678.872ZM355.673 737.471H440.448V868.342H355.673V737.471ZM453.116 737.471H537.891V868.342H453.116V737.471ZM453.116 678.872H537.891V724.774H453.116V678.872Z" stroke="#23A159" stroke-width="0.852029"/>
<path d="M548.61 321.564H344.954V535.938H548.61V321.564Z" fill="white"/>
<path d="M542.763 327.424H350.801V530.078H542.763V327.424Z" fill="white"/>
<path d="M440.448 332.307H355.673V378.21H440.448V332.307Z" fill="white"/>
<path d="M440.448 390.906H355.673V521.777H440.448V390.906Z" fill="white"/>
<path d="M537.891 390.906H453.116V521.777H537.891V390.906Z" fill="white"/>
<path d="M537.891 332.307H453.116V378.21H537.891V332.307Z" fill="white"/>
<path d="M444.833 327.424V530.078M448.244 327.424V530.078M396.599 332.307V378.21M396.599 390.906V521.777M494.042 390.906V521.777M494.042 332.307V378.21M399.522 332.307V378.21M399.522 390.906V521.777M496.965 390.906V521.777M496.965 332.307V378.21M350.801 383.093H444.833M448.244 383.093H542.276M350.801 386.023H444.833M355.673 434.855H396.112M453.116 434.855H493.554M355.673 476.851H396.112M453.116 476.851H493.554M399.522 434.855H439.961M496.965 434.855H537.404M399.522 476.851H439.961M496.965 476.851H537.404M355.673 436.808H396.112M453.116 436.808H493.554M355.673 478.804H396.112M453.116 478.804H493.554M399.522 436.808H439.961M496.965 436.808H537.404M399.522 478.804H439.961M496.965 478.804H537.404M448.244 386.023H542.276M344.954 321.564H548.61V535.938H344.954V321.564ZM350.801 327.424H542.763V530.078H350.801V327.424ZM355.673 332.307H440.448V378.21H355.673V332.307ZM355.673 390.906H440.448V521.777H355.673V390.906ZM453.116 390.906H537.891V521.777H453.116V390.906ZM453.116 332.307H537.891V378.21H453.116V332.307Z" stroke="#23A159" stroke-width="0.852029"/>
<path d="M263.668 966.469H290.465" stroke="#23A159" stroke-width="0.852029"/>
<path d="M348.554 943.841H344.614C337.883 933.837 325.011 910.976 327.375 899.562C327.432 899.402 327.5 899.229 327.579 899.046C328.63 896.602 331.602 892.297 336.734 891.198V880.866C336.898 878.735 338.605 874.471 344.122 874.471H386.973H387.958H400.272C405.788 874.471 407.496 878.735 407.66 880.866V891.198C407.716 891.21 407.773 891.223 407.829 891.236C413.238 892.479 416.206 897.29 417.019 899.562C419.383 910.976 406.511 933.837 399.78 943.841H399.287H395.839H388.943H387.958L388.793 946.793H355.6L356.435 943.841H348.554Z" fill="#F8FBF8"/>
<path d="M344.614 943.841C344.943 940.233 346.88 933.018 352.003 933.018M344.614 943.841H348.554M344.614 943.841C337.883 933.837 325.011 910.976 327.375 899.562C328.196 897.266 331.217 892.379 336.734 891.198M352.003 933.018H392.391M352.003 933.018C347.241 921.21 335.65 897.889 327.376 899.07M399.287 943.841C398.958 940.233 397.021 933.018 391.898 933.018C396.66 921.21 408.251 897.889 416.526 899.07M346.091 966.473L348.554 943.841M348.554 943.841H356.435M336.734 891.198V880.866C336.898 878.735 338.605 874.471 344.122 874.471H387.958M336.734 891.198C341.988 891.69 352.397 897.299 352.003 915.798M350.032 966.473L356.435 943.841M356.435 943.841H388.943M355.6 946.793H388.793M394.361 966.473L387.958 943.841H395.839M395.839 943.841L398.302 966.473M395.839 943.841H399.78C406.511 933.837 419.383 910.976 417.019 899.562C416.198 897.266 413.176 892.379 407.66 891.198V880.866C407.496 878.735 405.788 874.471 400.272 874.471H386.973M349.047 926.622H394.361M346.092 920.226L352.003 915.798M352.003 915.798H392.884L397.809 920.226M408.163 891.198C402.909 891.69 392.5 897.299 392.894 915.798" stroke="#23A159" stroke-width="0.852029"/>
<path d="M554.96 598.366H493.138L486.81 598.365H483.402V564.232C481.618 563.257 478.048 558.965 478.048 555.455C478.048 551.066 480.969 547.653 487.297 545.702V545.655V503.767C489.082 502.792 493.917 502.304 497.032 508.156C505.632 504.417 526.921 498.696 551.066 507.668C554.181 501.817 559.503 502.791 561.288 503.767V545.703V545.858C567.279 547.831 570.05 551.18 570.05 555.455C570.05 558.966 566.48 563.257 564.696 564.232V598.366H561.288L554.96 598.366Z" fill="#F8FBF8"/>
<path d="M497.032 551.554V507.668M551.066 551.554V507.668M551.066 507.668C526.921 498.696 505.632 504.417 497.032 508.156C493.917 502.304 489.082 502.792 487.297 503.767V545.702C480.969 547.653 478.048 551.066 478.048 555.455C478.048 558.965 481.618 563.257 483.402 564.232V598.365H486.81M551.066 507.668C554.181 501.817 559.503 502.791 561.288 503.767V546.19M551.066 566.671V551.473C551.877 549.099 554.668 544.943 561.288 545.703M497.032 566.671V551.473C496.221 549.099 493.43 544.943 486.81 545.703M565.182 547.653C558.562 546.873 554.798 551.554 553.986 553.992V569.596H494.112V553.992C493.3 551.554 489.536 546.873 482.916 547.653M493.138 598.366H554.96M493.138 598.366L490.217 615.432M493.138 598.366L486.81 598.365M493.138 598.366V584.225L495.572 582.762M554.96 598.366L557.881 615.432M554.96 598.366L561.288 598.366M554.96 598.366V584.225L552.039 582.762H495.572M486.81 615.432V598.365M561.288 615.432V598.366M561.288 598.366H564.696V564.232C566.48 563.257 570.05 558.966 570.05 555.455C570.05 551.066 567.129 547.653 560.801 545.703M495.572 582.762C493.949 579.998 492.164 573.984 493.624 570.571C495.134 567.04 500.44 563.744 503.847 563.257H540.843M552.527 582.762C554.149 579.998 555.935 573.984 554.474 570.571C552.964 567.04 547.658 563.744 544.251 563.257H507.255" stroke="#23A159" stroke-width="0.852029"/>
<circle cx="589.738" cy="263.738" r="14.3122" fill="white" stroke="#23A159" stroke-width="0.852029"/>
<circle cx="589.73" cy="263.739" r="6.27318" fill="#23A159" stroke="#23A159" stroke-width="0.852029"/>
<circle cx="447.738" cy="784.738" r="14.3122" fill="white" stroke="#23A159" stroke-width="0.852029"/>
<circle cx="447.744" cy="784.744" r="6.27318" fill="#23A159" stroke="#23A159" stroke-width="0.852029"/>
<circle cx="290.738" cy="477.738" r="14.3122" fill="white" stroke="#23A159" stroke-width="0.852029"/>
<circle cx="290.739" cy="477.735" r="6.27318" fill="#23A159" stroke="#23A159" stroke-width="0.852029"/>
</svg>
