<svg width="166" height="83" viewBox="0 0 166 83" fill="none" xmlns="http://www.w3.org/2000/svg">
<path d="M77.2119 31.8195H75.6683C75.2155 30.6258 74.7422 29.2262 74.2482 27.6209C73.7954 26.0156 73.4044 24.4926 73.0751 23.0519C74.5158 21.817 76.2446 20.8497 78.2615 20.1499C80.2785 19.409 82.4601 19.0386 84.8064 19.0386C86.8645 19.0386 88.6345 19.3267 90.1163 19.903C91.5982 20.4792 92.8125 21.2613 93.7592 22.2492C94.7471 23.2371 95.4674 24.3897 95.9202 25.7069C96.373 26.9829 96.5994 28.3207 96.5994 29.7202C96.5994 32.0253 96.0643 34.3921 94.9941 36.8207C93.9238 39.2493 92.5861 41.6161 90.9807 43.9212C89.4166 46.1852 87.7083 48.3256 85.856 50.3426C84.0037 52.3595 82.2955 54.1295 80.7313 55.6525L78.1381 58.0605V58.3075L81.5957 57.937H92.2156L95.241 51.0217H96.7846C96.8669 51.9273 96.9493 52.9152 97.0316 53.9854C97.1139 55.0557 97.1757 56.1465 97.2168 57.2578C97.2992 58.3281 97.3609 59.3777 97.4021 60.4068C97.4432 61.3947 97.4638 62.2591 97.4638 63H71.9637V61.0242C72.8693 60.0775 73.9601 58.9249 75.2361 57.5666C76.5533 56.2082 77.9117 54.7058 79.3112 53.0593C80.7107 51.4128 82.0896 49.6634 83.448 47.8111C84.8475 45.9588 86.0824 44.0859 87.1526 42.1924C88.2228 40.2578 89.0873 38.3437 89.7459 36.4502C90.4456 34.5568 90.7955 32.7456 90.7955 31.0168C90.7955 29.8231 90.6308 28.6911 90.3015 27.6209C90.0134 26.5507 89.5606 25.6245 88.9432 24.8424C88.3258 24.0192 87.5642 23.3812 86.6587 22.9284C85.7943 22.4756 84.7858 22.2492 83.6332 22.2492C82.7688 22.2492 82.0073 22.311 81.3487 22.4345C80.6901 22.5579 79.9698 22.7432 79.1877 22.9901L77.2119 31.8195Z" fill="white"/>
<path d="M11.912 44.274H15.4976V44.5248H15.3723C15.2385 44.5248 15.1215 44.5749 15.0212 44.6752C14.9209 44.7588 14.8373 44.8675 14.7705 45.0012C14.7036 45.1349 14.6451 45.277 14.595 45.4275C14.5615 45.5779 14.5448 45.7116 14.5448 45.8287V52.5487C14.2439 52.6657 13.9012 52.766 13.5167 52.8496C13.1323 52.9331 12.7311 53 12.3132 53.0501C11.8953 53.117 11.469 53.1672 11.0344 53.2006C10.5997 53.234 10.1985 53.2507 9.83077 53.2507C8.32629 53.2507 7.01406 53 5.89406 52.4985C4.77406 51.997 3.84629 51.3451 3.11077 50.5427C2.37525 49.7236 1.82361 48.8042 1.45585 47.7845C1.1048 46.7648 0.929279 45.7367 0.929279 44.7003C0.929279 43.6639 1.1048 42.6358 1.45585 41.6161C1.82361 40.5964 2.37525 39.6854 3.11077 38.883C3.86301 38.0806 4.79913 37.437 5.91913 36.9522C7.05585 36.4507 8.40152 36.2 9.95615 36.2C10.5412 36.2 11.0845 36.2501 11.586 36.3504C12.0875 36.4507 12.5305 36.5427 12.915 36.6263C13.1323 36.6764 13.3161 36.7266 13.4666 36.7767C13.6338 36.8101 13.7758 36.8269 13.8929 36.8269H14.1185V39.4848H13.8678C13.7675 38.9666 13.5669 38.5487 13.266 38.231C12.9818 37.9134 12.6475 37.671 12.263 37.5039C11.8785 37.3367 11.469 37.2281 11.0344 37.1779C10.6164 37.111 10.2236 37.0776 9.85585 37.0776C8.60212 37.0776 7.51555 37.3033 6.59615 37.7546C5.67674 38.1893 4.9245 38.7576 4.33943 39.4597C3.75435 40.1618 3.31973 40.9558 3.03555 41.8418C2.75137 42.711 2.60928 43.5803 2.60928 44.4496C2.60928 45.4191 2.79316 46.3803 3.16092 47.3331C3.52868 48.2693 4.04689 49.1134 4.71555 49.8657C5.38421 50.6012 6.18659 51.203 7.12271 51.671C8.07555 52.1224 9.12868 52.3481 10.2821 52.3481C10.5997 52.3481 10.9926 52.3146 11.4606 52.2478C11.9287 52.1642 12.3967 51.9887 12.8648 51.7212V45.8287C12.8648 45.7116 12.8481 45.5779 12.8147 45.4275C12.7812 45.277 12.7227 45.1349 12.6391 45.0012C12.5723 44.8675 12.4887 44.7588 12.3884 44.6752C12.2881 44.5749 12.1711 44.5248 12.0373 44.5248H11.912V44.274ZM21.0197 52.7493H21.1451V53H17.6096V52.7493H17.735C17.852 52.7493 17.9606 52.6991 18.0609 52.5988C18.1612 52.4985 18.2448 52.3815 18.3117 52.2478C18.3953 52.114 18.4538 51.9719 18.4872 51.8215C18.5206 51.6543 18.5373 51.5039 18.5373 51.3701V38.0054C18.5373 37.8884 18.5206 37.7546 18.4872 37.6042C18.4538 37.4537 18.3953 37.3116 18.3117 37.1779C18.2448 37.0442 18.1612 36.9355 18.0609 36.8519C17.9606 36.7516 17.852 36.7015 17.735 36.7015H17.6096V36.4507H21.9726C23.6442 36.4507 24.9314 36.7767 25.8341 37.4287C26.7535 38.0806 27.2132 39.0418 27.2132 40.3122C27.2132 40.9475 27.1045 41.5075 26.8872 41.9922C26.6866 42.4603 26.4108 42.8699 26.0597 43.2209C25.7087 43.5552 25.2908 43.831 24.806 44.0484C24.3379 44.249 23.8365 44.3994 23.3015 44.4997L25.1069 47.2579C25.5415 47.9266 25.9845 48.5869 26.4359 49.2388C26.8872 49.874 27.3302 50.5343 27.7648 51.2197C27.8818 51.3869 28.0072 51.5624 28.1409 51.7463C28.2914 51.9301 28.4418 52.0973 28.5923 52.2478C28.7594 52.3982 28.9266 52.5236 29.0938 52.6239C29.2776 52.7075 29.4615 52.7493 29.6454 52.7493V53H28.5672C27.8985 53 27.3469 52.8412 26.9123 52.5236C26.4944 52.1893 26.1433 51.8048 25.8591 51.3701C25.1069 50.2669 24.3547 49.1469 23.6024 48.0101C22.8669 46.8734 22.1314 45.7534 21.3959 44.6501C21.212 44.6334 21.0114 44.6167 20.7941 44.6C20.5935 44.5666 20.4012 44.5331 20.2173 44.4997V51.3701C20.2173 51.5039 20.2341 51.6543 20.2675 51.8215C20.3009 51.9719 20.3511 52.114 20.4179 52.2478C20.5015 52.3815 20.5851 52.4985 20.6687 52.5988C20.769 52.6991 20.886 52.7493 21.0197 52.7493ZM20.2173 37.3033V43.6722H20.3427C20.4765 43.689 20.6854 43.7057 20.9696 43.7224C21.2705 43.7224 21.6382 43.7224 22.0729 43.7224C22.4239 43.7224 22.7917 43.6722 23.1762 43.5719C23.5773 43.4549 23.9451 43.271 24.2794 43.0203C24.6305 42.7528 24.9147 42.4101 25.132 41.9922C25.366 41.5743 25.483 41.0478 25.483 40.4125C25.483 39.7773 25.3576 39.2591 25.1069 38.8579C24.8729 38.4567 24.5385 38.1391 24.1039 37.9051C23.686 37.671 23.1762 37.5122 22.5744 37.4287C21.9726 37.3451 21.3123 37.3033 20.5935 37.3033H20.2173ZM31.1509 52.7493H31.2762C31.41 52.7493 31.527 52.7075 31.6273 52.6239C31.7276 52.5236 31.8112 52.4066 31.878 52.2728C31.9616 52.1391 32.0201 51.997 32.0536 51.8466C32.1037 51.6961 32.1288 51.554 32.1288 51.4203V38.0054C32.1288 37.8884 32.1037 37.7546 32.0536 37.6042C32.0201 37.4537 31.9616 37.3116 31.878 37.1779C31.8112 37.0442 31.7276 36.9355 31.6273 36.8519C31.527 36.7516 31.41 36.7015 31.2762 36.7015H31.1509V36.4507H40.8046V38.7827H40.5539C40.5204 38.3982 40.37 38.0639 40.1025 37.7797C39.835 37.4788 39.4171 37.3284 38.8488 37.3284H33.8088V43.6722H37.9712C38.3556 43.6722 38.6733 43.5552 38.924 43.3212C39.1915 43.0872 39.3252 42.8113 39.3252 42.4937H39.5759V45.6281H39.3252C39.3252 45.3272 39.1998 45.0681 38.9491 44.8507C38.6983 44.6334 38.3724 44.5248 37.9712 44.5248H33.8088V52.1224H39.3001C39.6177 52.1224 39.8936 52.0472 40.1276 51.8967C40.3616 51.7463 40.5539 51.5707 40.7043 51.3701C40.8715 51.1528 40.9885 50.9272 41.0553 50.6931C41.1389 50.4424 41.1807 50.2334 41.1807 50.0663H41.4315V53H31.1509V52.7493ZM43.3209 52.7493H43.4462C43.58 52.7493 43.697 52.7075 43.7973 52.6239C43.8976 52.5236 43.9812 52.4066 44.048 52.2728C44.1316 52.1391 44.1901 51.997 44.2236 51.8466C44.2737 51.6961 44.2988 51.554 44.2988 51.4203V38.0054C44.2988 37.8884 44.2737 37.7546 44.2236 37.6042C44.1901 37.4537 44.1316 37.3116 44.048 37.1779C43.9812 37.0442 43.8976 36.9355 43.7973 36.8519C43.697 36.7516 43.58 36.7015 43.4462 36.7015H43.3209V36.4507H52.9746V38.7827H52.7239C52.6904 38.3982 52.54 38.0639 52.2725 37.7797C52.0051 37.4788 51.5871 37.3284 51.0188 37.3284H45.9788V43.6722H50.1412C50.5257 43.6722 50.8433 43.5552 51.094 43.3212C51.3615 43.0872 51.4952 42.8113 51.4952 42.4937H51.7459V45.6281H51.4952C51.4952 45.3272 51.3698 45.0681 51.1191 44.8507C50.8683 44.6334 50.5424 44.5248 50.1412 44.5248H45.9788V52.1224H51.4701C51.7877 52.1224 52.0636 52.0472 52.2976 51.8967C52.5316 51.7463 52.7239 51.5707 52.8743 51.3701C53.0415 51.1528 53.1585 50.9272 53.2254 50.6931C53.3089 50.4424 53.3507 50.2334 53.3507 50.0663H53.6015V53H43.3209V52.7493ZM58.1237 52.7493H58.2491V53H55.4658V52.7493H55.5912C55.7082 52.7493 55.8169 52.6991 55.9172 52.5988C56.0342 52.4985 56.1261 52.3815 56.193 52.2478C56.2598 52.114 56.31 51.9719 56.3434 51.8215C56.3936 51.6543 56.4186 51.5039 56.4186 51.3701V38.0054C56.4186 37.8884 56.4019 37.7546 56.3685 37.6042C56.3518 37.4537 56.31 37.3116 56.2431 37.1779C56.1763 37.0442 56.0843 36.9355 55.9673 36.8519C55.8503 36.7516 55.7082 36.7015 55.541 36.7015H55.4157V36.4507H57.9482L67.0503 50.7934V38.0054C67.0503 37.8884 67.0252 37.7546 66.9751 37.6042C66.9416 37.4537 66.8831 37.3116 66.7995 37.1779C66.7327 37.0442 66.6491 36.9355 66.5488 36.8519C66.4485 36.7516 66.3315 36.7015 66.1978 36.7015H66.0724V36.4507H68.8807V36.7015H68.7554C68.6216 36.7015 68.5046 36.7516 68.4043 36.8519C68.304 36.9355 68.2121 37.0442 68.1285 37.1779C68.0616 37.3116 68.0115 37.4537 67.978 37.6042C67.9446 37.7546 67.9279 37.8884 67.9279 38.0054V53H66.3733L57.2963 38.6072V51.3701C57.2963 51.5039 57.313 51.6543 57.3464 51.8215C57.3798 51.9719 57.43 52.114 57.4969 52.2478C57.5804 52.3815 57.6724 52.4985 57.7727 52.5988C57.873 52.6991 57.99 52.7493 58.1237 52.7493ZM110.148 52.7493H110.273V53H106.712V52.7493H106.838C106.971 52.7493 107.088 52.6991 107.189 52.5988C107.289 52.4985 107.373 52.3815 107.439 52.2478C107.523 52.114 107.582 51.9719 107.615 51.8215C107.648 51.6543 107.665 51.5039 107.665 51.3701V37.3785H104.756C104.489 37.3785 104.255 37.437 104.054 37.554C103.854 37.671 103.687 37.8215 103.553 38.0054C103.419 38.1725 103.319 38.3648 103.252 38.5821C103.185 38.7827 103.152 38.9833 103.152 39.1839H102.901V36.4507H114.159V39.1839H113.909C113.909 38.9833 113.875 38.7827 113.808 38.5821C113.742 38.3648 113.641 38.1725 113.508 38.0054C113.374 37.8215 113.207 37.671 113.006 37.554C112.805 37.437 112.571 37.3785 112.304 37.3785H109.345V51.3701C109.345 51.5039 109.362 51.6543 109.395 51.8215C109.429 51.9719 109.479 52.114 109.546 52.2478C109.629 52.3815 109.713 52.4985 109.796 52.5988C109.897 52.6991 110.014 52.7493 110.148 52.7493ZM122.734 36.2C124.038 36.2 125.208 36.434 126.245 36.9021C127.281 37.3534 128.159 37.9719 128.877 38.7576C129.613 39.5266 130.173 40.4293 130.557 41.4657C130.959 42.4854 131.159 43.5552 131.159 44.6752C131.159 45.929 130.925 47.0824 130.457 48.1355C130.006 49.1887 129.379 50.0913 128.577 50.8436C127.774 51.5958 126.838 52.1893 125.768 52.6239C124.715 53.0418 123.587 53.2507 122.383 53.2507C121.096 53.2507 119.934 53.0167 118.898 52.5487C117.878 52.0806 117.009 51.4621 116.29 50.6931C115.588 49.9242 115.045 49.0382 114.66 48.0352C114.276 47.0322 114.083 45.9875 114.083 44.9009C114.083 43.831 114.276 42.7779 114.66 41.7415C115.045 40.6884 115.605 39.7522 116.34 38.9331C117.092 38.114 118.003 37.4537 119.073 36.9522C120.143 36.4507 121.363 36.2 122.734 36.2ZM122.709 52.3731C123.829 52.323 124.807 52.0722 125.643 51.6209C126.495 51.1528 127.206 50.5678 127.774 49.8657C128.343 49.1469 128.76 48.3612 129.028 47.5087C129.312 46.6561 129.454 45.8119 129.454 44.9761C129.454 44.0567 129.287 43.129 128.953 42.1928C128.618 41.2567 128.142 40.4125 127.523 39.6603C126.905 38.8913 126.161 38.2728 125.292 37.8048C124.439 37.32 123.478 37.0776 122.408 37.0776C121.372 37.0776 120.444 37.3116 119.625 37.7797C118.806 38.231 118.104 38.8161 117.519 39.5349C116.95 40.2537 116.516 41.0561 116.215 41.9421C115.914 42.8281 115.763 43.6973 115.763 44.5499C115.763 45.4693 115.939 46.397 116.29 47.3331C116.641 48.2525 117.126 49.0884 117.744 49.8406C118.363 50.5928 119.09 51.203 119.926 51.671C120.778 52.1391 121.706 52.3731 122.709 52.3731ZM149.886 36.7015C149.551 36.7015 149.267 36.8436 149.033 37.1278C148.799 37.4119 148.64 37.7212 148.557 38.0555L143.993 53.1003L140.082 40.7636L136.17 53.1254L131.581 38.0806C131.498 37.763 131.347 37.4537 131.13 37.1528C130.929 36.8519 130.695 36.7015 130.428 36.7015V36.4507H133.988V36.7015C133.771 36.7015 133.587 36.7934 133.437 36.9773C133.303 37.1445 133.236 37.3618 133.236 37.6293C133.236 37.7128 133.253 37.8215 133.286 37.9552L136.546 48.5869L140.533 36.3003L144.369 48.5618L147.679 37.9552C147.679 37.9218 147.687 37.8549 147.704 37.7546C147.738 37.6376 147.754 37.5457 147.754 37.4788C147.754 37.2448 147.687 37.0609 147.554 36.9272C147.42 36.7767 147.286 36.7015 147.153 36.7015V36.4507H149.886V36.7015ZM154.015 52.7493H154.14V53H151.357V52.7493H151.482C151.599 52.7493 151.708 52.6991 151.808 52.5988C151.925 52.4985 152.017 52.3815 152.084 52.2478C152.151 52.114 152.201 51.9719 152.234 51.8215C152.284 51.6543 152.31 51.5039 152.31 51.3701V38.0054C152.31 37.8884 152.293 37.7546 152.259 37.6042C152.243 37.4537 152.201 37.3116 152.134 37.1779C152.067 37.0442 151.975 36.9355 151.858 36.8519C151.741 36.7516 151.599 36.7015 151.432 36.7015H151.307V36.4507H153.839L162.941 50.7934V38.0054C162.941 37.8884 162.916 37.7546 162.866 37.6042C162.832 37.4537 162.774 37.3116 162.69 37.1779C162.624 37.0442 162.54 36.9355 162.44 36.8519C162.339 36.7516 162.222 36.7015 162.089 36.7015H161.963V36.4507H164.772V36.7015H164.646C164.512 36.7015 164.395 36.7516 164.295 36.8519C164.195 36.9355 164.103 37.0442 164.019 37.1779C163.952 37.3116 163.902 37.4537 163.869 37.6042C163.835 37.7546 163.819 37.8884 163.819 38.0054V53H162.264L153.187 38.6072V51.3701C153.187 51.5039 153.204 51.6543 153.237 51.8215C153.271 51.9719 153.321 52.114 153.388 52.2478C153.471 52.3815 153.563 52.4985 153.664 52.5988C153.764 52.6991 153.881 52.7493 154.015 52.7493Z" fill="white"/>
</svg>
